<svg width="654" height="140" viewBox="0 0 654 140" fill="none" xmlns="http://www.w3.org/2000/svg">
<path d="M43.6156 139.15C34.369 139.15 26.5156 137.313 20.0556 133.64C13.5956 129.84 8.71896 124.203 5.42563 116.73C4.15896 113.816 3.20896 110.713 2.57563 107.42C1.94229 104 1.49896 99.4397 1.24563 93.7397C0.992292 88.0397 0.865625 79.9963 0.865625 69.6097C0.865625 59.223 0.992292 51.1797 1.24563 45.4797C1.49896 39.7797 1.94229 35.283 2.57563 31.9897C3.20896 28.5697 4.15896 25.403 5.42563 22.4897C12.2656 7.54301 24.9956 0.0696796 43.6156 0.0696796C55.3956 0.0696796 64.769 3.29968 71.7356 9.75968C76.2956 13.813 79.4623 18.753 81.2356 24.5797C83.009 30.2797 83.8956 37.943 83.8956 47.5697H51.4056C51.4056 43.1364 51.279 39.7797 51.0256 37.4997C50.899 35.2197 50.6456 33.6363 50.2656 32.7497C49.8856 31.7364 49.3156 30.913 48.5556 30.2797C47.7956 29.5197 46.9723 29.013 46.0856 28.7597C45.199 28.3797 44.059 28.1897 42.6656 28.1897C40.7656 28.1897 39.119 28.633 37.7256 29.5197C36.459 30.4063 35.509 31.673 34.8756 33.3197C34.4956 34.4597 34.179 35.853 33.9256 37.4997C33.6723 39.1464 33.4823 42.693 33.3556 48.1397C33.3556 53.5864 33.3556 60.743 33.3556 69.6097C33.3556 78.3497 33.3556 85.443 33.3556 90.8897C33.4823 96.3364 33.609 99.9464 33.7356 101.72C33.989 103.493 34.3056 104.886 34.6856 105.9C36.3323 109.32 39.0556 111.03 42.8556 111.03C45.2623 111.03 47.289 110.333 48.9356 108.94C49.569 108.306 50.0123 107.61 50.2656 106.85C50.6456 105.963 50.9623 104.316 51.2156 101.91C51.469 99.3764 51.5956 96.2097 51.5956 92.4097H84.2756C84.149 101.023 83.1356 108.433 81.2356 114.64C79.3356 120.72 76.359 125.66 72.3056 129.46C65.2123 135.92 55.649 139.15 43.6156 139.15ZM116.168 22.8467C124.147 8.55957 136.176 1.41602 152.257 1.41602C160.112 1.41602 166.884 3.24056 172.574 6.88965C178.326 10.4769 183.089 15.6104 186.862 22.29C177.399 17.9606 165.864 15.7959 152.257 15.7959C138.65 15.7959 126.621 18.1462 116.168 22.8467ZM186.862 117.847C190.14 111.847 192.552 104.735 194.098 96.5088C195.706 88.221 196.51 79.1292 196.51 69.2334C196.51 59.8324 195.706 51.1426 194.098 43.1641C192.552 35.1855 190.14 28.2275 186.862 22.29C196.201 26.4339 203.375 32.4642 208.385 40.3809C213.395 48.2975 215.9 57.915 215.9 69.2334C215.9 81.1084 213.395 91.1589 208.385 99.3848C203.375 107.549 196.201 113.703 186.862 117.847ZM117.653 117.847C108.004 113.579 100.52 107.363 95.2014 99.1992C89.9442 90.9733 87.3156 80.9847 87.3156 69.2334C87.3156 58.348 89.8205 48.9779 94.8303 41.123C99.9019 33.2064 107.015 27.1143 116.168 22.8467C113.014 28.7842 110.633 35.6803 109.025 43.5352C107.478 51.39 106.705 59.9561 106.705 69.2334C106.705 78.8818 107.633 87.8499 109.488 96.1377C111.344 104.425 114.065 111.662 117.653 117.847ZM152.257 138.999C144.711 138.999 138.032 137.174 132.218 133.525C126.404 129.814 121.549 124.588 117.653 117.847C127.301 122.176 138.836 124.341 152.257 124.341C165.864 124.341 177.399 122.176 186.862 117.847C183.212 124.65 178.481 129.876 172.667 133.525C166.915 137.174 160.112 138.999 152.257 138.999ZM223.339 2.53968H251.459L278.439 64.4797V2.53968H309.029V136.68H281.479L253.739 73.4097V136.68H223.339V2.53968ZM317.968 2.53968H346.088L373.068 64.4797V2.53968H403.658V136.68H376.108L348.368 73.4097V136.68H317.968V2.53968ZM429.709 61.0693C423.833 60.4508 419.689 58.6263 417.277 55.5957C414.927 52.5033 413.752 47.8027 413.752 41.4941V3.64258H500.217V17.373H429.709V61.0693ZM429.709 61.0693C430.822 61.193 432.771 61.2549 435.554 61.2549H496.599V74.5215H435.554C433.884 74.5215 431.936 74.6452 429.709 74.8926V61.0693ZM413.752 94.6533C413.752 89.2106 414.989 84.7884 417.463 81.3867C419.937 77.985 424.019 75.8203 429.709 74.8926V123.042H502.072V136.68H413.752V94.6533ZM549.721 139.15C540.474 139.15 532.621 137.313 526.161 133.64C519.701 129.84 514.824 124.203 511.531 116.73C510.264 113.816 509.314 110.713 508.681 107.42C508.047 104 507.604 99.4397 507.351 93.7397C507.097 88.0397 506.971 79.9963 506.971 69.6097C506.971 59.223 507.097 51.1797 507.351 45.4797C507.604 39.7797 508.047 35.283 508.681 31.9897C509.314 28.5697 510.264 25.403 511.531 22.4897C518.371 7.54301 531.101 0.0696796 549.721 0.0696796C561.501 0.0696796 570.874 3.29968 577.841 9.75968C582.401 13.813 585.567 18.753 587.341 24.5797C589.114 30.2797 590.001 37.943 590.001 47.5697H557.511C557.511 43.1364 557.384 39.7797 557.131 37.4997C557.004 35.2197 556.751 33.6363 556.371 32.7497C555.991 31.7364 555.421 30.913 554.661 30.2797C553.901 29.5197 553.077 29.013 552.191 28.7597C551.304 28.3797 550.164 28.1897 548.771 28.1897C546.871 28.1897 545.224 28.633 543.831 29.5197C542.564 30.4063 541.614 31.673 540.981 33.3197C540.601 34.4597 540.284 35.853 540.031 37.4997C539.777 39.1464 539.587 42.693 539.461 48.1397C539.461 53.5864 539.461 60.743 539.461 69.6097C539.461 78.3497 539.461 85.443 539.461 90.8897C539.587 96.3364 539.714 99.9464 539.841 101.72C540.094 103.493 540.411 104.886 540.791 105.9C542.437 109.32 545.161 111.03 548.961 111.03C551.367 111.03 553.394 110.333 555.041 108.94C555.674 108.306 556.117 107.61 556.371 106.85C556.751 105.963 557.067 104.316 557.321 101.91C557.574 99.3764 557.701 96.2097 557.701 92.4097H590.381C590.254 101.023 589.241 108.433 587.341 114.64C585.441 120.72 582.464 125.66 578.411 129.46C571.317 135.92 561.754 139.15 549.721 139.15ZM607.288 30.2797H592.278V2.53968H653.648V30.2797H638.828V136.68H607.288V30.2797Z" fill="#F7F3E8"/>
</svg>
