<svg width="526" height="140" viewBox="0 0 526 140" fill="none" xmlns="http://www.w3.org/2000/svg">
<path d="M43.6 139.255C34.3533 139.255 26.5 137.418 20.04 133.745C13.58 129.945 8.70333 124.308 5.41 116.835C4.14333 113.922 3.19333 110.818 2.56 107.525C1.92667 104.105 1.48333 99.5452 1.23 93.8452C0.976667 88.1452 0.85 80.1018 0.85 69.7152C0.85 59.3285 0.976667 51.2852 1.23 45.5852C1.48333 39.8852 1.92667 35.3885 2.56 32.0952C3.19333 28.6752 4.14333 25.5085 5.41 22.5952C12.25 7.64848 24.98 0.175148 43.6 0.175148C55.38 0.175148 64.7533 3.40515 71.72 9.86515C76.28 13.9185 79.4467 18.8585 81.22 24.6851C82.9933 30.3852 83.88 38.0485 83.88 47.6752H51.39C51.39 43.2418 51.2633 39.8852 51.01 37.6052C50.8833 35.3252 50.63 33.7418 50.25 32.8551C49.87 31.8418 49.3 31.0185 48.54 30.3852C47.78 29.6252 46.9567 29.1185 46.07 28.8652C45.1833 28.4852 44.0433 28.2951 42.65 28.2951C40.75 28.2951 39.1033 28.7385 37.71 29.6252C36.4433 30.5118 35.4933 31.7785 34.86 33.4252C34.48 34.5652 34.1633 35.9585 33.91 37.6052C33.6567 39.2518 33.4667 42.7985 33.34 48.2452C33.34 53.6918 33.34 60.8485 33.34 69.7152C33.34 78.4552 33.34 85.5485 33.34 90.9952C33.4667 96.4418 33.5933 100.052 33.72 101.825C33.9733 103.598 34.29 104.992 34.67 106.005C36.3167 109.425 39.04 111.135 42.84 111.135C45.2467 111.135 47.2733 110.438 48.92 109.045C49.5533 108.412 49.9967 107.715 50.25 106.955C50.63 106.068 50.9467 104.422 51.2 102.015C51.4533 99.4818 51.58 96.3152 51.58 92.5152H84.26C84.1333 101.128 83.12 108.538 81.22 114.745C79.32 120.825 76.3433 125.765 72.29 129.565C65.1967 136.025 55.6333 139.255 43.6 139.255ZM114.253 22.9521C122.231 8.66504 134.261 1.52148 150.341 1.52148C158.196 1.52148 164.969 3.34603 170.659 6.99512C176.411 10.5824 181.173 15.7158 184.946 22.3955C175.483 18.0661 163.948 15.9014 150.341 15.9014C136.735 15.9014 124.705 18.2516 114.253 22.9521ZM184.946 117.952C188.224 111.953 190.636 104.84 192.182 96.6143C193.79 88.3265 194.594 79.2347 194.594 69.3389C194.594 59.9378 193.79 51.248 192.182 43.2695C190.636 35.291 188.224 28.333 184.946 22.3955C194.285 26.5394 201.46 32.5697 206.469 40.4863C211.479 48.403 213.984 58.0205 213.984 69.3389C213.984 81.2139 211.479 91.2643 206.469 99.4902C201.46 107.654 194.285 113.808 184.946 117.952ZM115.737 117.952C106.088 113.685 98.6048 107.469 93.2857 99.3047C88.0286 91.0788 85.4 81.0902 85.4 69.3389C85.4 58.4535 87.9049 49.0833 92.9146 41.2285C97.9863 33.3118 105.099 27.2197 114.253 22.9521C111.098 28.8896 108.717 35.7858 107.109 43.6406C105.563 51.4954 104.79 60.0615 104.79 69.3389C104.79 78.9873 105.717 87.9554 107.573 96.2432C109.428 104.531 112.15 111.767 115.737 117.952ZM150.341 139.104C142.796 139.104 136.116 137.28 130.302 133.631C124.489 129.92 119.633 124.694 115.737 117.952C125.385 122.282 136.92 124.446 150.341 124.446C163.948 124.446 175.483 122.282 184.946 117.952C181.297 124.756 176.565 129.982 170.752 133.631C165 137.28 158.196 139.104 150.341 139.104ZM221.424 2.64515H252.964V108.285H269.874V136.785H221.424V2.64515ZM275.418 2.64515H306.958V108.285H323.868V136.785H275.418V2.64515ZM386.222 118.355H362.662L360.192 136.785H328.462L349.932 2.64515H398.762L420.232 136.785H388.502L386.222 118.355ZM382.802 92.5152L374.632 28.1052H374.252L365.892 92.5152H382.802ZM425.841 3.74805H481.877C495.174 3.74805 503.214 8.44857 505.998 17.8496C502.782 16.9837 499.163 16.5508 495.143 16.5508H442.17V62.1025H499.504C502.101 62.1025 504.637 61.7933 507.111 61.1748V76.3896C504.142 75.7093 501.606 75.3691 499.504 75.3691H442.17V124.075H498.761C501.421 124.075 503.771 123.828 505.812 123.333C504.39 127.601 501.916 130.91 498.39 133.26C494.865 135.61 489.917 136.785 483.546 136.785H425.841V3.74805ZM507.111 26.3848C507.111 23.1686 506.74 20.3236 505.998 17.8496C511.626 19.2721 516.048 21.8079 519.264 25.457C522.48 29.1061 524.088 33.8376 524.088 39.6514C524.088 45.0322 522.542 49.64 519.45 53.4746C516.419 57.2474 512.306 59.8141 507.111 61.1748V26.3848ZM505.812 123.333C506.678 120.302 507.111 116.746 507.111 112.664V76.3896C512.677 77.6266 517.1 80.2861 520.378 84.3682C523.717 88.3883 525.387 93.3981 525.387 99.3975C525.387 105.768 523.625 111.056 520.099 115.262C516.574 119.467 511.811 122.158 505.812 123.333Z" fill="#F7F3E8"/>
</svg>
