<svg width="520" height="138" viewBox="0 0 520 138" fill="none" xmlns="http://www.w3.org/2000/svg">
<path d="M28.0635 21.7373C34.9906 7.4502 46.1234 0.306641 61.4619 0.306641C75.2542 0.306641 84.9954 7.26465 90.6855 21.1807C81.7174 17.1605 71.6051 15.1504 60.3486 15.1504C47.9788 15.1504 37.2171 17.346 28.0635 21.7373ZM96.8086 50.0332C96.0046 38.653 93.9635 29.0355 90.6855 21.1807C98.1074 24.335 104.2 28.417 108.962 33.4268C113.724 38.3747 116.569 43.9102 117.497 50.0332H96.8086ZM29.1768 117.294C20.085 113.459 13.0651 107.522 8.11719 99.4814C3.16927 91.3792 0.695312 80.9268 0.695312 68.124C0.695312 56.8057 3.13835 47.2809 8.02441 39.5498C12.9105 31.7568 19.5902 25.8193 28.0635 21.7373C22.7445 32.8083 20.085 48.2705 20.085 68.124C20.085 77.5869 20.7962 86.5859 22.2188 95.1211C23.6413 103.594 25.9606 110.985 29.1768 117.294ZM91.1494 118.129C94.4893 110.46 96.6849 100.811 97.7363 89.1836H119.26C114.93 103.038 105.56 112.686 91.1494 118.129ZM61.2764 137.89C46.7419 137.89 36.042 131.024 29.1768 117.294C37.8356 121.005 48.1644 122.86 60.1631 122.86C71.4814 122.86 81.8102 121.283 91.1494 118.129C84.8408 131.303 74.8831 137.89 61.2764 137.89ZM188.304 66.2203C192.104 67.867 194.764 70.4003 196.284 73.8203C197.931 77.1136 198.754 81.4203 198.754 86.7403V135.57H167.214V87.3103C167.214 84.5236 166.644 82.5603 165.504 81.4203C164.364 80.1536 162.401 79.5203 159.614 79.5203H156.384V135.57H124.844V1.43031H169.114C176.587 1.43031 182.604 2.44364 187.164 4.4703C191.724 6.49697 195.017 9.79031 197.044 14.3503C198.184 16.757 198.944 19.607 199.324 22.9003C199.704 26.067 199.894 31.0703 199.894 37.9103C199.894 44.2436 199.704 48.6136 199.324 51.0203C199.071 53.427 198.501 55.5803 197.614 57.4803C195.967 61.407 192.864 64.3203 188.304 66.2203ZM166.834 51.9703C167.087 51.0836 167.277 49.7536 167.404 47.9803C167.531 46.0803 167.594 43.167 167.594 39.2403C167.594 36.0736 167.531 33.7936 167.404 32.4003C167.277 31.007 167.087 29.867 166.834 28.9803C166.201 27.8403 165.377 27.017 164.364 26.5103C163.477 26.0036 162.211 25.7503 160.564 25.7503H156.384V55.0103H160.564C162.211 55.0103 163.477 54.757 164.364 54.2503C165.377 53.7436 166.201 52.9836 166.834 51.9703ZM208.711 1.43031H265.901V29.3603H240.251V51.7803H265.331V78.9503H240.251V107.83H265.901V135.57H208.711V1.43031ZM326.477 117.14H302.917L300.447 135.57H268.717L290.187 1.43031H339.017L360.487 135.57H328.757L326.477 117.14ZM323.057 91.3003L314.887 26.8903H314.507L306.147 91.3003H323.057ZM376.342 29.1703H361.332V1.43031H422.702V29.1703H407.882V135.57H376.342V29.1703ZM447.225 59.96C441.349 59.3415 437.205 57.5169 434.793 54.4863C432.443 51.3939 431.268 46.6934 431.268 40.3848V2.5332H517.733V16.2637H447.225V59.96ZM447.225 59.96C448.338 60.0837 450.287 60.1455 453.07 60.1455H514.115V73.4121H453.07C451.4 73.4121 449.452 73.5358 447.225 73.7832V59.96ZM431.268 93.5439C431.268 88.1012 432.505 83.679 434.979 80.2773C437.453 76.8757 441.535 74.7109 447.225 73.7832V121.933H519.588V135.57H431.268V93.5439Z" fill="#F7F3E8"/>
</svg>
