<svg width="758" height="103" viewBox="0 0 758 103" fill="none" xmlns="http://www.w3.org/2000/svg">
<path d="M0.36 2.1639H23.6V39.2639H36.2V2.1639H59.44V101.004H36.2V59.7039H23.6V101.004H0.36V2.1639ZM86.1434 17.127C92.0223 6.59961 100.886 1.33594 112.735 1.33594C118.523 1.33594 123.513 2.68034 127.706 5.36914C131.944 8.01237 135.453 11.7949 138.233 16.7168C131.261 13.5267 122.761 11.9316 112.735 11.9316C102.709 11.9316 93.8452 13.6634 86.1434 17.127ZM138.233 87.127C140.649 82.7064 142.426 77.4655 143.565 71.4043C144.75 65.2975 145.343 58.5983 145.343 51.3066C145.343 44.3796 144.75 37.9766 143.565 32.0977C142.426 26.2188 140.649 21.0918 138.233 16.7168C145.115 19.7702 150.401 24.2135 154.093 30.0469C157.784 35.8802 159.63 42.9668 159.63 51.3066C159.63 60.0566 157.784 67.4622 154.093 73.5234C150.401 79.5391 145.115 84.0736 138.233 87.127ZM87.2371 87.127C80.1277 83.9824 74.6134 79.4023 70.6941 73.3867C66.8204 67.3255 64.8836 59.9655 64.8836 51.3066C64.8836 43.2858 66.7293 36.3815 70.4207 30.5938C74.1577 24.7604 79.3986 20.2715 86.1434 17.127C83.8191 21.502 82.0646 26.5833 80.8797 32.3711C79.7404 38.1589 79.1707 44.4707 79.1707 51.3066C79.1707 58.416 79.8543 65.0241 81.2215 71.1309C82.5887 77.2376 84.5939 82.5697 87.2371 87.127ZM112.735 102.713C107.175 102.713 102.253 101.368 97.9695 98.6797C93.6857 95.9453 90.1082 92.0944 87.2371 87.127C94.3465 90.3171 102.846 91.9121 112.735 91.9121C122.761 91.9121 131.261 90.3171 138.233 87.127C135.544 92.14 132.058 95.9909 127.774 98.6797C123.536 101.368 118.523 102.713 112.735 102.713ZM253.732 2.1639L237.072 101.004H213.972L206.272 48.6439L198.572 101.004H175.752L158.812 2.1639H181.352L188.352 56.3439L195.352 2.1639H217.332L224.332 56.9039L231.192 2.1639H253.732ZM274.694 2.1639H297.934V101.004H274.694V2.1639ZM312.899 22.6039H301.839V2.1639H347.059V22.6039H336.139V101.004H312.899V22.6039ZM460.314 2.1639L443.654 101.004H420.554L412.854 48.6439L405.154 101.004H382.334L365.394 2.1639H387.934L394.934 56.3439L401.934 2.1639H423.914L430.914 56.9039L437.774 2.1639H460.314ZM480.725 17.127C486.604 6.59961 495.467 1.33594 507.316 1.33594C513.104 1.33594 518.094 2.68034 522.287 5.36914C526.525 8.01237 530.035 11.7949 532.814 16.7168C525.842 13.5267 517.342 11.9316 507.316 11.9316C497.29 11.9316 488.426 13.6634 480.725 17.127ZM532.814 87.127C535.23 82.7064 537.007 77.4655 538.146 71.4043C539.331 65.2975 539.924 58.5983 539.924 51.3066C539.924 44.3796 539.331 37.9766 538.146 32.0977C537.007 26.2188 535.23 21.0918 532.814 16.7168C539.696 19.7702 544.982 24.2135 548.674 30.0469C552.365 35.8802 554.211 42.9668 554.211 51.3066C554.211 60.0566 552.365 67.4622 548.674 73.5234C544.982 79.5391 539.696 84.0736 532.814 87.127ZM481.818 87.127C474.709 83.9824 469.195 79.4023 465.275 73.3867C461.402 67.3255 459.465 59.9655 459.465 51.3066C459.465 43.2858 461.311 36.3815 465.002 30.5938C468.739 24.7604 473.98 20.2715 480.725 17.127C478.4 21.502 476.646 26.5833 475.461 32.3711C474.322 38.1589 473.752 44.4707 473.752 51.3066C473.752 58.416 474.436 65.0241 475.803 71.1309C477.17 77.2376 479.175 82.5697 481.818 87.127ZM507.316 102.713C501.757 102.713 496.835 101.368 492.551 98.6797C488.267 95.9453 484.689 92.0944 481.818 87.127C488.928 90.3171 497.427 91.9121 507.316 91.9121C517.342 91.9121 525.842 90.3171 532.814 87.127C530.126 92.14 526.639 95.9909 522.355 98.6797C518.117 101.368 513.104 102.713 507.316 102.713ZM607.853 49.9039C610.653 51.1172 612.613 52.9839 613.733 55.5039C614.946 57.9306 615.553 61.1039 615.553 65.0239V101.004H592.313V65.4439C592.313 63.3906 591.893 61.9439 591.053 61.1039C590.213 60.1706 588.766 59.7039 586.713 59.7039H584.333V101.004H561.093V2.1639H593.713C599.219 2.1639 603.653 2.91057 607.013 4.4039C610.373 5.89723 612.799 8.3239 614.293 11.6839C615.133 13.4572 615.693 15.5572 615.973 17.9839C616.253 20.3172 616.393 24.0039 616.393 29.0439C616.393 33.7106 616.253 36.9306 615.973 38.7039C615.786 40.4772 615.366 42.0639 614.713 43.4639C613.499 46.3572 611.213 48.5039 607.853 49.9039ZM592.033 39.4039C592.219 38.7506 592.359 37.7706 592.453 36.4639C592.546 35.0639 592.593 32.9172 592.593 30.0239C592.593 27.6906 592.546 26.0106 592.453 24.9839C592.359 23.9572 592.219 23.1172 592.033 22.4639C591.566 21.6239 590.959 21.0172 590.213 20.6439C589.559 20.2706 588.626 20.0839 587.413 20.0839H584.333V41.6439H587.413C588.626 41.6439 589.559 41.4572 590.213 41.0839C590.959 40.7106 591.566 40.1506 592.033 39.4039ZM625.141 2.97656H637.035V45.5645H646.127C648.725 45.5645 650.593 45.4733 651.732 45.291C651.641 46.2936 651.596 48.0254 651.596 50.4863C651.596 52.2181 651.732 53.9727 652.006 55.75C650.684 55.5677 648.725 55.4766 646.127 55.4766H637.035V101.004H625.141V2.97656ZM651.732 45.291C652.097 41.0072 653.145 37.0879 654.877 33.5332C656.654 29.9329 659.753 25.8314 664.174 21.2285L681.537 2.97656H696.508V3.25L666.566 35.7891C663.695 38.9336 661.12 41.2122 658.842 42.625C656.563 44.0378 654.193 44.9264 651.732 45.291ZM669.232 83.0938C664.037 77.8529 660.049 73.0905 657.27 68.8066C654.535 64.5228 652.781 60.1706 652.006 55.75C654.877 56.069 657.589 56.8893 660.141 58.2109C662.738 59.487 665.404 61.5605 668.139 64.4316L703.002 100.73V101.004H687.143L669.232 83.0938ZM728.339 102.964C721.433 102.964 715.739 101.844 711.259 99.6039C706.873 97.2706 703.746 94.0506 701.879 89.9439C701.319 88.5439 700.853 87.2372 700.479 86.0239C700.199 84.8106 700.013 82.9439 699.919 80.4239C699.826 77.9039 699.779 74.8239 699.779 71.1839H724.279C724.279 74.5439 724.279 76.9239 724.279 78.3239C724.373 79.7239 724.513 80.7039 724.699 81.2639C725.446 82.9439 726.799 83.7839 728.759 83.7839C730.719 83.7839 731.979 83.0372 732.539 81.5439C732.633 81.1706 732.679 80.5172 732.679 79.5839C732.773 78.5572 732.819 76.9706 732.819 74.8239C732.819 72.4906 732.773 70.9039 732.679 70.0639C732.586 69.1306 732.353 68.1972 731.979 67.2639C731.326 65.7706 730.253 64.6039 728.759 63.7639C727.266 62.8306 725.166 61.8039 722.459 60.6839L718.539 58.8639C714.526 56.8106 711.259 54.7572 708.739 52.7039C706.219 50.6506 704.306 48.2239 702.999 45.4239C702.159 43.3706 701.553 41.1306 701.179 38.7039C700.899 36.1839 700.759 32.6839 700.759 28.2039C700.759 24.3772 700.899 21.4372 701.179 19.3839C701.459 17.2372 702.066 15.1839 702.999 13.2239C704.959 9.0239 708.086 5.8039 712.379 3.5639C716.673 1.3239 722.039 0.203902 728.479 0.203902C741.173 0.203902 749.479 4.35723 753.399 12.6639C754.053 14.0639 754.519 15.3706 754.799 16.5839C755.079 17.7972 755.266 19.6639 755.359 22.1839C755.453 24.6106 755.499 27.6906 755.499 31.4239H731.979C731.979 28.0639 731.933 25.6372 731.839 24.1439C731.746 22.6506 731.606 21.6239 731.419 21.0639C730.859 19.7572 729.693 19.1039 727.919 19.1039C726.053 19.1039 724.886 19.8039 724.419 21.2039C724.326 21.5772 724.233 22.1839 724.139 23.0239C724.139 23.7706 724.139 25.0306 724.139 26.8039C724.139 28.7639 724.186 30.2106 724.279 31.1439C724.373 31.9839 724.606 32.8706 724.979 33.8039C725.539 35.0172 726.473 36.0439 727.779 36.8839C729.179 37.6306 731.373 38.6572 734.359 39.9639L737.439 41.2239C742.293 43.4639 746.073 45.6106 748.779 47.6639C751.579 49.7172 753.633 52.2372 754.939 55.2239C755.873 57.4639 756.479 59.7972 756.759 62.2239C757.133 64.6506 757.319 68.2906 757.319 73.1439C757.319 77.5306 757.133 80.8439 756.759 83.0839C756.479 85.3239 755.873 87.5172 754.939 89.6639C752.979 93.9572 749.713 97.2706 745.139 99.6039C740.566 101.844 734.966 102.964 728.339 102.964Z" fill="#F7F3E8"/>
</svg>
