<svg xmlns="http://www.w3.org/2000/svg" width="80" height="80" viewBox="0 0 81 81" fill="none">
  <rect x="24.4583" y="24.4583" width="32.0833" height="32.0833" rx="2.91667" stroke="#F7F3E8" stroke-width="2.91667"/>
  <path d="M37.0667 42.1043C39.3339 41.0609 41.1547 39.2401 42.1981 36.9729C43.2414 39.2401 45.0622 41.0609 47.3295 42.1043C45.0622 43.1477 43.2414 44.9685 42.1981 47.2357C41.1547 44.9685 39.3339 43.1477 37.0667 42.1043Z" stroke="#F7F3E8" stroke-width="1.45833"/>
  <path d="M31.3974 37.1946C32.3507 36.6462 33.1423 35.8546 33.6907 34.9014C34.239 35.8546 35.0307 36.6462 35.9839 37.1946C35.0307 37.743 34.239 38.5346 33.6907 39.4878C33.1423 38.5346 32.3507 37.743 31.3974 37.1946Z" fill="#F7F3E8" stroke="#F7F3E8" stroke-width="0.943895"/>
  <mask id="path-5-inside-1_6201_91848" fill="white">
    <path d="M38.6539 30.2891C38.9455 31.077 39.5668 31.6983 40.3547 31.9899C39.5668 32.2814 38.9455 32.9027 38.6539 33.6907C38.3624 32.9027 37.7411 32.2814 36.9531 31.9899C37.7411 31.6983 38.3624 31.077 38.6539 30.2891Z"/>
  </mask>
  <path d="M37.641 33.8489C38.9715 33.3565 40.0206 32.3075 40.5129 30.977L36.7949 29.6012C36.7041 29.8466 36.5106 30.0401 36.2652 30.1309L37.641 33.8489ZM40.5129 33.0028C40.0206 31.6723 38.9715 30.6232 37.641 30.1309L36.2652 33.8489C36.5106 33.9397 36.7041 34.1331 36.7949 34.3786L40.5129 33.0028ZM39.6668 30.1309C38.3363 30.6232 37.2873 31.6723 36.7949 33.0028L40.5129 34.3786C40.6037 34.1331 40.7972 33.9397 41.0426 33.8489L39.6668 30.1309ZM36.7949 30.977C37.2873 32.3075 38.3363 33.3565 39.6668 33.8489L41.0426 30.1309C40.7972 30.0401 40.6037 29.8466 40.5129 29.6012L36.7949 30.977Z" fill="#F7F3E8" mask="url(#path-5-inside-1_6201_91848)"/>
</svg>