<svg xmlns="http://www.w3.org/2000/svg" width="101" height="64" viewBox="0 0 103 66" fill="none">
  <path d="M92.1293 30.8608L76.8566 30.9138C75.2906 30.9192 74.0225 32.1874 74.0172 33.7534C74.0117 35.3347 75.295 36.618 76.8763 36.6125L92.1034 36.5597C92.2454 36.5593 92.3169 36.7309 92.2164 36.8314L85.2244 43.8236C84.1153 44.9326 84.1153 46.7308 85.2244 47.8399C86.3334 48.9489 88.1315 48.9489 89.2406 47.8399L101.624 35.4563C102.61 34.4705 102.61 32.8721 101.624 31.8863L89.3661 19.6282C88.2494 18.5114 86.4388 18.5114 85.322 19.6282C84.2053 20.745 84.2053 22.5556 85.322 23.6724L92.2405 30.591C92.3399 30.6904 92.2698 30.8604 92.1293 30.8608Z" fill="white"/>
  <path d="M11.1402 36.5323L26.4129 36.4793C27.9788 36.4739 29.2469 35.2058 29.2523 33.6398C29.2578 32.0584 27.9745 30.7751 26.3931 30.7806L11.1661 30.8334C11.0241 30.8339 10.9526 30.6622 11.053 30.5618L18.0451 23.5696C19.1541 22.4605 19.1541 20.6623 18.0451 19.5533C16.936 18.4442 15.1379 18.4442 14.0289 19.5533L1.64561 31.9368C0.659797 32.9227 0.659796 34.521 1.64561 35.5069L13.9034 47.7649C15.0201 48.8817 16.8307 48.8817 17.9475 47.7649C19.0642 46.6482 19.0642 44.8375 17.9475 43.7207L11.029 36.8021C10.9296 36.7027 10.9996 36.5328 11.1402 36.5323Z" fill="white"/>
  <path d="M34.8761 25.96H68.487V28.761H34.8761V25.96Z" fill="white"/>
  <path d="M48.768 14.7566C48.768 13.2098 50.022 11.9557 51.5689 11.9557C53.1158 11.9557 54.3698 13.2097 54.3698 14.7566V20.3587C54.3698 21.9056 53.1158 23.1596 51.5689 23.1596C50.022 23.1596 48.768 21.9056 48.768 20.3587V14.7566Z" fill="white"/>
  <path fill-rule="evenodd" clip-rule="evenodd" d="M32.0752 20.3447C32.0752 9.51634 40.8532 0.738281 51.6815 0.738281C62.5099 0.738281 71.2879 9.51636 71.2879 20.3447V45.5543C71.2879 56.3826 62.5099 65.1606 51.6815 65.1606C40.8532 65.1606 32.0752 56.3826 32.0752 45.5543V20.3447ZM51.6815 6.34016C43.9471 6.34016 37.677 12.6102 37.677 20.3447V45.5543C37.677 53.2887 43.9471 59.5588 51.6815 59.5588C59.416 59.5588 65.6861 53.2887 65.6861 45.5543V20.3447C65.6861 12.6102 59.416 6.34016 51.6815 6.34016Z" fill="white"/>
</svg>