<svg xmlns="http://www.w3.org/2000/svg" width="80" height="80" viewBox="0 0 62 61" fill="none">
  <path d="M38.7231 20.8899C38.7231 22.4137 37.4879 23.6489 35.9641 23.6489C34.4404 23.6489 33.2052 22.4137 33.2052 20.8899C33.2052 19.3662 34.4404 18.1309 35.9641 18.1309C37.4879 18.1309 38.7231 19.3662 38.7231 20.8899Z" stroke="#F7F3E8" stroke-width="2.20719"/>
  <path d="M38.7266 19.7852L38.7266 21.9924L44.2445 21.9924C44.2445 20.7734 43.2563 19.7852 42.0373 19.7852L38.7266 19.7852Z" fill="#F7F3E8"/>
  <path d="M17.7578 19.7852L17.7578 21.9924L33.2081 21.9924L33.2081 19.7852L17.7578 19.7852Z" fill="#F7F3E8"/>
  <path d="M28.7934 30.2728C28.7934 31.7965 27.5582 33.0318 26.0344 33.0318C24.5107 33.0318 23.2755 31.7965 23.2755 30.2728C23.2755 28.749 24.5107 27.5138 26.0344 27.5138C27.5582 27.5138 28.7934 28.749 28.7934 30.2728Z" stroke="#F7F3E8" stroke-width="2.20719"/>
  <path d="M28.7969 29.168L28.7969 31.3752L44.2471 31.3752C44.2471 30.1562 43.2589 29.168 42.0399 29.168L28.7969 29.168Z" fill="#F7F3E8"/>
  <path d="M17.7578 29.168L17.7578 31.3752L23.2758 31.3752L23.2758 29.168L17.7578 29.168Z" fill="#F7F3E8"/>
  <path d="M36.52 39.6517C36.52 41.1754 35.2847 42.4107 33.761 42.4107C32.2373 42.4107 31.002 41.1754 31.002 39.6517C31.002 38.1279 32.2373 36.8927 33.761 36.8927C35.2847 36.8927 36.52 38.1279 36.52 39.6517Z" stroke="#F7F3E8" stroke-width="2.20719"/>
  <path d="M17.7578 38.5469L17.7578 40.7541L31.301 40.7541L31.301 38.5469L17.7578 38.5469Z" fill="#F7F3E8"/>
  <path d="M37.0312 38.5469L37.0313 40.7541L44.242 40.7541C44.242 39.5351 43.2538 38.5469 42.0348 38.5469L37.0312 38.5469Z" fill="#F7F3E8"/>
</svg>