<svg width="24" height="24" viewBox="0 0 24 24" fill="none" xmlns="http://www.w3.org/2000/svg">
<g opacity="0.5">
<path d="M23.0585 12C23.0585 18.1075 18.1075 23.0586 12 23.0586C5.89254 23.0586 0.941458 18.1075 0.941458 12C0.941458 5.89254 5.89254 0.941458 12 0.941458C18.1075 0.941458 23.0585 5.89254 23.0585 12Z" stroke="#182328" stroke-width="1.88292"/>
<path d="M8.52344 8.67188L10.9609 14.3899C10.1238 14.7802 9.12985 14.3996 8.76765 13.5499L6.99254 9.38574L8.52344 8.67188Z" fill="#182328"/>
<path d="M12.8125 14.5488C12.6754 15.227 12.6666 15.6071 12.8125 16.2853C12.1764 16.1121 11.7963 16.1125 11.0761 16.2853C11.2128 15.6071 11.2248 15.227 11.0761 14.5488C11.7591 14.7237 12.155 14.736 12.8125 14.5488Z" fill="#182328"/>
<path d="M15.375 8.67188L16.9484 9.40556L15.1954 13.5284C14.8241 14.4017 13.8028 14.7934 12.9427 14.3923L15.375 8.67188Z" fill="#182328"/>
</g>
</svg>
