<svg width="21" height="16" viewBox="0 0 21 16" fill="none" xmlns="http://www.w3.org/2000/svg">
<path d="M7.32437 15.5021C7.15298 15.5015 6.98353 15.4657 6.82655 15.3969C6.66957 15.3281 6.52842 15.2278 6.41187 15.1021L0.336875 8.63959C0.109783 8.39758 -0.011869 8.07527 -0.00132011 7.74356C0.00922881 7.41186 0.151115 7.09793 0.393125 6.87084C0.635135 6.64374 0.957445 6.52209 1.28915 6.53264C1.62085 6.54319 1.93478 6.68508 2.16187 6.92709L7.31188 12.4146L17.8244 0.914585C17.9311 0.781738 18.0638 0.672104 18.2144 0.592415C18.365 0.512725 18.5303 0.464665 18.7001 0.451184C18.87 0.437704 19.0408 0.459088 19.202 0.514024C19.3633 0.56896 19.5117 0.656287 19.638 0.770643C19.7643 0.884998 19.8659 1.02397 19.9365 1.17901C20.0072 1.33406 20.0453 1.50191 20.0488 1.67226C20.0522 1.84261 20.0207 2.01185 19.9563 2.1696C19.892 2.32735 19.796 2.47027 19.6744 2.58959L8.24938 15.0896C8.13393 15.2175 7.99327 15.3202 7.83624 15.3912C7.67921 15.4622 7.50919 15.4999 7.33687 15.5021H7.32437Z" fill="#231F20"/>
</svg>
