<svg xmlns="http://www.w3.org/2000/svg" width="37" height="33" viewBox="0 0 37 33" fill="none">
  <path d="M26.5176 20.75V17.75C26.5176 16.6454 25.6222 15.75 24.5176 15.75C24.1164 15.75 23.7428 15.8681 23.4297 16.0715" stroke="#F7F3E8" stroke-width="2" stroke-linecap="round" stroke-linejoin="round"/>
  <path d="M26.4486 17.0611C26.7584 16.8641 27.126 16.75 27.5203 16.75C28.6249 16.75 29.5203 17.6454 29.5203 18.75V25.2693C29.5203 25.2693 29.5196 21.6601 29.5196 25.25C29.5196 28.8399 26.6094 31.75 23.0196 31.75C19.4297 31.75 17.319 30.5 15.959 28.444L10.8308 19.7931C10.2785 18.8365 10.6062 17.6133 11.5628 17.0611C12.5194 16.5088 13.7426 16.8365 14.2949 17.7931L16.5199 21.7479M16.5199 21.7479V21.75L16.5209 21.7495L16.5199 21.7479ZM16.5199 21.7479V9.75C16.5199 8.64543 17.4154 7.75 18.5199 7.75C19.6245 7.75 20.5199 8.64543 20.5199 9.75V18.7502" stroke="#F7F3E8" stroke-width="2" stroke-linecap="round" stroke-linejoin="round"/>
  <path d="M23.5234 19.75V16.75C23.5234 15.6454 22.628 14.75 21.5234 14.75C21.1592 14.75 20.8176 14.8474 20.5234 15.0176" stroke="#F7F3E8" stroke-width="2" stroke-linecap="round" stroke-linejoin="round"/>
  <path d="M25.7304 12.5726C26.2374 11.5157 26.5215 10.3316 26.5215 9.08105C26.5215 4.61801 22.9035 1 18.4404 1C13.9774 1 10.3594 4.61801 10.3594 9.08105C10.3594 10.3316 10.6434 11.5157 11.1505 12.5726" stroke="#F7F3E8" stroke-width="2" stroke-linecap="round" stroke-linejoin="round"/>
  <path d="M32.9338 6.50444L26.4708 6.52684L26.4638 8.56145L32.9246 8.53905C32.9753 8.53887 33.0008 8.60017 32.965 8.63602L30.4686 11.1324C30.0726 11.5283 30.0726 12.1703 30.4686 12.5663C30.8646 12.9622 31.5065 12.9622 31.9025 12.5663L36.3237 8.1451C36.6756 7.79313 36.6756 7.22249 36.3237 6.87053L31.9473 2.49418C31.5486 2.09547 30.9022 2.09547 30.5035 2.49418C30.1047 2.89288 30.1047 3.53932 30.5035 3.93802L32.9735 6.40811C33.009 6.44359 32.984 6.50426 32.9338 6.50444Z" fill="#F7F3E8"/>
  <path d="M4.0271 8.53072L10.4901 8.50831L10.4971 6.47371L4.03635 6.49611C3.98565 6.49628 3.96013 6.43499 3.99599 6.39914L6.49234 3.90279C6.88829 3.50683 6.88829 2.86486 6.49234 2.4689C6.09638 2.07294 5.4544 2.07294 5.05845 2.4689L0.637284 6.89006C0.285322 7.24202 0.285322 7.81267 0.637285 8.16463L5.01364 12.541C5.41234 12.9397 6.05878 12.9397 6.45748 12.541C6.85619 12.1423 6.85619 11.4958 6.45748 11.0971L3.9874 8.62705C3.95192 8.59157 3.97693 8.53089 4.0271 8.53072Z" fill="#F7F3E8"/>
</svg>