<svg width="362" height="140" viewBox="0 0 362 140" fill="none" xmlns="http://www.w3.org/2000/svg">
<path d="M0.56 2.75843H52.24V30.4984H32.1V53.1084H51.86V80.4684H32.1V136.898H0.56V2.75843ZM112.388 118.468H88.8284L86.3584 136.898H54.6284L76.0984 2.75843H124.928L146.398 136.898H114.668L112.388 118.468ZM108.968 92.6284L100.798 28.2184H100.418L92.0584 92.6284H108.968ZM174.225 23.0654C182.204 8.77832 194.233 1.63477 210.314 1.63477C218.169 1.63477 224.941 3.45931 230.631 7.1084C236.383 10.6956 241.146 15.8291 244.919 22.5088C235.456 18.1794 223.921 16.0146 210.314 16.0146C196.707 16.0146 184.678 18.3649 174.225 23.0654ZM245.104 118.065C251.413 106.438 254.567 90.2334 254.567 69.4521C254.567 60.0511 253.763 51.3613 252.155 43.3828C250.609 35.4043 248.197 28.4463 244.919 22.5088C254.258 26.6527 261.432 32.6829 266.442 40.5996C271.452 48.5163 273.957 58.1338 273.957 69.4521C273.957 81.2653 271.452 91.2539 266.442 99.418C261.494 107.582 254.381 113.798 245.104 118.065ZM175.71 118.065C166.061 113.798 158.577 107.582 153.258 99.418C148.001 91.1921 145.373 81.2035 145.373 69.4521C145.373 58.5667 147.878 49.1966 152.887 41.3418C157.959 33.4251 165.072 27.333 174.225 23.0654C171.071 29.0029 168.69 35.8991 167.082 43.7539C165.535 51.6087 164.762 60.1748 164.762 69.4521C164.762 79.1006 165.69 88.0687 167.546 96.3564C169.401 104.644 172.122 111.881 175.71 118.065ZM210.314 139.218C202.768 139.218 196.089 137.393 190.275 133.744C184.461 130.033 179.606 124.807 175.71 118.065C185.358 122.395 196.893 124.56 210.314 124.56C223.859 124.56 235.456 122.395 245.104 118.065C237.559 132.167 225.962 139.218 210.314 139.218ZM279.059 139.218C270.957 139.403 263.813 137.857 257.629 134.579C251.444 131.239 247.331 125.797 245.29 118.251C252.526 121.405 261.123 122.982 271.081 122.982C272.936 122.982 275.596 122.859 279.059 122.611V139.218ZM322.122 139.558C312.748 139.558 305.022 138.038 298.942 134.998C292.988 131.832 288.745 127.462 286.212 121.888C285.452 119.988 284.818 118.215 284.312 116.568C283.932 114.922 283.678 112.388 283.552 108.968C283.425 105.548 283.362 101.368 283.362 96.4284H316.612C316.612 100.988 316.612 104.218 316.612 106.118C316.738 108.018 316.928 109.348 317.182 110.108C318.195 112.388 320.032 113.528 322.692 113.528C325.352 113.528 327.062 112.515 327.822 110.488C327.948 109.982 328.012 109.095 328.012 107.828C328.138 106.435 328.202 104.282 328.202 101.368C328.202 98.2018 328.138 96.0484 328.012 94.9084C327.885 93.6418 327.568 92.3751 327.062 91.1084C326.175 89.0818 324.718 87.4984 322.692 86.3584C320.665 85.0918 317.815 83.6984 314.142 82.1784L308.822 79.7084C303.375 76.9218 298.942 74.1351 295.522 71.3484C292.102 68.5618 289.505 65.2684 287.732 61.4684C286.592 58.6818 285.768 55.6418 285.262 52.3484C284.882 48.9284 284.692 44.1784 284.692 38.0984C284.692 32.9051 284.882 28.9151 285.262 26.1284C285.642 23.2151 286.465 20.4284 287.732 17.7684C290.392 12.0684 294.635 7.69843 300.462 4.65843C306.288 1.61843 313.572 0.0984321 322.312 0.0984321C339.538 0.0984321 350.812 5.7351 356.132 17.0084C357.018 18.9084 357.652 20.6818 358.032 22.3284C358.412 23.9751 358.665 26.5084 358.792 29.9284C358.918 33.2218 358.982 37.4018 358.982 42.4684H327.062C327.062 37.9084 326.998 34.6151 326.872 32.5884C326.745 30.5618 326.555 29.1684 326.302 28.4084C325.542 26.6351 323.958 25.7484 321.552 25.7484C319.018 25.7484 317.435 26.6984 316.802 28.5984C316.675 29.1051 316.548 29.9284 316.422 31.0684C316.422 32.0818 316.422 33.7918 316.422 36.1984C316.422 38.8584 316.485 40.8218 316.612 42.0884C316.738 43.2284 317.055 44.4318 317.562 45.6984C318.322 47.3451 319.588 48.7384 321.362 49.8784C323.262 50.8918 326.238 52.2851 330.292 54.0584L334.472 55.7684C341.058 58.8084 346.188 61.7218 349.862 64.5084C353.662 67.2951 356.448 70.7151 358.222 74.7684C359.488 77.8084 360.312 80.9751 360.692 84.2684C361.198 87.5618 361.452 92.5018 361.452 99.0884C361.452 105.042 361.198 109.538 360.692 112.578C360.312 115.618 359.488 118.595 358.222 121.508C355.562 127.335 351.128 131.832 344.922 134.998C338.715 138.038 331.115 139.558 322.122 139.558Z" fill="#F7F3E8"/>
</svg>
