<svg width="767" height="291" viewBox="0 0 767 291" fill="none" xmlns="http://www.w3.org/2000/svg">
<path d="M5.56 1.85999H37.1V107.5H54.01V136H5.56V1.85999ZM59.5541 1.85999H91.0941V136H59.5541V1.85999ZM113.872 60.3896C102.863 59.3382 97.3582 53.71 97.3582 43.5049V2.96289H183.452V16.5078H113.872V60.3896ZM113.872 60.3896C114.738 60.5133 116.068 60.5752 117.861 60.5752H180.019V74.0273H117.861C116.068 74.0273 114.738 74.0892 113.872 74.2129V60.3896ZM97.3582 91.7471C97.3582 86.1188 98.657 81.9131 101.255 79.1299C103.852 76.3467 108.058 74.7077 113.872 74.2129V136H97.3582V91.7471ZM189.964 1.85999H247.154V29.79H221.504V52.21H246.584V79.38H221.504V108.26H247.154V136H189.964V1.85999ZM286.441 1.85999H324.251L340.021 66.46L355.791 1.85999H393.601V136H363.581V66.65L348.381 136H331.661L316.461 66.65V136H286.441V1.85999ZM455.789 117.57H432.229L429.759 136H398.029L419.499 1.85999H468.329L489.799 136H458.069L455.789 117.57ZM452.369 91.73L444.199 27.32H443.819L435.459 91.73H452.369ZM497.308 2.96289H513.451V60.7607H525.79C529.315 60.7607 531.851 60.637 533.397 60.3896C533.273 61.7503 533.212 64.1006 533.212 67.4404C533.212 69.7907 533.397 72.1719 533.768 74.584C531.975 74.3366 529.315 74.2129 525.79 74.2129H513.451V136H497.308V2.96289ZM533.397 60.3896C533.892 54.5758 535.314 49.2568 537.665 44.4326C540.077 39.5465 544.282 33.9801 550.282 27.7334L573.846 2.96289H594.164V3.33398L553.529 47.4941C549.632 51.7617 546.138 54.8542 543.046 56.7715C539.953 58.6888 536.737 59.8949 533.397 60.3896ZM557.147 111.693C550.096 104.581 544.684 98.1175 540.912 92.3037C537.201 86.4899 534.82 80.5833 533.768 74.584C537.665 75.0169 541.345 76.1302 544.808 77.9238C548.334 79.6556 551.952 82.4697 555.663 86.3662L602.977 135.629V136H581.454L557.147 111.693ZM603.733 1.85999H660.923V29.79H635.273V52.21H660.353V79.38H635.273V108.26H660.923V136H603.733V1.85999ZM688.054 18.7344C689.971 13.3535 693.404 9.02409 698.352 5.74609C703.362 2.40625 709.608 0.736328 717.092 0.736328C731.627 0.736328 741.09 6.67383 745.481 18.5488C737.069 15.5182 727.421 14.0029 716.536 14.0029C704.97 14.0029 695.476 15.5801 688.054 18.7344ZM747.707 43.1338C747.955 39.7939 748.078 37.4437 748.078 36.083C748.078 29.4033 747.213 23.5586 745.481 18.5488C751.789 20.8991 756.768 24.1771 760.417 28.3828C764.066 32.5267 765.984 37.4437 766.169 43.1338H747.707ZM750.398 119.486C751.511 116.394 752.068 113.023 752.068 109.374C752.068 103.746 751.109 99.0143 749.192 95.1797C747.336 91.3451 744.553 88.098 740.842 85.4385C737.193 82.779 732.4 80.305 726.462 78.0166L700.764 68.1826C691.549 64.5954 684.498 60.637 679.612 56.3076C674.726 51.9782 672.283 46.6901 672.283 40.4434C672.283 35.3717 673.643 31.0114 676.365 27.3623C679.086 23.7132 682.982 20.8372 688.054 18.7344C687.064 21.5794 686.57 24.5173 686.57 27.5479C686.57 32.3721 687.436 36.3923 689.167 39.6084C690.961 42.7627 693.651 45.484 697.239 47.7725C700.888 50.0609 705.867 52.4421 712.175 54.916L737.873 64.9355C746.965 68.5846 753.985 72.945 758.933 78.0166C763.881 83.0264 766.355 88.9948 766.355 95.9219C766.355 101.179 764.994 105.818 762.273 109.838C759.613 113.796 755.655 117.012 750.398 119.486ZM690.373 120.414C676.086 115.342 668.85 105.849 668.664 91.9326H687.126C686.879 93.8499 686.755 96.6331 686.755 100.282C686.755 108.446 687.961 115.157 690.373 120.414ZM720.339 138.319C713.165 138.319 707.042 136.804 701.97 133.773C696.898 130.681 693.033 126.228 690.373 120.414C698.661 123.321 709.052 124.774 721.545 124.774C733.358 124.774 742.976 123.012 750.398 119.486C748.419 125.176 744.862 129.753 739.729 133.217C734.595 136.618 728.132 138.319 720.339 138.319ZM58.57 269.57H35.01L32.54 288H0.81L22.28 153.86H71.11L92.58 288H60.85L58.57 269.57ZM55.15 243.73L46.98 179.32H46.6L38.24 243.73H55.15ZM97.4057 153.86H125.526L152.506 215.8V153.86H183.096V288H155.546L127.806 224.73V288H97.4057V153.86ZM216.156 153.86H247.696V288H216.156V153.86ZM256.605 153.86H294.415L310.185 218.46L325.955 153.86H363.765V288H333.745V218.65L318.545 288H301.825L286.625 218.65V288H256.605V153.86ZM372.198 154.963H419.512C434.356 154.963 444.808 160.035 450.87 170.178C445.922 169.064 440.324 168.508 434.078 168.508H388.897V224.914H434.078C440.943 224.914 446.788 224.234 451.612 222.873C446.293 233.758 435.964 239.201 420.625 239.201H388.897V288H372.198V154.963ZM451.612 222.873C454.89 216.317 456.529 207.504 456.529 196.433C456.529 185.609 454.642 176.857 450.87 170.178C465.28 173.827 472.486 182.578 472.486 196.433C472.486 203.916 470.568 209.761 466.734 213.967C462.899 218.173 457.858 221.141 451.612 222.873ZM522.459 269.57H498.899L496.429 288H464.699L486.169 153.86H534.999L556.469 288H524.739L522.459 269.57ZM519.039 243.73L510.869 179.32H510.489L502.129 243.73H519.039ZM582.812 174.167C589.739 159.88 600.872 152.736 616.21 152.736C630.003 152.736 639.744 159.694 645.434 173.61C636.466 169.59 626.354 167.58 615.097 167.58C602.727 167.58 591.966 169.776 582.812 174.167ZM651.557 202.463C650.753 191.083 648.712 181.465 645.434 173.61C652.856 176.765 658.948 180.847 663.71 185.856C668.473 190.804 671.318 196.34 672.245 202.463H651.557ZM583.925 269.724C574.833 265.889 567.814 259.951 562.866 251.911C557.918 243.809 555.444 233.356 555.444 220.554C555.444 209.235 557.887 199.711 562.773 191.979C567.659 184.187 574.339 178.249 582.812 174.167C577.493 185.238 574.833 200.7 574.833 220.554C574.833 230.017 575.545 239.016 576.967 247.551C578.39 256.024 580.709 263.415 583.925 269.724ZM645.898 270.559C649.238 262.889 651.433 253.241 652.485 241.613H674.008C669.679 255.467 660.309 265.116 645.898 270.559ZM616.025 290.319C601.49 290.319 590.79 283.454 583.925 269.724C592.584 273.435 602.913 275.29 614.911 275.29C626.23 275.29 636.559 273.713 645.898 270.559C639.589 283.732 629.632 290.319 616.025 290.319ZM689.092 181.6H674.082V153.86H735.452V181.6H720.632V288H689.092V181.6Z" fill="#F7F3E8"/>
</svg>
