<svg width="1790" height="140" viewBox="0 0 1790 140" fill="none" xmlns="http://www.w3.org/2000/svg">
<path d="M14.96 30.4398H-0.0499999V2.69984H61.32V30.4398H46.5V136.84H14.96V30.4398ZM90.0145 60.6729C84.881 59.807 80.8608 57.6732 77.9539 54.2715C75.1089 50.8698 73.6863 46.4785 73.6863 41.0977V3.80273H90.0145V60.6729ZM160.151 3.80273H176.479V41.0977C176.479 46.4785 175.026 50.8698 172.119 54.2715C169.212 57.6732 165.223 59.807 160.151 60.6729V3.80273ZM90.0145 60.6729C91.9936 60.9202 93.6945 61.0439 95.117 61.0439H154.956C156.069 61.0439 157.801 60.9202 160.151 60.6729V74.6816C157.801 74.4342 156.069 74.3105 154.956 74.3105H95.117C93.6945 74.3105 91.9936 74.4342 90.0145 74.6816V60.6729ZM73.6863 93.7002C73.6863 88.5049 75.1089 84.2682 77.9539 80.9902C80.8608 77.6504 84.881 75.5475 90.0145 74.6816V136.84H73.6863V93.7002ZM160.151 74.6816C165.223 75.5475 169.212 77.6504 172.119 80.9902C175.026 84.2682 176.479 88.443 176.479 93.5146V136.84H160.151V74.6816ZM188.654 2.69984H245.844V30.6298H220.194V53.0498H245.274V80.2198H220.194V109.1H245.844V136.84H188.654V2.69984ZM277.531 2.69984H321.611C329.084 2.69984 335.101 3.77651 339.661 5.92984C344.221 8.08317 347.514 11.5032 349.541 16.1898C350.681 18.8498 351.441 21.8898 351.821 25.3098C352.201 28.7298 352.391 34.3032 352.391 42.0298C352.391 49.3765 352.201 54.7598 351.821 58.1798C351.441 61.4732 350.681 64.3865 349.541 66.9198C347.514 71.6065 344.221 75.0898 339.661 77.3698C335.101 79.6498 329.084 80.7898 321.611 80.7898H309.071V136.84H277.531V2.69984ZM312.491 56.8498C314.264 56.8498 315.721 56.6598 316.861 56.2798C318.001 55.7732 318.824 54.9498 319.331 53.8098C319.711 53.0498 319.964 51.8465 320.091 50.1998C320.218 48.4265 320.281 45.7032 320.281 42.0298C320.281 38.3565 320.218 35.6965 320.091 34.0498C319.964 32.2765 319.711 31.0098 319.331 30.2498C318.824 29.1098 318.001 28.3498 316.861 27.9698C315.721 27.4632 314.264 27.2098 312.491 27.2098H309.071V56.8498H312.491ZM358.244 2.69984H415.434V30.6298H389.784V53.0498H414.864V80.2198H389.784V109.1H415.434V136.84H358.244V2.69984ZM426.055 3.80273H481.719C488.46 3.80273 493.748 5.03971 497.583 7.51367C501.479 9.92578 504.17 13.513 505.654 18.2754C501.325 17.0384 496.253 16.4199 490.439 16.4199H442.383V66.7031H498.604C501.263 66.7031 504.046 66.3939 506.953 65.7754V80.9902C504.294 80.3717 501.51 80.0625 498.604 80.0625H442.383V136.84H426.055V3.80273ZM506.953 29.501C506.953 25.0479 506.52 21.306 505.654 18.2754C511.715 19.9453 516.385 22.7904 519.663 26.8105C523.003 30.7689 524.673 35.9023 524.673 42.2109C524.673 48.334 523.096 53.4365 519.941 57.5186C516.849 61.5387 512.52 64.291 506.953 65.7754V29.501ZM506.953 80.9902C512.458 82.2891 516.694 84.9486 519.663 88.9688C522.632 92.9271 524.116 98.2461 524.116 104.926V136.654H506.953V80.9902ZM534.432 2.69984H586.112V30.4398H565.972V53.0498H585.732V80.4098H565.972V136.84H534.432V2.69984ZM593.25 2.69984H650.44V30.6298H624.79V53.0498H649.87V80.2198H624.79V109.1H650.44V136.84H593.25V2.69984ZM699.046 139.31C689.799 139.31 681.946 137.473 675.486 133.8C669.026 130 664.149 124.363 660.856 116.89C659.589 113.977 658.639 110.873 658.006 107.58C657.373 104.16 656.929 99.5998 656.676 93.8998C656.423 88.1998 656.296 80.1565 656.296 69.7698C656.296 59.3832 656.423 51.3398 656.676 45.6398C656.929 39.9398 657.373 35.4432 658.006 32.1498C658.639 28.7298 659.589 25.5632 660.856 22.6498C667.696 7.70317 680.426 0.229836 699.046 0.229836C710.826 0.229836 720.199 3.45984 727.166 9.91984C731.726 13.9732 734.893 18.9132 736.666 24.7398C738.439 30.4398 739.326 38.1032 739.326 47.7298H706.836C706.836 43.2965 706.709 39.9398 706.456 37.6598C706.329 35.3798 706.076 33.7965 705.696 32.9098C705.316 31.8965 704.746 31.0732 703.986 30.4398C703.226 29.6798 702.403 29.1732 701.516 28.9198C700.629 28.5398 699.489 28.3498 698.096 28.3498C696.196 28.3498 694.549 28.7932 693.156 29.6798C691.889 30.5665 690.939 31.8332 690.306 33.4798C689.926 34.6198 689.609 36.0132 689.356 37.6598C689.103 39.3065 688.913 42.8532 688.786 48.2998C688.786 53.7465 688.786 60.9032 688.786 69.7698C688.786 78.5098 688.786 85.6032 688.786 91.0498C688.913 96.4965 689.039 100.107 689.166 101.88C689.419 103.653 689.736 105.047 690.116 106.06C691.763 109.48 694.486 111.19 698.286 111.19C700.693 111.19 702.719 110.493 704.366 109.1C704.999 108.467 705.443 107.77 705.696 107.01C706.076 106.123 706.393 104.477 706.646 102.07C706.899 99.5365 707.026 96.3698 707.026 92.5698H739.706C739.579 101.183 738.566 108.593 736.666 114.8C734.766 120.88 731.789 125.82 727.736 129.62C720.643 136.08 711.079 139.31 699.046 139.31ZM756.613 30.4398H741.603V2.69984H802.973V30.4398H788.153V136.84H756.613V30.4398ZM843.261 3.80273H890.575C905.419 3.80273 915.871 8.87435 921.932 19.0176C916.985 17.9043 911.387 17.3477 905.14 17.3477H859.96V73.7539H905.14C912.006 73.7539 917.85 73.0736 922.675 71.7129C917.356 82.5983 907.027 88.041 891.688 88.041H859.96V136.84H843.261V3.80273ZM922.675 71.7129C925.953 65.1569 927.592 56.3434 927.592 45.2725C927.592 34.4489 925.705 25.6973 921.932 19.0176C936.343 22.6667 943.549 31.4183 943.549 45.2725C943.549 52.7562 941.631 58.6009 937.797 62.8066C933.962 67.0124 928.921 69.9811 922.675 71.7129ZM997.322 118.41H973.762L971.292 136.84H939.562L961.032 2.69984H1009.86L1031.33 136.84H999.602L997.322 118.41ZM993.902 92.5698L985.732 28.1598H985.352L976.992 92.5698H993.902ZM1035.79 2.69984H1067.33V136.84H1035.79V2.69984ZM1079.29 3.80273H1134.96C1141.7 3.80273 1146.98 5.03971 1150.82 7.51367C1154.72 9.92578 1157.41 13.513 1158.89 18.2754C1154.56 17.0384 1149.49 16.4199 1143.68 16.4199H1095.62V66.7031H1151.84C1154.5 66.7031 1157.28 66.3939 1160.19 65.7754V80.9902C1157.53 80.3717 1154.75 80.0625 1151.84 80.0625H1095.62V136.84H1079.29V3.80273ZM1160.19 29.501C1160.19 25.0479 1159.76 21.306 1158.89 18.2754C1164.95 19.9453 1169.62 22.7904 1172.9 26.8105C1176.24 30.7689 1177.91 35.9023 1177.91 42.2109C1177.91 48.334 1176.33 53.4365 1173.18 57.5186C1170.09 61.5387 1165.76 64.291 1160.19 65.7754V29.501ZM1160.19 80.9902C1165.69 82.2891 1169.93 84.9486 1172.9 88.9688C1175.87 92.9271 1177.35 98.2461 1177.35 104.926V136.654H1160.19V80.9902ZM1250.37 30.4398H1235.36V2.69984H1296.73V30.4398H1281.91V136.84H1250.37V30.4398ZM1325.42 60.6729C1320.29 59.807 1316.27 57.6732 1313.36 54.2715C1310.52 50.8698 1309.09 46.4785 1309.09 41.0977V3.80273H1325.42V60.6729ZM1395.56 3.80273H1411.89V41.0977C1411.89 46.4785 1410.43 50.8698 1407.53 54.2715C1404.62 57.6732 1400.63 59.807 1395.56 60.6729V3.80273ZM1325.42 60.6729C1327.4 60.9202 1329.1 61.0439 1330.53 61.0439H1390.36C1391.48 61.0439 1393.21 60.9202 1395.56 60.6729V74.6816C1393.21 74.4342 1391.48 74.3105 1390.36 74.3105H1330.53C1329.1 74.3105 1327.4 74.4342 1325.42 74.6816V60.6729ZM1309.09 93.7002C1309.09 88.5049 1310.52 84.2682 1313.36 80.9902C1316.27 77.6504 1320.29 75.5475 1325.42 74.6816V136.84H1309.09V93.7002ZM1395.56 74.6816C1400.63 75.5475 1404.62 77.6504 1407.53 80.9902C1410.43 84.2682 1411.89 88.443 1411.89 93.5146V136.84H1395.56V74.6816ZM1424.06 2.69984H1481.25V30.6298H1455.6V53.0498H1480.68V80.2198H1455.6V109.1H1481.25V136.84H1424.06V2.69984ZM1512.94 2.69984H1557.02C1564.49 2.69984 1570.51 3.77651 1575.07 5.92984C1579.63 8.08317 1582.92 11.5032 1584.95 16.1898C1586.09 18.8498 1586.85 21.8898 1587.23 25.3098C1587.61 28.7298 1587.8 34.3032 1587.8 42.0298C1587.8 49.3765 1587.61 54.7598 1587.23 58.1798C1586.85 61.4732 1586.09 64.3865 1584.95 66.9198C1582.92 71.6065 1579.63 75.0898 1575.07 77.3698C1570.51 79.6498 1564.49 80.7898 1557.02 80.7898H1544.48V136.84H1512.94V2.69984ZM1547.9 56.8498C1549.67 56.8498 1551.13 56.6598 1552.27 56.2798C1553.41 55.7732 1554.23 54.9498 1554.74 53.8098C1555.12 53.0498 1555.37 51.8465 1555.5 50.1998C1555.63 48.4265 1555.69 45.7032 1555.69 42.0298C1555.69 38.3565 1555.63 35.6965 1555.5 34.0498C1555.37 32.2765 1555.12 31.0098 1554.74 30.2498C1554.23 29.1098 1553.41 28.3498 1552.27 27.9698C1551.13 27.4632 1549.67 27.2098 1547.9 27.2098H1544.48V56.8498H1547.9ZM1593.65 2.69984H1650.84V30.6298H1625.19V53.0498H1650.27V80.2198H1625.19V109.1H1650.84V136.84H1593.65V2.69984ZM1661.46 3.80273H1717.13C1723.87 3.80273 1729.16 5.03971 1732.99 7.51367C1736.89 9.92578 1739.58 13.513 1741.06 18.2754C1736.73 17.0384 1731.66 16.4199 1725.85 16.4199H1677.79V66.7031H1734.01C1736.67 66.7031 1739.45 66.3939 1742.36 65.7754V80.9902C1739.7 80.3717 1736.92 80.0625 1734.01 80.0625H1677.79V136.84H1661.46V3.80273ZM1742.36 29.501C1742.36 25.0479 1741.93 21.306 1741.06 18.2754C1747.12 19.9453 1751.79 22.7904 1755.07 26.8105C1758.41 30.7689 1760.08 35.9023 1760.08 42.2109C1760.08 48.334 1758.5 53.4365 1755.35 57.5186C1752.26 61.5387 1747.93 64.291 1742.36 65.7754V29.501ZM1742.36 80.9902C1747.87 82.2891 1752.1 84.9486 1755.07 88.9688C1758.04 92.9271 1759.52 98.2461 1759.52 104.926V136.654H1742.36V80.9902ZM1769.84 2.69984H1821.52V30.4398H1801.38V53.0498H1821.14V80.4098H1801.38V136.84H1769.84V2.69984ZM1828.66 2.69984H1885.85V30.6298H1860.2V53.0498H1885.28V80.2198H1860.2V109.1H1885.85V136.84H1828.66V2.69984ZM1934.45 139.31C1925.21 139.31 1917.35 137.473 1910.89 133.8C1904.43 130 1899.56 124.363 1896.26 116.89C1895 113.977 1894.05 110.873 1893.41 107.58C1892.78 104.16 1892.34 99.5998 1892.08 93.8998C1891.83 88.1998 1891.7 80.1565 1891.7 69.7698C1891.7 59.3832 1891.83 51.3398 1892.08 45.6398C1892.34 39.9398 1892.78 35.4432 1893.41 32.1498C1894.05 28.7298 1895 25.5632 1896.26 22.6498C1903.1 7.70317 1915.83 0.229836 1934.45 0.229836C1946.23 0.229836 1955.61 3.45984 1962.57 9.91984C1967.13 13.9732 1970.3 18.9132 1972.07 24.7398C1973.85 30.4398 1974.73 38.1032 1974.73 47.7298H1942.24C1942.24 43.2965 1942.12 39.9398 1941.86 37.6598C1941.74 35.3798 1941.48 33.7965 1941.1 32.9098C1940.72 31.8965 1940.15 31.0732 1939.39 30.4398C1938.63 29.6798 1937.81 29.1732 1936.92 28.9198C1936.04 28.5398 1934.9 28.3498 1933.5 28.3498C1931.6 28.3498 1929.96 28.7932 1928.56 29.6798C1927.3 30.5665 1926.35 31.8332 1925.71 33.4798C1925.33 34.6198 1925.02 36.0132 1924.76 37.6598C1924.51 39.3065 1924.32 42.8532 1924.19 48.2998C1924.19 53.7465 1924.19 60.9032 1924.19 69.7698C1924.19 78.5098 1924.19 85.6032 1924.19 91.0498C1924.32 96.4965 1924.45 100.107 1924.57 101.88C1924.83 103.653 1925.14 105.047 1925.52 106.06C1927.17 109.48 1929.89 111.19 1933.69 111.19C1936.1 111.19 1938.13 110.493 1939.77 109.1C1940.41 108.467 1940.85 107.77 1941.1 107.01C1941.48 106.123 1941.8 104.477 1942.05 102.07C1942.31 99.5365 1942.43 96.3698 1942.43 92.5698H1975.11C1974.99 101.183 1973.97 108.593 1972.07 114.8C1970.17 120.88 1967.2 125.82 1963.14 129.62C1956.05 136.08 1946.49 139.31 1934.45 139.31ZM1992.02 30.4398H1977.01V2.69984H2038.38V30.4398H2023.56V136.84H1992.02V30.4398ZM2078.67 3.80273H2125.98C2140.83 3.80273 2151.28 8.87435 2157.34 19.0176C2152.39 17.9043 2146.8 17.3477 2140.55 17.3477H2095.37V73.7539H2140.55C2147.41 73.7539 2153.26 73.0736 2158.08 71.7129C2152.76 82.5983 2142.43 88.041 2127.1 88.041H2095.37V136.84H2078.67V3.80273ZM2158.08 71.7129C2161.36 65.1569 2163 56.3434 2163 45.2725C2163 34.4489 2161.11 25.6973 2157.34 19.0176C2171.75 22.6667 2178.96 31.4183 2178.96 45.2725C2178.96 52.7562 2177.04 58.6009 2173.2 62.8066C2169.37 67.0124 2164.33 69.9811 2158.08 71.7129ZM2232.73 118.41H2209.17L2206.7 136.84H2174.97L2196.44 2.69984H2245.27L2266.74 136.84H2235.01L2232.73 118.41ZM2229.31 92.5698L2221.14 28.1598H2220.76L2212.4 92.5698H2229.31ZM2271.2 2.69984H2302.74V136.84H2271.2V2.69984ZM2314.7 3.80273H2370.36C2377.1 3.80273 2382.39 5.03971 2386.23 7.51367C2390.12 9.92578 2392.81 13.513 2394.3 18.2754C2389.97 17.0384 2384.9 16.4199 2379.08 16.4199H2331.03V66.7031H2387.25C2389.91 66.7031 2392.69 66.3939 2395.6 65.7754V80.9902C2392.94 80.3717 2390.15 80.0625 2387.25 80.0625H2331.03V136.84H2314.7V3.80273ZM2395.6 29.501C2395.6 25.0479 2395.16 21.306 2394.3 18.2754C2400.36 19.9453 2405.03 22.7904 2408.31 26.8105C2411.65 30.7689 2413.32 35.9023 2413.32 42.2109C2413.32 48.334 2411.74 53.4365 2408.59 57.5186C2405.49 61.5387 2401.16 64.291 2395.6 65.7754V29.501ZM2395.6 80.9902C2401.1 82.2891 2405.34 84.9486 2408.31 88.9688C2411.28 92.9271 2412.76 98.2461 2412.76 104.926V136.654H2395.6V80.9902ZM2485.78 30.4398H2470.77V2.69984H2532.14V30.4398H2517.32V136.84H2485.78V30.4398ZM2560.83 60.6729C2555.7 59.807 2551.68 57.6732 2548.77 54.2715C2545.93 50.8698 2544.5 46.4785 2544.5 41.0977V3.80273H2560.83V60.6729ZM2630.97 3.80273H2647.3V41.0977C2647.3 46.4785 2645.84 50.8698 2642.94 54.2715C2640.03 57.6732 2636.04 59.807 2630.97 60.6729V3.80273ZM2560.83 60.6729C2562.81 60.9202 2564.51 61.0439 2565.93 61.0439H2625.77C2626.89 61.0439 2628.62 60.9202 2630.97 60.6729V74.6816C2628.62 74.4342 2626.89 74.3105 2625.77 74.3105H2565.93C2564.51 74.3105 2562.81 74.4342 2560.83 74.6816V60.6729ZM2544.5 93.7002C2544.5 88.5049 2545.93 84.2682 2548.77 80.9902C2551.68 77.6504 2555.7 75.5475 2560.83 74.6816V136.84H2544.5V93.7002ZM2630.97 74.6816C2636.04 75.5475 2640.03 77.6504 2642.94 80.9902C2645.84 84.2682 2647.3 88.443 2647.3 93.5146V136.84H2630.97V74.6816ZM2659.47 2.69984H2716.66V30.6298H2691.01V53.0498H2716.09V80.2198H2691.01V109.1H2716.66V136.84H2659.47V2.69984ZM2748.35 2.69984H2792.43C2799.9 2.69984 2805.92 3.77651 2810.48 5.92984C2815.04 8.08317 2818.33 11.5032 2820.36 16.1898C2821.5 18.8498 2822.26 21.8898 2822.64 25.3098C2823.02 28.7298 2823.21 34.3032 2823.21 42.0298C2823.21 49.3765 2823.02 54.7598 2822.64 58.1798C2822.26 61.4732 2821.5 64.3865 2820.36 66.9198C2818.33 71.6065 2815.04 75.0898 2810.48 77.3698C2805.92 79.6498 2799.9 80.7898 2792.43 80.7898H2779.89V136.84H2748.35V2.69984ZM2783.31 56.8498C2785.08 56.8498 2786.54 56.6598 2787.68 56.2798C2788.82 55.7732 2789.64 54.9498 2790.15 53.8098C2790.53 53.0498 2790.78 51.8465 2790.91 50.1998C2791.03 48.4265 2791.1 45.7032 2791.1 42.0298C2791.1 38.3565 2791.03 35.6965 2790.91 34.0498C2790.78 32.2765 2790.53 31.0098 2790.15 30.2498C2789.64 29.1098 2788.82 28.3498 2787.68 27.9698C2786.54 27.4632 2785.08 27.2098 2783.31 27.2098H2779.89V56.8498H2783.31ZM2829.06 2.69984H2886.25V30.6298H2860.6V53.0498H2885.68V80.2198H2860.6V109.1H2886.25V136.84H2829.06V2.69984ZM2896.87 3.80273H2952.54C2959.28 3.80273 2964.56 5.03971 2968.4 7.51367C2972.3 9.92578 2974.99 13.513 2976.47 18.2754C2972.14 17.0384 2967.07 16.4199 2961.26 16.4199H2913.2V66.7031H2969.42C2972.08 66.7031 2974.86 66.3939 2977.77 65.7754V80.9902C2975.11 80.3717 2972.33 80.0625 2969.42 80.0625H2913.2V136.84H2896.87V3.80273ZM2977.77 29.501C2977.77 25.0479 2977.34 21.306 2976.47 18.2754C2982.53 19.9453 2987.2 22.7904 2990.48 26.8105C2993.82 30.7689 2995.49 35.9023 2995.49 42.2109C2995.49 48.334 2993.91 53.4365 2990.76 57.5186C2987.67 61.5387 2983.34 64.291 2977.77 65.7754V29.501ZM2977.77 80.9902C2983.27 82.2891 2987.51 84.9486 2990.48 88.9688C2993.45 92.9271 2994.93 98.2461 2994.93 104.926V136.654H2977.77V80.9902ZM3005.25 2.69984H3056.93V30.4398H3036.79V53.0498H3056.55V80.4098H3036.79V136.84H3005.25V2.69984ZM3064.07 2.69984H3121.26V30.6298H3095.61V53.0498H3120.69V80.2198H3095.61V109.1H3121.26V136.84H3064.07V2.69984ZM3169.86 139.31C3160.62 139.31 3152.76 137.473 3146.3 133.8C3139.84 130 3134.97 124.363 3131.67 116.89C3130.41 113.977 3129.46 110.873 3128.82 107.58C3128.19 104.16 3127.75 99.5998 3127.49 93.8998C3127.24 88.1998 3127.11 80.1565 3127.11 69.7698C3127.11 59.3832 3127.24 51.3398 3127.49 45.6398C3127.75 39.9398 3128.19 35.4432 3128.82 32.1498C3129.46 28.7298 3130.41 25.5632 3131.67 22.6498C3138.51 7.70317 3151.24 0.229836 3169.86 0.229836C3181.64 0.229836 3191.02 3.45984 3197.98 9.91984C3202.54 13.9732 3205.71 18.9132 3207.48 24.7398C3209.26 30.4398 3210.14 38.1032 3210.14 47.7298H3177.65C3177.65 43.2965 3177.53 39.9398 3177.27 37.6598C3177.15 35.3798 3176.89 33.7965 3176.51 32.9098C3176.13 31.8965 3175.56 31.0732 3174.8 30.4398C3174.04 29.6798 3173.22 29.1732 3172.33 28.9198C3171.45 28.5398 3170.31 28.3498 3168.91 28.3498C3167.01 28.3498 3165.37 28.7932 3163.97 29.6798C3162.71 30.5665 3161.76 31.8332 3161.12 33.4798C3160.74 34.6198 3160.43 36.0132 3160.17 37.6598C3159.92 39.3065 3159.73 42.8532 3159.6 48.2998C3159.6 53.7465 3159.6 60.9032 3159.6 69.7698C3159.6 78.5098 3159.6 85.6032 3159.6 91.0498C3159.73 96.4965 3159.86 100.107 3159.98 101.88C3160.24 103.653 3160.55 105.047 3160.93 106.06C3162.58 109.48 3165.3 111.19 3169.1 111.19C3171.51 111.19 3173.54 110.493 3175.18 109.1C3175.82 108.467 3176.26 107.77 3176.51 107.01C3176.89 106.123 3177.21 104.477 3177.46 102.07C3177.72 99.5365 3177.84 96.3698 3177.84 92.5698H3210.52C3210.4 101.183 3209.38 108.593 3207.48 114.8C3205.58 120.88 3202.61 125.82 3198.55 129.62C3191.46 136.08 3181.9 139.31 3169.86 139.31ZM3227.43 30.4398H3212.42V2.69984H3273.79V30.4398H3258.97V136.84H3227.43V30.4398ZM3314.08 3.80273H3361.39C3376.24 3.80273 3386.69 8.87435 3392.75 19.0176C3387.8 17.9043 3382.2 17.3477 3375.96 17.3477H3330.78V73.7539H3375.96C3382.82 73.7539 3388.67 73.0736 3393.49 71.7129C3388.17 82.5983 3377.84 88.041 3362.5 88.041H3330.78V136.84H3314.08V3.80273ZM3393.49 71.7129C3396.77 65.1569 3398.41 56.3434 3398.41 45.2725C3398.41 34.4489 3396.52 25.6973 3392.75 19.0176C3407.16 22.6667 3414.36 31.4183 3414.36 45.2725C3414.36 52.7562 3412.45 58.6009 3408.61 62.8066C3404.78 67.0124 3399.74 69.9811 3393.49 71.7129ZM3468.14 118.41H3444.58L3442.11 136.84H3410.38L3431.85 2.69984H3480.68L3502.15 136.84H3470.42L3468.14 118.41ZM3464.72 92.5698L3456.55 28.1598H3456.17L3447.81 92.5698H3464.72ZM3506.6 2.69984H3538.14V136.84H3506.6V2.69984ZM3550.11 3.80273H3605.77C3612.51 3.80273 3617.8 5.03971 3621.64 7.51367C3625.53 9.92578 3628.22 13.513 3629.71 18.2754C3625.38 17.0384 3620.31 16.4199 3614.49 16.4199H3566.44V66.7031H3622.66C3625.32 66.7031 3628.1 66.3939 3631.01 65.7754V80.9902C3628.35 80.3717 3625.56 80.0625 3622.66 80.0625H3566.44V136.84H3550.11V3.80273ZM3631.01 29.501C3631.01 25.0479 3630.57 21.306 3629.71 18.2754C3635.77 19.9453 3640.44 22.7904 3643.72 26.8105C3647.06 30.7689 3648.73 35.9023 3648.73 42.2109C3648.73 48.334 3647.15 53.4365 3643.99 57.5186C3640.9 61.5387 3636.57 64.291 3631.01 65.7754V29.501ZM3631.01 80.9902C3636.51 82.2891 3640.75 84.9486 3643.72 88.9688C3646.68 92.9271 3648.17 98.2461 3648.17 104.926V136.654H3631.01V80.9902ZM3721.18 30.4398H3706.17V2.69984H3767.54V30.4398H3752.72V136.84H3721.18V30.4398ZM3796.24 60.6729C3791.11 59.807 3787.09 57.6732 3784.18 54.2715C3781.33 50.8698 3779.91 46.4785 3779.91 41.0977V3.80273H3796.24V60.6729ZM3866.38 3.80273H3882.7V41.0977C3882.7 46.4785 3881.25 50.8698 3878.34 54.2715C3875.44 57.6732 3871.45 59.807 3866.38 60.6729V3.80273ZM3796.24 60.6729C3798.22 60.9202 3799.92 61.0439 3801.34 61.0439H3861.18C3862.29 61.0439 3864.03 60.9202 3866.38 60.6729V74.6816C3864.03 74.4342 3862.29 74.3105 3861.18 74.3105H3801.34C3799.92 74.3105 3798.22 74.4342 3796.24 74.6816V60.6729ZM3779.91 93.7002C3779.91 88.5049 3781.33 84.2682 3784.18 80.9902C3787.09 77.6504 3791.11 75.5475 3796.24 74.6816V136.84H3779.91V93.7002ZM3866.38 74.6816C3871.45 75.5475 3875.44 77.6504 3878.34 80.9902C3881.25 84.2682 3882.7 88.443 3882.7 93.5146V136.84H3866.38V74.6816ZM3894.88 2.69984H3952.07V30.6298H3926.42V53.0498H3951.5V80.2198H3926.42V109.1H3952.07V136.84H3894.88V2.69984ZM3983.76 2.69984H4027.84C4035.31 2.69984 4041.33 3.77651 4045.89 5.92984C4050.45 8.08317 4053.74 11.5032 4055.77 16.1898C4056.91 18.8498 4057.67 21.8898 4058.05 25.3098C4058.43 28.7298 4058.62 34.3032 4058.62 42.0298C4058.62 49.3765 4058.43 54.7598 4058.05 58.1798C4057.67 61.4732 4056.91 64.3865 4055.77 66.9198C4053.74 71.6065 4050.45 75.0898 4045.89 77.3698C4041.33 79.6498 4035.31 80.7898 4027.84 80.7898H4015.3V136.84H3983.76V2.69984ZM4018.72 56.8498C4020.49 56.8498 4021.95 56.6598 4023.09 56.2798C4024.23 55.7732 4025.05 54.9498 4025.56 53.8098C4025.94 53.0498 4026.19 51.8465 4026.32 50.1998C4026.44 48.4265 4026.51 45.7032 4026.51 42.0298C4026.51 38.3565 4026.44 35.6965 4026.32 34.0498C4026.19 32.2765 4025.94 31.0098 4025.56 30.2498C4025.05 29.1098 4024.23 28.3498 4023.09 27.9698C4021.95 27.4632 4020.49 27.2098 4018.72 27.2098H4015.3V56.8498H4018.72ZM4064.47 2.69984H4121.66V30.6298H4096.01V53.0498H4121.09V80.2198H4096.01V109.1H4121.66V136.84H4064.47V2.69984ZM4132.28 3.80273H4187.94C4194.68 3.80273 4199.97 5.03971 4203.81 7.51367C4207.7 9.92578 4210.39 13.513 4211.88 18.2754C4207.55 17.0384 4202.48 16.4199 4196.66 16.4199H4148.61V66.7031H4204.83C4207.49 66.7031 4210.27 66.3939 4213.18 65.7754V80.9902C4210.52 80.3717 4207.74 80.0625 4204.83 80.0625H4148.61V136.84H4132.28V3.80273ZM4213.18 29.501C4213.18 25.0479 4212.74 21.306 4211.88 18.2754C4217.94 19.9453 4222.61 22.7904 4225.89 26.8105C4229.23 30.7689 4230.9 35.9023 4230.9 42.2109C4230.9 48.334 4229.32 53.4365 4226.17 57.5186C4223.07 61.5387 4218.74 64.291 4213.18 65.7754V29.501ZM4213.18 80.9902C4218.68 82.2891 4222.92 84.9486 4225.89 88.9688C4228.86 92.9271 4230.34 98.2461 4230.34 104.926V136.654H4213.18V80.9902ZM4240.66 2.69984H4292.34V30.4398H4272.2V53.0498H4291.96V80.4098H4272.2V136.84H4240.66V2.69984ZM4299.48 2.69984H4356.67V30.6298H4331.02V53.0498H4356.1V80.2198H4331.02V109.1H4356.67V136.84H4299.48V2.69984ZM4405.27 139.31C4396.02 139.31 4388.17 137.473 4381.71 133.8C4375.25 130 4370.37 124.363 4367.08 116.89C4365.81 113.977 4364.86 110.873 4364.23 107.58C4363.6 104.16 4363.15 99.5998 4362.9 93.8998C4362.65 88.1998 4362.52 80.1565 4362.52 69.7698C4362.52 59.3832 4362.65 51.3398 4362.9 45.6398C4363.15 39.9398 4363.6 35.4432 4364.23 32.1498C4364.86 28.7298 4365.81 25.5632 4367.08 22.6498C4373.92 7.70317 4386.65 0.229836 4405.27 0.229836C4417.05 0.229836 4426.42 3.45984 4433.39 9.91984C4437.95 13.9732 4441.12 18.9132 4442.89 24.7398C4444.66 30.4398 4445.55 38.1032 4445.55 47.7298H4413.06C4413.06 43.2965 4412.93 39.9398 4412.68 37.6598C4412.55 35.3798 4412.3 33.7965 4411.92 32.9098C4411.54 31.8965 4410.97 31.0732 4410.21 30.4398C4409.45 29.6798 4408.63 29.1732 4407.74 28.9198C4406.85 28.5398 4405.71 28.3498 4404.32 28.3498C4402.42 28.3498 4400.77 28.7932 4399.38 29.6798C4398.11 30.5665 4397.16 31.8332 4396.53 33.4798C4396.15 34.6198 4395.83 36.0132 4395.58 37.6598C4395.33 39.3065 4395.14 42.8532 4395.01 48.2998C4395.01 53.7465 4395.01 60.9032 4395.01 69.7698C4395.01 78.5098 4395.01 85.6032 4395.01 91.0498C4395.14 96.4965 4395.26 100.107 4395.39 101.88C4395.64 103.653 4395.96 105.047 4396.34 106.06C4397.99 109.48 4400.71 111.19 4404.51 111.19C4406.92 111.19 4408.94 110.493 4410.59 109.1C4411.22 108.467 4411.67 107.77 4411.92 107.01C4412.3 106.123 4412.62 104.477 4412.87 102.07C4413.12 99.5365 4413.25 96.3698 4413.25 92.5698H4445.93C4445.8 101.183 4444.79 108.593 4442.89 114.8C4440.99 120.88 4438.01 125.82 4433.96 129.62C4426.87 136.08 4417.3 139.31 4405.27 139.31ZM4462.84 30.4398H4447.83V2.69984H4509.2V30.4398H4494.38V136.84H4462.84V30.4398ZM4549.49 3.80273H4596.8C4611.64 3.80273 4622.1 8.87435 4628.16 19.0176C4623.21 17.9043 4617.61 17.3477 4611.37 17.3477H4566.18V73.7539H4611.37C4618.23 73.7539 4624.08 73.0736 4628.9 71.7129C4623.58 82.5983 4613.25 88.041 4597.91 88.041H4566.18V136.84H4549.49V3.80273ZM4628.9 71.7129C4632.18 65.1569 4633.82 56.3434 4633.82 45.2725C4633.82 34.4489 4631.93 25.6973 4628.16 19.0176C4642.57 22.6667 4649.77 31.4183 4649.77 45.2725C4649.77 52.7562 4647.86 58.6009 4644.02 62.8066C4640.19 67.0124 4635.15 69.9811 4628.9 71.7129ZM4703.55 118.41H4679.99L4677.52 136.84H4645.79L4667.26 2.69984H4716.09L4737.56 136.84H4705.83L4703.55 118.41ZM4700.13 92.5698L4691.96 28.1598H4691.58L4683.22 92.5698H4700.13ZM4742.01 2.69984H4773.55V136.84H4742.01V2.69984ZM4785.52 3.80273H4841.18C4847.92 3.80273 4853.21 5.03971 4857.04 7.51367C4860.94 9.92578 4863.63 13.513 4865.12 18.2754C4860.79 17.0384 4855.71 16.4199 4849.9 16.4199H4801.84V66.7031H4858.06C4860.72 66.7031 4863.51 66.3939 4866.41 65.7754V80.9902C4863.75 80.3717 4860.97 80.0625 4858.06 80.0625H4801.84V136.84H4785.52V3.80273ZM4866.41 29.501C4866.41 25.0479 4865.98 21.306 4865.12 18.2754C4871.18 19.9453 4875.85 22.7904 4879.12 26.8105C4882.46 30.7689 4884.13 35.9023 4884.13 42.2109C4884.13 48.334 4882.56 53.4365 4879.4 57.5186C4876.31 61.5387 4871.98 64.291 4866.41 65.7754V29.501ZM4866.41 80.9902C4871.92 82.2891 4876.16 84.9486 4879.12 88.9688C4882.09 92.9271 4883.58 98.2461 4883.58 104.926V136.654H4866.41V80.9902Z" fill="#F7F3E8"/>
</svg>
