<svg width="1790" height="140" viewBox="0 0 1790 140" fill="none" xmlns="http://www.w3.org/2000/svg">
<path d="M-381.04 30.4398H-396.05V2.69984H-334.68V30.4398H-349.5V136.84H-381.04V30.4398ZM-305.986 60.6729C-311.119 59.807 -315.139 57.6732 -318.046 54.2715C-320.891 50.8698 -322.314 46.4785 -322.314 41.0977V3.80273H-305.986V60.6729ZM-235.849 3.80273H-219.521V41.0977C-219.521 46.4785 -220.974 50.8698 -223.881 54.2715C-226.788 57.6732 -230.777 59.807 -235.849 60.6729V3.80273ZM-305.986 60.6729C-304.006 60.9202 -302.306 61.0439 -300.883 61.0439H-241.044C-239.931 61.0439 -238.199 60.9202 -235.849 60.6729V74.6816C-238.199 74.4342 -239.931 74.3105 -241.044 74.3105H-300.883C-302.306 74.3105 -304.006 74.4342 -305.986 74.6816V60.6729ZM-322.314 93.7002C-322.314 88.5049 -320.891 84.2682 -318.046 80.9902C-315.139 77.6504 -311.119 75.5475 -305.986 74.6816V136.84H-322.314V93.7002ZM-235.849 74.6816C-230.777 75.5475 -226.788 77.6504 -223.881 80.9902C-220.974 84.2682 -219.521 88.443 -219.521 93.5146V136.84H-235.849V74.6816ZM-207.346 2.69984H-150.156V30.6298H-175.806V53.0498H-150.726V80.2198H-175.806V109.1H-150.156V136.84H-207.346V2.69984ZM-118.469 2.69984H-74.3889C-66.9156 2.69984 -60.8989 3.77651 -56.3389 5.92984C-51.7789 8.08317 -48.4856 11.5032 -46.4589 16.1898C-45.3189 18.8498 -44.5589 21.8898 -44.1789 25.3098C-43.7989 28.7298 -43.6089 34.3032 -43.6089 42.0298C-43.6089 49.3765 -43.7989 54.7598 -44.1789 58.1798C-44.5589 61.4732 -45.3189 64.3865 -46.4589 66.9198C-48.4856 71.6065 -51.7789 75.0898 -56.3389 77.3698C-60.8989 79.6498 -66.9156 80.7898 -74.3889 80.7898H-86.9289V136.84H-118.469V2.69984ZM-83.5089 56.8498C-81.7356 56.8498 -80.2789 56.6598 -79.1389 56.2798C-77.9989 55.7732 -77.1756 54.9498 -76.6689 53.8098C-76.2889 53.0498 -76.0356 51.8465 -75.9089 50.1998C-75.7822 48.4265 -75.7189 45.7032 -75.7189 42.0298C-75.7189 38.3565 -75.7822 35.6965 -75.9089 34.0498C-76.0356 32.2765 -76.2889 31.0098 -76.6689 30.2498C-77.1756 29.1098 -77.9989 28.3498 -79.1389 27.9698C-80.2789 27.4632 -81.7356 27.2098 -83.5089 27.2098H-86.9289V56.8498H-83.5089ZM-37.756 2.69984H19.434V30.6298H-6.21601V53.0498H18.864V80.2198H-6.21601V109.1H19.434V136.84H-37.756V2.69984ZM30.0547 3.80273H85.7188C92.4603 3.80273 97.7484 5.03971 101.583 7.51367C105.479 9.92578 108.17 13.513 109.654 18.2754C105.325 17.0384 100.253 16.4199 94.4395 16.4199H46.3828V66.7031H102.604C105.263 66.7031 108.046 66.3939 110.953 65.7754V80.9902C108.294 80.3717 105.51 80.0625 102.604 80.0625H46.3828V136.84H30.0547V3.80273ZM110.953 29.501C110.953 25.0479 110.52 21.306 109.654 18.2754C115.715 19.9453 120.385 22.7904 123.663 26.8105C127.003 30.7689 128.673 35.9023 128.673 42.2109C128.673 48.334 127.096 53.4365 123.941 57.5186C120.849 61.5387 116.52 64.291 110.953 65.7754V29.501ZM110.953 80.9902C116.458 82.2891 120.694 84.9486 123.663 88.9688C126.632 92.9271 128.116 98.2461 128.116 104.926V136.654H110.953V80.9902ZM138.432 2.69984H190.112V30.4398H169.972V53.0498H189.732V80.4098H169.972V136.84H138.432V2.69984ZM197.25 2.69984H254.44V30.6298H228.79V53.0498H253.87V80.2198H228.79V109.1H254.44V136.84H197.25V2.69984ZM303.046 139.31C293.799 139.31 285.946 137.473 279.486 133.8C273.026 130 268.149 124.363 264.856 116.89C263.589 113.977 262.639 110.873 262.006 107.58C261.373 104.16 260.929 99.5998 260.676 93.8998C260.423 88.1998 260.296 80.1565 260.296 69.7698C260.296 59.3832 260.423 51.3398 260.676 45.6398C260.929 39.9398 261.373 35.4432 262.006 32.1498C262.639 28.7298 263.589 25.5632 264.856 22.6498C271.696 7.70317 284.426 0.229836 303.046 0.229836C314.826 0.229836 324.199 3.45984 331.166 9.91984C335.726 13.9732 338.893 18.9132 340.666 24.7398C342.439 30.4398 343.326 38.1032 343.326 47.7298H310.836C310.836 43.2965 310.709 39.9398 310.456 37.6598C310.329 35.3798 310.076 33.7965 309.696 32.9098C309.316 31.8965 308.746 31.0732 307.986 30.4398C307.226 29.6798 306.403 29.1732 305.516 28.9198C304.629 28.5398 303.489 28.3498 302.096 28.3498C300.196 28.3498 298.549 28.7932 297.156 29.6798C295.889 30.5665 294.939 31.8332 294.306 33.4798C293.926 34.6198 293.609 36.0132 293.356 37.6598C293.103 39.3065 292.913 42.8532 292.786 48.2998C292.786 53.7465 292.786 60.9032 292.786 69.7698C292.786 78.5098 292.786 85.6032 292.786 91.0498C292.913 96.4965 293.039 100.107 293.166 101.88C293.419 103.653 293.736 105.047 294.116 106.06C295.763 109.48 298.486 111.19 302.286 111.19C304.693 111.19 306.719 110.493 308.366 109.1C308.999 108.467 309.443 107.77 309.696 107.01C310.076 106.123 310.393 104.477 310.646 102.07C310.899 99.5365 311.026 96.3698 311.026 92.5698H343.706C343.579 101.183 342.566 108.593 340.666 114.8C338.766 120.88 335.789 125.82 331.736 129.62C324.643 136.08 315.079 139.31 303.046 139.31ZM360.613 30.4398H345.603V2.69984H406.973V30.4398H392.153V136.84H360.613V30.4398ZM447.261 3.80273H494.575C509.419 3.80273 519.871 8.87435 525.932 19.0176C520.985 17.9043 515.387 17.3477 509.14 17.3477H463.96V73.7539H509.14C516.006 73.7539 521.85 73.0736 526.675 71.7129C521.356 82.5983 511.027 88.041 495.688 88.041H463.96V136.84H447.261V3.80273ZM526.675 71.7129C529.953 65.1569 531.592 56.3434 531.592 45.2725C531.592 34.4489 529.705 25.6973 525.932 19.0176C540.343 22.6667 547.549 31.4183 547.549 45.2725C547.549 52.7562 545.631 58.6009 541.797 62.8066C537.962 67.0124 532.921 69.9811 526.675 71.7129ZM601.322 118.41H577.762L575.292 136.84H543.562L565.032 2.69984H613.862L635.332 136.84H603.602L601.322 118.41ZM597.902 92.5698L589.732 28.1598H589.352L580.992 92.5698H597.902ZM639.787 2.69984H671.327V136.84H639.787V2.69984ZM683.291 3.80273H738.955C745.697 3.80273 750.985 5.03971 754.819 7.51367C758.716 9.92578 761.406 13.513 762.891 18.2754C758.561 17.0384 753.49 16.4199 747.676 16.4199H699.619V66.7031H755.84C758.499 66.7031 761.283 66.3939 764.189 65.7754V80.9902C761.53 80.3717 758.747 80.0625 755.84 80.0625H699.619V136.84H683.291V3.80273ZM764.189 29.501C764.189 25.0479 763.757 21.306 762.891 18.2754C768.952 19.9453 773.621 22.7904 776.899 26.8105C780.239 30.7689 781.909 35.9023 781.909 42.2109C781.909 48.334 780.332 53.4365 777.178 57.5186C774.085 61.5387 769.756 64.291 764.189 65.7754V29.501ZM764.189 80.9902C769.694 82.2891 773.931 84.9486 776.899 88.9688C779.868 92.9271 781.353 98.2461 781.353 104.926V136.654H764.189V80.9902ZM854.368 30.4398H839.358V2.69984H900.728V30.4398H885.908V136.84H854.368V30.4398ZM929.423 60.6729C924.289 59.807 920.269 57.6732 917.362 54.2715C914.517 50.8698 913.094 46.4785 913.094 41.0977V3.80273H929.423V60.6729ZM999.559 3.80273H1015.89V41.0977C1015.89 46.4785 1014.43 50.8698 1011.53 54.2715C1008.62 57.6732 1004.63 59.807 999.559 60.6729V3.80273ZM929.423 60.6729C931.402 60.9202 933.103 61.0439 934.525 61.0439H994.364C995.477 61.0439 997.209 60.9202 999.559 60.6729V74.6816C997.209 74.4342 995.477 74.3105 994.364 74.3105H934.525C933.103 74.3105 931.402 74.4342 929.423 74.6816V60.6729ZM913.094 93.7002C913.094 88.5049 914.517 84.2682 917.362 80.9902C920.269 77.6504 924.289 75.5475 929.423 74.6816V136.84H913.094V93.7002ZM999.559 74.6816C1004.63 75.5475 1008.62 77.6504 1011.53 80.9902C1014.43 84.2682 1015.89 88.443 1015.89 93.5146V136.84H999.559V74.6816ZM1028.06 2.69984H1085.25V30.6298H1059.6V53.0498H1084.68V80.2198H1059.6V109.1H1085.25V136.84H1028.06V2.69984ZM1116.94 2.69984H1161.02C1168.49 2.69984 1174.51 3.77651 1179.07 5.92984C1183.63 8.08317 1186.92 11.5032 1188.95 16.1898C1190.09 18.8498 1190.85 21.8898 1191.23 25.3098C1191.61 28.7298 1191.8 34.3032 1191.8 42.0298C1191.8 49.3765 1191.61 54.7598 1191.23 58.1798C1190.85 61.4732 1190.09 64.3865 1188.95 66.9198C1186.92 71.6065 1183.63 75.0898 1179.07 77.3698C1174.51 79.6498 1168.49 80.7898 1161.02 80.7898H1148.48V136.84H1116.94V2.69984ZM1151.9 56.8498C1153.67 56.8498 1155.13 56.6598 1156.27 56.2798C1157.41 55.7732 1158.23 54.9498 1158.74 53.8098C1159.12 53.0498 1159.37 51.8465 1159.5 50.1998C1159.63 48.4265 1159.69 45.7032 1159.69 42.0298C1159.69 38.3565 1159.63 35.6965 1159.5 34.0498C1159.37 32.2765 1159.12 31.0098 1158.74 30.2498C1158.23 29.1098 1157.41 28.3498 1156.27 27.9698C1155.13 27.4632 1153.67 27.2098 1151.9 27.2098H1148.48V56.8498H1151.9ZM1197.65 2.69984H1254.84V30.6298H1229.19V53.0498H1254.27V80.2198H1229.19V109.1H1254.84V136.84H1197.65V2.69984ZM1265.46 3.80273H1321.13C1327.87 3.80273 1333.16 5.03971 1336.99 7.51367C1340.89 9.92578 1343.58 13.513 1345.06 18.2754C1340.73 17.0384 1335.66 16.4199 1329.85 16.4199H1281.79V66.7031H1338.01C1340.67 66.7031 1343.45 66.3939 1346.36 65.7754V80.9902C1343.7 80.3717 1340.92 80.0625 1338.01 80.0625H1281.79V136.84H1265.46V3.80273ZM1346.36 29.501C1346.36 25.0479 1345.93 21.306 1345.06 18.2754C1351.12 19.9453 1355.79 22.7904 1359.07 26.8105C1362.41 30.7689 1364.08 35.9023 1364.08 42.2109C1364.08 48.334 1362.5 53.4365 1359.35 57.5186C1356.26 61.5387 1351.93 64.291 1346.36 65.7754V29.501ZM1346.36 80.9902C1351.87 82.2891 1356.1 84.9486 1359.07 88.9688C1362.04 92.9271 1363.52 98.2461 1363.52 104.926V136.654H1346.36V80.9902ZM1373.84 2.69984H1425.52V30.4398H1405.38V53.0498H1425.14V80.4098H1405.38V136.84H1373.84V2.69984ZM1432.66 2.69984H1489.85V30.6298H1464.2V53.0498H1489.28V80.2198H1464.2V109.1H1489.85V136.84H1432.66V2.69984ZM1538.45 139.31C1529.21 139.31 1521.35 137.473 1514.89 133.8C1508.43 130 1503.56 124.363 1500.26 116.89C1499 113.977 1498.05 110.873 1497.41 107.58C1496.78 104.16 1496.34 99.5998 1496.08 93.8998C1495.83 88.1998 1495.7 80.1565 1495.7 69.7698C1495.7 59.3832 1495.83 51.3398 1496.08 45.6398C1496.34 39.9398 1496.78 35.4432 1497.41 32.1498C1498.05 28.7298 1499 25.5632 1500.26 22.6498C1507.1 7.70317 1519.83 0.229836 1538.45 0.229836C1550.23 0.229836 1559.61 3.45984 1566.57 9.91984C1571.13 13.9732 1574.3 18.9132 1576.07 24.7398C1577.85 30.4398 1578.73 38.1032 1578.73 47.7298H1546.24C1546.24 43.2965 1546.12 39.9398 1545.86 37.6598C1545.74 35.3798 1545.48 33.7965 1545.1 32.9098C1544.72 31.8965 1544.15 31.0732 1543.39 30.4398C1542.63 29.6798 1541.81 29.1732 1540.92 28.9198C1540.04 28.5398 1538.9 28.3498 1537.5 28.3498C1535.6 28.3498 1533.96 28.7932 1532.56 29.6798C1531.3 30.5665 1530.35 31.8332 1529.71 33.4798C1529.33 34.6198 1529.02 36.0132 1528.76 37.6598C1528.51 39.3065 1528.32 42.8532 1528.19 48.2998C1528.19 53.7465 1528.19 60.9032 1528.19 69.7698C1528.19 78.5098 1528.19 85.6032 1528.19 91.0498C1528.32 96.4965 1528.45 100.107 1528.57 101.88C1528.83 103.653 1529.14 105.047 1529.52 106.06C1531.17 109.48 1533.89 111.19 1537.69 111.19C1540.1 111.19 1542.13 110.493 1543.77 109.1C1544.41 108.467 1544.85 107.77 1545.1 107.01C1545.48 106.123 1545.8 104.477 1546.05 102.07C1546.31 99.5365 1546.43 96.3698 1546.43 92.5698H1579.11C1578.99 101.183 1577.97 108.593 1576.07 114.8C1574.17 120.88 1571.2 125.82 1567.14 129.62C1560.05 136.08 1550.49 139.31 1538.45 139.31ZM1596.02 30.4398H1581.01V2.69984H1642.38V30.4398H1627.56V136.84H1596.02V30.4398ZM1682.67 3.80273H1729.98C1744.83 3.80273 1755.28 8.87435 1761.34 19.0176C1756.39 17.9043 1750.8 17.3477 1744.55 17.3477H1699.37V73.7539H1744.55C1751.41 73.7539 1757.26 73.0736 1762.08 71.7129C1756.76 82.5983 1746.43 88.041 1731.1 88.041H1699.37V136.84H1682.67V3.80273ZM1762.08 71.7129C1765.36 65.1569 1767 56.3434 1767 45.2725C1767 34.4489 1765.11 25.6973 1761.34 19.0176C1775.75 22.6667 1782.96 31.4183 1782.96 45.2725C1782.96 52.7562 1781.04 58.6009 1777.2 62.8066C1773.37 67.0124 1768.33 69.9811 1762.08 71.7129ZM1836.73 118.41H1813.17L1810.7 136.84H1778.97L1800.44 2.69984H1849.27L1870.74 136.84H1839.01L1836.73 118.41ZM1833.31 92.5698L1825.14 28.1598H1824.76L1816.4 92.5698H1833.31ZM1875.2 2.69984H1906.74V136.84H1875.2V2.69984ZM1918.7 3.80273H1974.36C1981.1 3.80273 1986.39 5.03971 1990.23 7.51367C1994.12 9.92578 1996.81 13.513 1998.3 18.2754C1993.97 17.0384 1988.9 16.4199 1983.08 16.4199H1935.03V66.7031H1991.25C1993.91 66.7031 1996.69 66.3939 1999.6 65.7754V80.9902C1996.94 80.3717 1994.15 80.0625 1991.25 80.0625H1935.03V136.84H1918.7V3.80273ZM1999.6 29.501C1999.6 25.0479 1999.16 21.306 1998.3 18.2754C2004.36 19.9453 2009.03 22.7904 2012.31 26.8105C2015.65 30.7689 2017.32 35.9023 2017.32 42.2109C2017.32 48.334 2015.74 53.4365 2012.59 57.5186C2009.49 61.5387 2005.16 64.291 1999.6 65.7754V29.501ZM1999.6 80.9902C2005.1 82.2891 2009.34 84.9486 2012.31 88.9688C2015.28 92.9271 2016.76 98.2461 2016.76 104.926V136.654H1999.6V80.9902ZM2089.78 30.4398H2074.77V2.69984H2136.14V30.4398H2121.32V136.84H2089.78V30.4398ZM2164.83 60.6729C2159.7 59.807 2155.68 57.6732 2152.77 54.2715C2149.93 50.8698 2148.5 46.4785 2148.5 41.0977V3.80273H2164.83V60.6729ZM2234.97 3.80273H2251.3V41.0977C2251.3 46.4785 2249.84 50.8698 2246.94 54.2715C2244.03 57.6732 2240.04 59.807 2234.97 60.6729V3.80273ZM2164.83 60.6729C2166.81 60.9202 2168.51 61.0439 2169.93 61.0439H2229.77C2230.89 61.0439 2232.62 60.9202 2234.97 60.6729V74.6816C2232.62 74.4342 2230.89 74.3105 2229.77 74.3105H2169.93C2168.51 74.3105 2166.81 74.4342 2164.83 74.6816V60.6729ZM2148.5 93.7002C2148.5 88.5049 2149.93 84.2682 2152.77 80.9902C2155.68 77.6504 2159.7 75.5475 2164.83 74.6816V136.84H2148.5V93.7002ZM2234.97 74.6816C2240.04 75.5475 2244.03 77.6504 2246.94 80.9902C2249.84 84.2682 2251.3 88.443 2251.3 93.5146V136.84H2234.97V74.6816ZM2263.47 2.69984H2320.66V30.6298H2295.01V53.0498H2320.09V80.2198H2295.01V109.1H2320.66V136.84H2263.47V2.69984ZM2352.35 2.69984H2396.43C2403.9 2.69984 2409.92 3.77651 2414.48 5.92984C2419.04 8.08317 2422.33 11.5032 2424.36 16.1898C2425.5 18.8498 2426.26 21.8898 2426.64 25.3098C2427.02 28.7298 2427.21 34.3032 2427.21 42.0298C2427.21 49.3765 2427.02 54.7598 2426.64 58.1798C2426.26 61.4732 2425.5 64.3865 2424.36 66.9198C2422.33 71.6065 2419.04 75.0898 2414.48 77.3698C2409.92 79.6498 2403.9 80.7898 2396.43 80.7898H2383.89V136.84H2352.35V2.69984ZM2387.31 56.8498C2389.08 56.8498 2390.54 56.6598 2391.68 56.2798C2392.82 55.7732 2393.64 54.9498 2394.15 53.8098C2394.53 53.0498 2394.78 51.8465 2394.91 50.1998C2395.03 48.4265 2395.1 45.7032 2395.1 42.0298C2395.1 38.3565 2395.03 35.6965 2394.91 34.0498C2394.78 32.2765 2394.53 31.0098 2394.15 30.2498C2393.64 29.1098 2392.82 28.3498 2391.68 27.9698C2390.54 27.4632 2389.08 27.2098 2387.31 27.2098H2383.89V56.8498H2387.31ZM2433.06 2.69984H2490.25V30.6298H2464.6V53.0498H2489.68V80.2198H2464.6V109.1H2490.25V136.84H2433.06V2.69984ZM2500.87 3.80273H2556.54C2563.28 3.80273 2568.56 5.03971 2572.4 7.51367C2576.3 9.92578 2578.99 13.513 2580.47 18.2754C2576.14 17.0384 2571.07 16.4199 2565.26 16.4199H2517.2V66.7031H2573.42C2576.08 66.7031 2578.86 66.3939 2581.77 65.7754V80.9902C2579.11 80.3717 2576.33 80.0625 2573.42 80.0625H2517.2V136.84H2500.87V3.80273ZM2581.77 29.501C2581.77 25.0479 2581.34 21.306 2580.47 18.2754C2586.53 19.9453 2591.2 22.7904 2594.48 26.8105C2597.82 30.7689 2599.49 35.9023 2599.49 42.2109C2599.49 48.334 2597.91 53.4365 2594.76 57.5186C2591.67 61.5387 2587.34 64.291 2581.77 65.7754V29.501ZM2581.77 80.9902C2587.27 82.2891 2591.51 84.9486 2594.48 88.9688C2597.45 92.9271 2598.93 98.2461 2598.93 104.926V136.654H2581.77V80.9902ZM2609.25 2.69984H2660.93V30.4398H2640.79V53.0498H2660.55V80.4098H2640.79V136.84H2609.25V2.69984ZM2668.07 2.69984H2725.26V30.6298H2699.61V53.0498H2724.69V80.2198H2699.61V109.1H2725.26V136.84H2668.07V2.69984ZM2773.86 139.31C2764.62 139.31 2756.76 137.473 2750.3 133.8C2743.84 130 2738.97 124.363 2735.67 116.89C2734.41 113.977 2733.46 110.873 2732.82 107.58C2732.19 104.16 2731.75 99.5998 2731.49 93.8998C2731.24 88.1998 2731.11 80.1565 2731.11 69.7698C2731.11 59.3832 2731.24 51.3398 2731.49 45.6398C2731.75 39.9398 2732.19 35.4432 2732.82 32.1498C2733.46 28.7298 2734.41 25.5632 2735.67 22.6498C2742.51 7.70317 2755.24 0.229836 2773.86 0.229836C2785.64 0.229836 2795.02 3.45984 2801.98 9.91984C2806.54 13.9732 2809.71 18.9132 2811.48 24.7398C2813.26 30.4398 2814.14 38.1032 2814.14 47.7298H2781.65C2781.65 43.2965 2781.53 39.9398 2781.27 37.6598C2781.15 35.3798 2780.89 33.7965 2780.51 32.9098C2780.13 31.8965 2779.56 31.0732 2778.8 30.4398C2778.04 29.6798 2777.22 29.1732 2776.33 28.9198C2775.45 28.5398 2774.31 28.3498 2772.91 28.3498C2771.01 28.3498 2769.37 28.7932 2767.97 29.6798C2766.71 30.5665 2765.76 31.8332 2765.12 33.4798C2764.74 34.6198 2764.43 36.0132 2764.17 37.6598C2763.92 39.3065 2763.73 42.8532 2763.6 48.2998C2763.6 53.7465 2763.6 60.9032 2763.6 69.7698C2763.6 78.5098 2763.6 85.6032 2763.6 91.0498C2763.73 96.4965 2763.86 100.107 2763.98 101.88C2764.24 103.653 2764.55 105.047 2764.93 106.06C2766.58 109.48 2769.3 111.19 2773.1 111.19C2775.51 111.19 2777.54 110.493 2779.18 109.1C2779.82 108.467 2780.26 107.77 2780.51 107.01C2780.89 106.123 2781.21 104.477 2781.46 102.07C2781.72 99.5365 2781.84 96.3698 2781.84 92.5698H2814.52C2814.4 101.183 2813.38 108.593 2811.48 114.8C2809.58 120.88 2806.61 125.82 2802.55 129.62C2795.46 136.08 2785.9 139.31 2773.86 139.31ZM2831.43 30.4398H2816.42V2.69984H2877.79V30.4398H2862.97V136.84H2831.43V30.4398ZM2918.08 3.80273H2965.39C2980.24 3.80273 2990.69 8.87435 2996.75 19.0176C2991.8 17.9043 2986.2 17.3477 2979.96 17.3477H2934.78V73.7539H2979.96C2986.82 73.7539 2992.67 73.0736 2997.49 71.7129C2992.17 82.5983 2981.84 88.041 2966.5 88.041H2934.78V136.84H2918.08V3.80273ZM2997.49 71.7129C3000.77 65.1569 3002.41 56.3434 3002.41 45.2725C3002.41 34.4489 3000.52 25.6973 2996.75 19.0176C3011.16 22.6667 3018.36 31.4183 3018.36 45.2725C3018.36 52.7562 3016.45 58.6009 3012.61 62.8066C3008.78 67.0124 3003.74 69.9811 2997.49 71.7129ZM3072.14 118.41H3048.58L3046.11 136.84H3014.38L3035.85 2.69984H3084.68L3106.15 136.84H3074.42L3072.14 118.41ZM3068.72 92.5698L3060.55 28.1598H3060.17L3051.81 92.5698H3068.72ZM3110.6 2.69984H3142.14V136.84H3110.6V2.69984ZM3154.11 3.80273H3209.77C3216.51 3.80273 3221.8 5.03971 3225.64 7.51367C3229.53 9.92578 3232.22 13.513 3233.71 18.2754C3229.38 17.0384 3224.31 16.4199 3218.49 16.4199H3170.44V66.7031H3226.66C3229.32 66.7031 3232.1 66.3939 3235.01 65.7754V80.9902C3232.35 80.3717 3229.56 80.0625 3226.66 80.0625H3170.44V136.84H3154.11V3.80273ZM3235.01 29.501C3235.01 25.0479 3234.57 21.306 3233.71 18.2754C3239.77 19.9453 3244.44 22.7904 3247.72 26.8105C3251.06 30.7689 3252.73 35.9023 3252.73 42.2109C3252.73 48.334 3251.15 53.4365 3247.99 57.5186C3244.9 61.5387 3240.57 64.291 3235.01 65.7754V29.501ZM3235.01 80.9902C3240.51 82.2891 3244.75 84.9486 3247.72 88.9688C3250.68 92.9271 3252.17 98.2461 3252.17 104.926V136.654H3235.01V80.9902ZM3325.18 30.4398H3310.17V2.69984H3371.54V30.4398H3356.72V136.84H3325.18V30.4398ZM3400.24 60.6729C3395.11 59.807 3391.09 57.6732 3388.18 54.2715C3385.33 50.8698 3383.91 46.4785 3383.91 41.0977V3.80273H3400.24V60.6729ZM3470.38 3.80273H3486.7V41.0977C3486.7 46.4785 3485.25 50.8698 3482.34 54.2715C3479.44 57.6732 3475.45 59.807 3470.38 60.6729V3.80273ZM3400.24 60.6729C3402.22 60.9202 3403.92 61.0439 3405.34 61.0439H3465.18C3466.29 61.0439 3468.03 60.9202 3470.38 60.6729V74.6816C3468.03 74.4342 3466.29 74.3105 3465.18 74.3105H3405.34C3403.92 74.3105 3402.22 74.4342 3400.24 74.6816V60.6729ZM3383.91 93.7002C3383.91 88.5049 3385.33 84.2682 3388.18 80.9902C3391.09 77.6504 3395.11 75.5475 3400.24 74.6816V136.84H3383.91V93.7002ZM3470.38 74.6816C3475.45 75.5475 3479.44 77.6504 3482.34 80.9902C3485.25 84.2682 3486.7 88.443 3486.7 93.5146V136.84H3470.38V74.6816ZM3498.88 2.69984H3556.07V30.6298H3530.42V53.0498H3555.5V80.2198H3530.42V109.1H3556.07V136.84H3498.88V2.69984ZM3587.76 2.69984H3631.84C3639.31 2.69984 3645.33 3.77651 3649.89 5.92984C3654.45 8.08317 3657.74 11.5032 3659.77 16.1898C3660.91 18.8498 3661.67 21.8898 3662.05 25.3098C3662.43 28.7298 3662.62 34.3032 3662.62 42.0298C3662.62 49.3765 3662.43 54.7598 3662.05 58.1798C3661.67 61.4732 3660.91 64.3865 3659.77 66.9198C3657.74 71.6065 3654.45 75.0898 3649.89 77.3698C3645.33 79.6498 3639.31 80.7898 3631.84 80.7898H3619.3V136.84H3587.76V2.69984ZM3622.72 56.8498C3624.49 56.8498 3625.95 56.6598 3627.09 56.2798C3628.23 55.7732 3629.05 54.9498 3629.56 53.8098C3629.94 53.0498 3630.19 51.8465 3630.32 50.1998C3630.44 48.4265 3630.51 45.7032 3630.51 42.0298C3630.51 38.3565 3630.44 35.6965 3630.32 34.0498C3630.19 32.2765 3629.94 31.0098 3629.56 30.2498C3629.05 29.1098 3628.23 28.3498 3627.09 27.9698C3625.95 27.4632 3624.49 27.2098 3622.72 27.2098H3619.3V56.8498H3622.72ZM3668.47 2.69984H3725.66V30.6298H3700.01V53.0498H3725.09V80.2198H3700.01V109.1H3725.66V136.84H3668.47V2.69984ZM3736.28 3.80273H3791.94C3798.68 3.80273 3803.97 5.03971 3807.81 7.51367C3811.7 9.92578 3814.39 13.513 3815.88 18.2754C3811.55 17.0384 3806.48 16.4199 3800.66 16.4199H3752.61V66.7031H3808.83C3811.49 66.7031 3814.27 66.3939 3817.18 65.7754V80.9902C3814.52 80.3717 3811.74 80.0625 3808.83 80.0625H3752.61V136.84H3736.28V3.80273ZM3817.18 29.501C3817.18 25.0479 3816.74 21.306 3815.88 18.2754C3821.94 19.9453 3826.61 22.7904 3829.89 26.8105C3833.23 30.7689 3834.9 35.9023 3834.9 42.2109C3834.9 48.334 3833.32 53.4365 3830.17 57.5186C3827.07 61.5387 3822.74 64.291 3817.18 65.7754V29.501ZM3817.18 80.9902C3822.68 82.2891 3826.92 84.9486 3829.89 88.9688C3832.86 92.9271 3834.34 98.2461 3834.34 104.926V136.654H3817.18V80.9902ZM3844.66 2.69984H3896.34V30.4398H3876.2V53.0498H3895.96V80.4098H3876.2V136.84H3844.66V2.69984ZM3903.48 2.69984H3960.67V30.6298H3935.02V53.0498H3960.1V80.2198H3935.02V109.1H3960.67V136.84H3903.48V2.69984ZM4009.27 139.31C4000.02 139.31 3992.17 137.473 3985.71 133.8C3979.25 130 3974.37 124.363 3971.08 116.89C3969.81 113.977 3968.86 110.873 3968.23 107.58C3967.6 104.16 3967.15 99.5998 3966.9 93.8998C3966.65 88.1998 3966.52 80.1565 3966.52 69.7698C3966.52 59.3832 3966.65 51.3398 3966.9 45.6398C3967.15 39.9398 3967.6 35.4432 3968.23 32.1498C3968.86 28.7298 3969.81 25.5632 3971.08 22.6498C3977.92 7.70317 3990.65 0.229836 4009.27 0.229836C4021.05 0.229836 4030.42 3.45984 4037.39 9.91984C4041.95 13.9732 4045.12 18.9132 4046.89 24.7398C4048.66 30.4398 4049.55 38.1032 4049.55 47.7298H4017.06C4017.06 43.2965 4016.93 39.9398 4016.68 37.6598C4016.55 35.3798 4016.3 33.7965 4015.92 32.9098C4015.54 31.8965 4014.97 31.0732 4014.21 30.4398C4013.45 29.6798 4012.63 29.1732 4011.74 28.9198C4010.85 28.5398 4009.71 28.3498 4008.32 28.3498C4006.42 28.3498 4004.77 28.7932 4003.38 29.6798C4002.11 30.5665 4001.16 31.8332 4000.53 33.4798C4000.15 34.6198 3999.83 36.0132 3999.58 37.6598C3999.33 39.3065 3999.14 42.8532 3999.01 48.2998C3999.01 53.7465 3999.01 60.9032 3999.01 69.7698C3999.01 78.5098 3999.01 85.6032 3999.01 91.0498C3999.14 96.4965 3999.26 100.107 3999.39 101.88C3999.64 103.653 3999.96 105.047 4000.34 106.06C4001.99 109.48 4004.71 111.19 4008.51 111.19C4010.92 111.19 4012.94 110.493 4014.59 109.1C4015.22 108.467 4015.67 107.77 4015.92 107.01C4016.3 106.123 4016.62 104.477 4016.87 102.07C4017.12 99.5365 4017.25 96.3698 4017.25 92.5698H4049.93C4049.8 101.183 4048.79 108.593 4046.89 114.8C4044.99 120.88 4042.01 125.82 4037.96 129.62C4030.87 136.08 4021.3 139.31 4009.27 139.31ZM4066.84 30.4398H4051.83V2.69984H4113.2V30.4398H4098.38V136.84H4066.84V30.4398ZM4153.49 3.80273H4200.8C4215.64 3.80273 4226.1 8.87435 4232.16 19.0176C4227.21 17.9043 4221.61 17.3477 4215.37 17.3477H4170.18V73.7539H4215.37C4222.23 73.7539 4228.08 73.0736 4232.9 71.7129C4227.58 82.5983 4217.25 88.041 4201.91 88.041H4170.18V136.84H4153.49V3.80273ZM4232.9 71.7129C4236.18 65.1569 4237.82 56.3434 4237.82 45.2725C4237.82 34.4489 4235.93 25.6973 4232.16 19.0176C4246.57 22.6667 4253.77 31.4183 4253.77 45.2725C4253.77 52.7562 4251.86 58.6009 4248.02 62.8066C4244.19 67.0124 4239.15 69.9811 4232.9 71.7129ZM4307.55 118.41H4283.99L4281.52 136.84H4249.79L4271.26 2.69984H4320.09L4341.56 136.84H4309.83L4307.55 118.41ZM4304.13 92.5698L4295.96 28.1598H4295.58L4287.22 92.5698H4304.13ZM4346.01 2.69984H4377.55V136.84H4346.01V2.69984ZM4389.52 3.80273H4445.18C4451.92 3.80273 4457.21 5.03971 4461.04 7.51367C4464.94 9.92578 4467.63 13.513 4469.12 18.2754C4464.79 17.0384 4459.71 16.4199 4453.9 16.4199H4405.84V66.7031H4462.06C4464.72 66.7031 4467.51 66.3939 4470.41 65.7754V80.9902C4467.75 80.3717 4464.97 80.0625 4462.06 80.0625H4405.84V136.84H4389.52V3.80273ZM4470.41 29.501C4470.41 25.0479 4469.98 21.306 4469.12 18.2754C4475.18 19.9453 4479.85 22.7904 4483.12 26.8105C4486.46 30.7689 4488.13 35.9023 4488.13 42.2109C4488.13 48.334 4486.56 53.4365 4483.4 57.5186C4480.31 61.5387 4475.98 64.291 4470.41 65.7754V29.501ZM4470.41 80.9902C4475.92 82.2891 4480.16 84.9486 4483.12 88.9688C4486.09 92.9271 4487.58 98.2461 4487.58 104.926V136.654H4470.41V80.9902Z" fill="#F7F3E8"/>
</svg>
