<svg width="858" height="292" viewBox="0 0 858 292" fill="none" xmlns="http://www.w3.org/2000/svg">
<path d="M5.56 2.85218H37.1V136.992H5.56V2.85218ZM46.0092 2.85218H74.1292L101.109 64.7922V2.85218H131.699V136.992H104.149L76.4092 73.7222V136.992H46.0092V2.85218ZM176.168 139.652C166.795 139.652 159.068 138.132 152.988 135.092C147.035 131.926 142.791 127.556 140.258 121.982C139.498 120.082 138.865 118.309 138.358 116.662C137.978 115.016 137.725 112.482 137.598 109.062C137.471 105.642 137.408 101.462 137.408 96.5222H170.658C170.658 101.082 170.658 104.312 170.658 106.212C170.785 108.112 170.975 109.442 171.228 110.202C172.241 112.482 174.078 113.622 176.738 113.622C179.398 113.622 181.108 112.609 181.868 110.582C181.995 110.076 182.058 109.189 182.058 107.922C182.185 106.529 182.248 104.376 182.248 101.462C182.248 98.2955 182.185 96.1422 182.058 95.0022C181.931 93.7355 181.615 92.4689 181.108 91.2022C180.221 89.1755 178.765 87.5922 176.738 86.4522C174.711 85.1855 171.861 83.7922 168.188 82.2722L162.868 79.8022C157.421 77.0155 152.988 74.2289 149.568 71.4422C146.148 68.6555 143.551 65.3622 141.778 61.5622C140.638 58.7755 139.815 55.7355 139.308 52.4422C138.928 49.0222 138.738 44.2722 138.738 38.1922C138.738 32.9988 138.928 29.0088 139.308 26.2222C139.688 23.3089 140.511 20.5222 141.778 17.8622C144.438 12.1622 148.681 7.79218 154.508 4.75218C160.335 1.71218 167.618 0.192182 176.358 0.192182C193.585 0.192182 204.858 5.82885 210.178 17.1022C211.065 19.0022 211.698 20.7755 212.078 22.4222C212.458 24.0688 212.711 26.6022 212.838 30.0222C212.965 33.3155 213.028 37.4955 213.028 42.5622H181.108C181.108 38.0022 181.045 34.7088 180.918 32.6822C180.791 30.6555 180.601 29.2622 180.348 28.5022C179.588 26.7288 178.005 25.8422 175.598 25.8422C173.065 25.8422 171.481 26.7922 170.848 28.6922C170.721 29.1988 170.595 30.0222 170.468 31.1622C170.468 32.1755 170.468 33.8855 170.468 36.2922C170.468 38.9522 170.531 40.9155 170.658 42.1822C170.785 43.3222 171.101 44.5255 171.608 45.7922C172.368 47.4389 173.635 48.8322 175.408 49.9722C177.308 50.9855 180.285 52.3789 184.338 54.1522L188.518 55.8622C195.105 58.9022 200.235 61.8155 203.908 64.6022C207.708 67.3888 210.495 70.8088 212.268 74.8622C213.535 77.9022 214.358 81.0689 214.738 84.3622C215.245 87.6555 215.498 92.5955 215.498 99.1822C215.498 105.136 215.245 109.632 214.738 112.672C214.358 115.712 213.535 118.689 212.268 121.602C209.608 127.429 205.175 131.926 198.968 135.092C192.761 138.132 185.161 139.652 176.168 139.652ZM222.506 3.95508H269.82C284.664 3.95508 295.117 9.02669 301.178 19.1699C296.23 18.0566 290.632 17.5 284.386 17.5H239.205V73.9062H284.386C291.251 73.9062 297.096 73.2259 301.92 71.8652C296.601 82.7507 286.272 88.1934 270.934 88.1934H239.205V136.992H222.506V3.95508ZM301.92 71.8652C305.198 65.3092 306.837 56.4958 306.837 45.4248C306.837 34.6012 304.951 25.8496 301.178 19.1699C315.589 22.819 322.794 31.5706 322.794 45.4248C322.794 52.9085 320.877 58.7533 317.042 62.959C313.207 67.1647 308.167 70.1335 301.92 71.8652ZM327.358 2.85218H358.898V136.992H327.358V2.85218ZM431.267 67.6422C435.067 69.2889 437.727 71.8222 439.247 75.2422C440.894 78.5355 441.717 82.8422 441.717 88.1622V136.992H410.177V88.7322C410.177 85.9455 409.607 83.9822 408.467 82.8422C407.327 81.5755 405.364 80.9422 402.577 80.9422H399.347V136.992H367.807V2.85218H412.077C419.55 2.85218 425.567 3.86551 430.127 5.89218C434.687 7.91885 437.98 11.2122 440.007 15.7722C441.147 18.1789 441.907 21.0288 442.287 24.3222C442.667 27.4888 442.857 32.4922 442.857 39.3322C442.857 45.6655 442.667 50.0355 442.287 52.4422C442.034 54.8488 441.464 57.0022 440.577 58.9022C438.93 62.8289 435.827 65.7422 431.267 67.6422ZM409.797 53.3922C410.05 52.5055 410.24 51.1755 410.367 49.4022C410.494 47.5022 410.557 44.5889 410.557 40.6622C410.557 37.4955 410.494 35.2155 410.367 33.8222C410.24 32.4288 410.05 31.2888 409.797 30.4022C409.164 29.2622 408.34 28.4388 407.327 27.9322C406.44 27.4255 405.174 27.1722 403.527 27.1722H399.347V56.4322H403.527C405.174 56.4322 406.44 56.1788 407.327 55.6722C408.34 55.1655 409.164 54.4055 409.797 53.3922ZM504.684 118.562H481.124L478.654 136.992H446.924L468.394 2.85218H517.224L538.694 136.992H506.964L504.684 118.562ZM501.264 92.7222L493.094 28.3122H492.714L484.354 92.7222H501.264ZM546.57 30.5922H531.56V2.85218H592.93V30.5922H578.11V136.992H546.57V30.5922ZM598.442 2.85218H629.982V136.992H598.442V2.85218ZM666.063 23.1592C674.042 8.87207 686.071 1.72852 702.152 1.72852C710.007 1.72852 716.779 3.55306 722.469 7.20215C728.221 10.7894 732.984 15.9229 736.756 22.6025C727.294 18.2731 715.759 16.1084 702.152 16.1084C688.545 16.1084 676.516 18.4587 666.063 23.1592ZM736.756 118.159C740.034 112.16 742.447 105.047 743.993 96.8213C745.601 88.5335 746.405 79.4417 746.405 69.5459C746.405 60.1449 745.601 51.4551 743.993 43.4766C742.447 35.498 740.034 28.54 736.756 22.6025C746.096 26.7464 753.27 32.7767 758.28 40.6934C763.29 48.61 765.795 58.2275 765.795 69.5459C765.795 81.4209 763.29 91.4714 758.28 99.6973C753.27 107.861 746.096 114.015 736.756 118.159ZM667.547 118.159C657.899 113.892 650.415 107.676 645.096 99.5117C639.839 91.2858 637.211 81.2972 637.211 69.5459C637.211 58.6605 639.715 49.2904 644.725 41.4355C649.797 33.5189 656.909 27.4268 666.063 23.1592C662.909 29.0967 660.528 35.9928 658.92 43.8477C657.373 51.7025 656.6 60.2686 656.6 69.5459C656.6 79.1943 657.528 88.1624 659.383 96.4502C661.239 104.738 663.96 111.974 667.547 118.159ZM702.152 139.312C694.606 139.312 687.927 137.487 682.113 133.838C676.299 130.127 671.444 124.901 667.547 118.159C677.196 122.489 688.731 124.653 702.152 124.653C715.759 124.653 727.294 122.489 736.756 118.159C733.107 124.963 728.376 130.189 722.562 133.838C716.81 137.487 710.007 139.312 702.152 139.312ZM771.334 2.85218H799.454L826.434 64.7922V2.85218H857.024V136.992H829.474L801.734 73.7222V136.992H771.334V2.85218ZM58.57 270.562H35.01L32.54 288.992H0.81L22.28 154.852H71.11L92.58 288.992H60.85L58.57 270.562ZM55.15 244.722L46.98 180.312H46.6L38.24 244.722H55.15ZM214.982 154.852L192.372 288.992H161.022L150.572 217.932L140.122 288.992H109.152L86.1616 154.852H116.752L126.252 228.382L135.752 154.852H165.582L175.082 229.142L184.392 154.852H214.982ZM266.197 270.562H242.637L240.167 288.992H208.437L229.907 154.852H278.737L300.207 288.992H268.477L266.197 270.562ZM262.777 244.722L254.607 180.312H254.227L245.867 244.722H262.777ZM305.033 154.852H336.573V288.992H305.033V154.852ZM356.882 182.592H341.872V154.852H403.242V182.592H388.422V288.992H356.882V182.592ZM424.518 171.727C426.435 166.346 429.868 162.016 434.816 158.738C439.826 155.398 446.073 153.729 453.556 153.729C468.091 153.729 477.554 159.666 481.945 171.541C473.533 168.51 463.885 166.995 453 166.995C441.434 166.995 431.94 168.572 424.518 171.727ZM484.171 196.126C484.419 192.786 484.543 190.436 484.543 189.075C484.543 182.396 483.677 176.551 481.945 171.541C488.254 173.891 493.232 177.169 496.881 181.375C500.531 185.519 502.448 190.436 502.633 196.126H484.171ZM486.862 272.479C487.975 269.386 488.532 266.015 488.532 262.366C488.532 256.738 487.573 252.007 485.656 248.172C483.8 244.337 481.017 241.09 477.306 238.431C473.657 235.771 468.864 233.297 462.926 231.009L437.228 221.175C428.013 217.588 420.962 213.629 416.076 209.3C411.19 204.97 408.747 199.682 408.747 193.436C408.747 188.364 410.107 184.004 412.829 180.354C415.55 176.705 419.447 173.829 424.518 171.727C423.529 174.572 423.034 177.509 423.034 180.54C423.034 185.364 423.9 189.384 425.631 192.601C427.425 195.755 430.115 198.476 433.703 200.765C437.352 203.053 442.331 205.434 448.639 207.908L474.337 217.928C483.429 221.577 490.449 225.937 495.397 231.009C500.345 236.019 502.819 241.987 502.819 248.914C502.819 254.171 501.458 258.81 498.737 262.83C496.077 266.788 492.119 270.005 486.862 272.479ZM426.837 273.406C412.55 268.335 405.314 258.841 405.129 244.925H423.59C423.343 246.842 423.219 249.625 423.219 253.274C423.219 261.438 424.425 268.149 426.837 273.406ZM456.803 291.312C449.629 291.312 443.506 289.796 438.434 286.766C433.363 283.673 429.497 279.22 426.837 273.406C435.125 276.313 445.516 277.767 458.009 277.767C469.823 277.767 479.44 276.004 486.862 272.479C484.883 278.169 481.326 282.745 476.193 286.209C471.059 289.611 464.596 291.312 456.803 291.312Z" fill="#182328"/>
</svg>
