<svg width="852" height="141" viewBox="0 0 852 141" fill="none" xmlns="http://www.w3.org/2000/svg">
<path d="M0.06 3.35999H31.6V137.5H0.06V3.35999ZM40.5092 3.35999H68.6292L95.6092 65.3V3.35999H126.199V137.5H98.6492L70.9092 74.23V137.5H40.5092V3.35999ZM170.668 140.16C161.295 140.16 153.568 138.64 147.488 135.6C141.535 132.433 137.291 128.063 134.758 122.49C133.998 120.59 133.365 118.817 132.858 117.17C132.478 115.523 132.225 112.99 132.098 109.57C131.971 106.15 131.908 101.97 131.908 97.03H165.158C165.158 101.59 165.158 104.82 165.158 106.72C165.285 108.62 165.475 109.95 165.728 110.71C166.741 112.99 168.578 114.13 171.238 114.13C173.898 114.13 175.608 113.117 176.368 111.09C176.495 110.583 176.558 109.697 176.558 108.43C176.685 107.037 176.748 104.883 176.748 101.97C176.748 98.8033 176.685 96.65 176.558 95.51C176.431 94.2433 176.115 92.9767 175.608 91.71C174.721 89.6833 173.265 88.1 171.238 86.96C169.211 85.6933 166.361 84.3 162.688 82.78L157.368 80.31C151.921 77.5233 147.488 74.7367 144.068 71.95C140.648 69.1633 138.051 65.87 136.278 62.07C135.138 59.2833 134.315 56.2433 133.808 52.95C133.428 49.53 133.238 44.78 133.238 38.7C133.238 33.5067 133.428 29.5167 133.808 26.73C134.188 23.8167 135.011 21.03 136.278 18.37C138.938 12.67 143.181 8.29999 149.008 5.25999C154.835 2.21999 162.118 0.699995 170.858 0.699995C188.085 0.699995 199.358 6.33666 204.678 17.61C205.565 19.51 206.198 21.2833 206.578 22.93C206.958 24.5767 207.211 27.11 207.338 30.53C207.465 33.8233 207.528 38.0033 207.528 43.07H175.608C175.608 38.51 175.545 35.2167 175.418 33.19C175.291 31.1633 175.101 29.77 174.848 29.01C174.088 27.2367 172.505 26.35 170.098 26.35C167.565 26.35 165.981 27.3 165.348 29.2C165.221 29.7067 165.095 30.53 164.968 31.67C164.968 32.6833 164.968 34.3933 164.968 36.8C164.968 39.46 165.031 41.4233 165.158 42.69C165.285 43.83 165.601 45.0333 166.108 46.3C166.868 47.9467 168.135 49.34 169.908 50.48C171.808 51.4933 174.785 52.8867 178.838 54.66L183.018 56.37C189.605 59.41 194.735 62.3233 198.408 65.11C202.208 67.8967 204.995 71.3167 206.768 75.37C208.035 78.41 208.858 81.5767 209.238 84.87C209.745 88.1633 209.998 93.1033 209.998 99.69C209.998 105.643 209.745 110.14 209.238 113.18C208.858 116.22 208.035 119.197 206.768 122.11C204.108 127.937 199.675 132.433 193.468 135.6C187.261 138.64 179.661 140.16 170.668 140.16ZM217.006 4.46289H264.32C279.164 4.46289 289.617 9.53451 295.678 19.6777C290.73 18.5645 285.132 18.0078 278.886 18.0078H233.705V74.4141H278.886C285.751 74.4141 291.596 73.7337 296.42 72.373C291.101 83.2585 280.772 88.7012 265.434 88.7012H233.705V137.5H217.006V4.46289ZM296.42 72.373C299.698 65.8171 301.337 57.0036 301.337 45.9326C301.337 35.109 299.451 26.3574 295.678 19.6777C310.089 23.3268 317.294 32.0785 317.294 45.9326C317.294 53.4163 315.377 59.2611 311.542 63.4668C307.707 67.6725 302.667 70.6413 296.42 72.373ZM321.858 3.35999H353.398V137.5H321.858V3.35999ZM425.767 68.15C429.567 69.7967 432.227 72.33 433.747 75.75C435.394 79.0433 436.217 83.35 436.217 88.67V137.5H404.677V89.24C404.677 86.4533 404.107 84.49 402.967 83.35C401.827 82.0833 399.864 81.45 397.077 81.45H393.847V137.5H362.307V3.35999H406.577C414.05 3.35999 420.067 4.37333 424.627 6.39999C429.187 8.42666 432.48 11.72 434.507 16.28C435.647 18.6867 436.407 21.5367 436.787 24.83C437.167 27.9967 437.357 33 437.357 39.84C437.357 46.1733 437.167 50.5433 436.787 52.95C436.534 55.3567 435.964 57.51 435.077 59.41C433.43 63.3367 430.327 66.25 425.767 68.15ZM404.297 53.9C404.55 53.0133 404.74 51.6833 404.867 49.91C404.994 48.01 405.057 45.0967 405.057 41.17C405.057 38.0033 404.994 35.7233 404.867 34.33C404.74 32.9367 404.55 31.7967 404.297 30.91C403.664 29.77 402.84 28.9467 401.827 28.44C400.94 27.9333 399.674 27.68 398.027 27.68H393.847V56.94H398.027C399.674 56.94 400.94 56.6867 401.827 56.18C402.84 55.6733 403.664 54.9133 404.297 53.9ZM499.184 119.07H475.624L473.154 137.5H441.424L462.894 3.35999H511.724L533.194 137.5H501.464L499.184 119.07ZM495.764 93.23L487.594 28.82H487.214L478.854 93.23H495.764ZM541.07 31.1H526.06V3.35999H587.43V31.1H572.61V137.5H541.07V31.1ZM592.942 3.35999H624.482V137.5H592.942V3.35999ZM660.563 23.667C668.542 9.37988 680.571 2.23633 696.652 2.23633C704.507 2.23633 711.279 4.06087 716.969 7.70996C722.721 11.2972 727.484 16.4307 731.256 23.1104C721.794 18.7809 710.259 16.6162 696.652 16.6162C683.045 16.6162 671.016 18.9665 660.563 23.667ZM731.256 118.667C734.534 112.668 736.947 105.555 738.493 97.3291C740.101 89.0413 740.905 79.9495 740.905 70.0537C740.905 60.6527 740.101 51.9629 738.493 43.9844C736.947 36.0059 734.534 29.0479 731.256 23.1104C740.596 27.2542 747.77 33.2845 752.78 41.2012C757.79 49.1178 760.295 58.7354 760.295 70.0537C760.295 81.9287 757.79 91.9792 752.78 100.205C747.77 108.369 740.596 114.523 731.256 118.667ZM662.047 118.667C652.399 114.399 644.915 108.184 639.596 100.02C634.339 91.7936 631.711 81.805 631.711 70.0537C631.711 59.1683 634.215 49.7982 639.225 41.9434C644.297 34.0267 651.409 27.9346 660.563 23.667C657.409 29.6045 655.028 36.5007 653.42 44.3555C651.873 52.2103 651.1 60.7764 651.1 70.0537C651.1 79.7021 652.028 88.6702 653.883 96.958C655.739 105.246 658.46 112.482 662.047 118.667ZM696.652 139.819C689.106 139.819 682.427 137.995 676.613 134.346C670.799 130.635 665.944 125.409 662.047 118.667C671.696 122.996 683.231 125.161 696.652 125.161C710.259 125.161 721.794 122.996 731.256 118.667C727.607 125.47 722.876 130.697 717.062 134.346C711.31 137.995 704.507 139.819 696.652 139.819ZM765.834 3.35999H793.954L820.934 65.3V3.35999H851.524V137.5H823.974L796.234 74.23V137.5H765.834V3.35999Z" fill="#182328"/>
</svg>
