<svg width="24" height="24" viewBox="0 0 24 24" fill="none" xmlns="http://www.w3.org/2000/svg">
<g opacity="0.5">
<path d="M12.0332 16.7793L15.8472 12.9653C16.3379 13.456 16.3379 14.2515 15.8472 14.7422L12.9217 17.6677L12.0332 16.7793Z" fill="#182328"/>
<path d="M15.7227 11.873C16.2657 11.9828 16.5701 11.9899 17.1131 11.873C16.9744 12.3824 16.9747 12.6868 17.1131 13.2635C16.5701 13.1539 16.2657 13.1444 15.7227 13.2635C15.8627 12.7165 15.8725 12.3995 15.7227 11.873Z" fill="#182328"/>
<path d="M6.68555 11.873L14.3329 11.873C14.1452 12.4198 14.1573 12.7173 14.3329 13.2635L6.68555 13.2635L6.68555 11.873Z" fill="#182328"/>
<path d="M12.0332 7.89453L12.9217 7.00608L15.8472 9.93165C16.3379 10.4223 16.3379 11.2179 15.8472 11.7085L12.0332 7.89453Z" fill="#182328"/>
<path fill-rule="evenodd" clip-rule="evenodd" d="M12 22.2928C6.31546 22.2928 1.70721 17.6846 1.70721 12C1.70721 6.31543 6.31546 1.70717 12 1.70717C17.6846 1.70717 22.2928 6.31543 22.2928 12C22.2928 17.6846 17.6846 22.2928 12 22.2928ZM12 24C5.37261 24 3.62396e-05 18.6274 3.62396e-05 12C3.62396e-05 5.37258 5.37261 0 12 0C18.6274 0 24 5.37258 24 12C24 18.6274 18.6274 24 12 24Z" fill="#182328"/>
</g>
</svg>
