<svg width="24" height="24" viewBox="0 0 24 24" fill="none" xmlns="http://www.w3.org/2000/svg">
<path d="M23.2813 11.9998C23.2813 18.2302 18.2305 23.2809 12 23.2809C5.76953 23.2809 0.718746 18.2302 0.718746 11.9998C0.718746 5.76947 5.76953 0.718746 12 0.718746C18.2305 0.718746 23.2813 5.76947 23.2813 11.9998Z" stroke="#F7F3E8" stroke-width="1.43749"/>
<path d="M10.8426 16.9609L13.7192 14.0844C13.7117 14.3263 13.6156 14.566 13.4309 14.7507L11.0316 17.1499L10.8426 16.9609Z" fill="#FE7B32" stroke="#F7F3E8" stroke-width="1.43749"/>
<path d="M14.7915 11.9877C14.7915 11.9797 14.7915 11.9716 14.7915 11.9636C14.7937 11.9636 14.7959 11.9636 14.7981 11.9636C14.7981 11.9829 14.7983 12.0022 14.7987 12.0215C14.7962 12.0215 14.7936 12.0215 14.7911 12.0215C14.7913 12.0103 14.7914 11.999 14.7915 11.9877Z" fill="#FE7B32" stroke="#F7F3E8" stroke-width="1.43749"/>
<path d="M10.8426 7.03125L11.0316 6.84226L13.4309 9.24149C13.6156 9.42616 13.7117 9.66585 13.7192 9.90778L10.8426 7.03125Z" fill="#FE7B32" stroke="#F7F3E8" stroke-width="1.43749"/>
</svg>
