<svg width="24" height="24" viewBox="0 0 24 24" fill="none" xmlns="http://www.w3.org/2000/svg">
    <path
        d="M23.2816 12C23.2816 18.2305 18.2307 23.2813 12.0002 23.2813C5.7696 23.2813 0.718746 18.2305 0.718746 12C0.718746 5.76954 5.7696 0.718746 12.0002 0.718746C18.2307 0.718746 23.2816 5.76954 23.2816 12Z"
        stroke="#FE7B32" strokeWidth="1.43749" />
    <path
        d="M9.82715 16.9609L13.9402 12.848C14.6059 13.5137 14.6059 14.5931 13.9402 15.2589L11.0326 18.1664L9.82715 16.9609Z"
        fill="#FE7B32" />
    <path
        d="M13.9404 11.1406C14.6062 11.2753 14.9794 11.2838 15.6452 11.1406C15.4753 11.7651 15.4756 12.1383 15.6452 12.8454C14.9794 12.7111 14.6062 12.6994 13.9404 12.8454C14.1121 12.1748 14.1242 11.7861 13.9404 11.1406Z"
        fill="#FE7B32" />
    <path
        d="M9.82715 7.03125L11.0326 5.82579L13.9402 8.73329C14.6059 9.39904 14.6059 10.4784 13.9402 11.1442L9.82715 7.03125Z"
        fill="#FE7B32" />
</svg>
