<svg
    xmlns="http://www.w3.org/2000/svg"
    width="23"
    height="23"
    viewBox="0 0 23 23"
    fill="none"
>
    <rect
        x="15"
        y="6"
        width="2"
        height="12"
        rx="1"
        transform="rotate(45 15 6)"
        fill="#182328"
    />
    <path
        d="M14.1924 18.1924C13.8019 17.8019 13.1687 17.8019 12.7782 18.1924L12.2426 18.7279C9.89949 21.0711 6.1005 21.0711 3.75736 18.7279C1.41421 16.3848 1.41421 12.5858 3.75736 10.2426L4.29289 9.70711C4.68342 9.31658 4.68342 8.68342 4.29289 8.29289C3.90237 7.90237 3.2692 7.90237 2.87868 8.29289L2.34315 8.82843C-0.781049 11.9526 -0.781049 17.0179 2.34315 20.1421C5.46734 23.2663 10.5327 23.2663 13.6569 20.1421L14.1924 19.6066C14.5829 19.2161 14.5829 18.5829 14.1924 18.1924Z"
        fill="#182328"
    />
    <path
        d="M7.94975 4.63604C8.34027 5.02656 8.97344 5.02656 9.36396 4.63604L10.2426 3.75736C12.5858 1.41421 16.3848 1.41421 18.7279 3.75736C21.0711 6.1005 21.0711 9.8995 18.7279 12.2426L17.8492 13.1213C17.4587 13.5118 17.4587 14.145 17.8492 14.5355C18.2398 14.9261 18.8729 14.9261 19.2635 14.5355L20.1421 13.6569C23.2663 10.5327 23.2663 5.46734 20.1421 2.34315C17.0179 -0.781048 11.9526 -0.781049 8.82843 2.34315L7.94975 3.22183C7.55922 3.61235 7.55922 4.24551 7.94975 4.63604Z"
        fill="#182328"
    />
</svg>
