<svg width="42" height="42" viewBox="0 0 42 42" fill="none" xmlns="http://www.w3.org/2000/svg">
<path d="M5.93793 18.8916L18.2189 18.8916C18.2189 21.1163 16.4154 22.9198 14.1907 22.9198L5.93793 22.9198L5.93793 18.8916Z" fill="white"/>
<path d="M23.0584 22.8613C21.4853 22.5432 20.6034 22.5229 19.0302 22.8613C19.4318 21.3857 19.4311 20.5039 19.0302 18.8331C20.6034 19.1504 21.4852 19.1781 23.0584 18.8331C22.6528 20.4177 22.6243 21.3361 23.0584 22.8613Z" fill="white"/>
<path d="M22.8853 35.8379L22.8852 23.5569C20.6605 23.5569 18.857 25.3604 18.857 27.5851L18.857 35.8379L22.8853 35.8379Z" fill="white"/>
<path d="M18.9859 5.84277L23.0141 5.84278L23.0141 14.0955C23.0141 16.3203 21.2106 18.1238 18.9859 18.1237L18.9859 5.84277Z" fill="white"/>
<path d="M35.932 22.791L35.932 18.7628L27.6792 18.7628C25.4545 18.7628 23.651 20.5663 23.651 22.791L35.932 22.791Z" fill="white"/>
</svg>
