<svg xmlns="http://www.w3.org/2000/svg" width="11" height="9" viewBox="0 0 11 9" fill="none">
    <path
        d="M8.61096 6.02198C8.23387 6.02229 7.87194 6.17051 7.60295 6.43478L3.81091 4.74516C3.81091 4.68756 3.81091 4.63956 3.81091 4.58196C3.81091 4.52436 3.81091 4.47636 3.81091 4.42356L7.60295 2.72914C7.84047 2.96195 8.15125 3.10537 8.48251 3.13504C8.81377 3.16471 9.14509 3.07879 9.42019 2.89189C9.6953 2.70499 9.89723 2.42863 9.99168 2.10973C10.0861 1.79084 10.0673 1.44909 9.93837 1.14251C9.80943 0.835929 9.57835 0.583433 9.28437 0.427902C8.99039 0.272371 8.65164 0.223396 8.32564 0.289294C7.99965 0.355192 7.70652 0.5319 7.49603 0.789406C7.28554 1.04691 7.17068 1.36934 7.17095 1.70193V1.86513L3.3789 3.55475C3.17651 3.35591 2.9199 3.22129 2.64126 3.16778C2.36263 3.11428 2.0744 3.14427 1.81276 3.25401C1.55111 3.36374 1.32771 3.54832 1.17061 3.78458C1.0135 4.02084 0.929688 4.29824 0.929688 4.58196C0.929688 4.86568 1.0135 5.14309 1.17061 5.37934C1.32771 5.6156 1.55111 5.80018 1.81276 5.90991C2.0744 6.01965 2.36263 6.04964 2.64126 5.99614C2.9199 5.94264 3.17651 5.80801 3.3789 5.60917L7.17095 7.30359V7.46199C7.17095 7.7468 7.2554 8.02521 7.41363 8.26202C7.57186 8.49883 7.79676 8.6834 8.05989 8.7924C8.32302 8.90139 8.61256 8.9299 8.8919 8.87434C9.17123 8.81878 9.42782 8.68163 9.62921 8.48024C9.8306 8.27885 9.96775 8.02226 10.0233 7.74293C10.0789 7.46359 10.0504 7.17405 9.94137 6.91092C9.83237 6.64779 9.6478 6.42289 9.41099 6.26466C9.17418 6.10643 8.89577 6.02198 8.61096 6.02198ZM8.61096 1.22192C8.7059 1.22192 8.7987 1.25007 8.87764 1.30282C8.95658 1.35556 9.0181 1.43053 9.05443 1.51824C9.09076 1.60595 9.10027 1.70246 9.08175 1.79557C9.06322 1.88868 9.01751 1.97421 8.95038 2.04134C8.88325 2.10847 8.79772 2.15419 8.70461 2.17271C8.6115 2.19123 8.51498 2.18172 8.42727 2.14539C8.33956 2.10906 8.2646 2.04754 8.21185 1.9686C8.15911 1.88967 8.13096 1.79686 8.13096 1.70193C8.13096 1.57462 8.18153 1.45253 8.27155 1.36251C8.36157 1.27249 8.48366 1.22192 8.61096 1.22192ZM2.37089 5.06197C2.27596 5.06197 2.18315 5.03381 2.10422 4.98107C2.02528 4.92833 1.96376 4.85336 1.92742 4.76565C1.89109 4.67794 1.88159 4.58143 1.90011 4.48832C1.91863 4.3952 1.96435 4.30968 2.03148 4.24255C2.09861 4.17542 2.18414 4.1297 2.27725 4.11118C2.37036 4.09266 2.46687 4.10216 2.55458 4.13849C2.64229 4.17482 2.71726 4.23635 2.77 4.31528C2.82275 4.39422 2.8509 4.48702 2.8509 4.58196C2.8509 4.70927 2.80033 4.83136 2.71031 4.92138C2.62029 5.01139 2.4982 5.06197 2.37089 5.06197ZM8.61096 7.942C8.51603 7.942 8.42322 7.91385 8.34429 7.8611C8.26535 7.80836 8.20383 7.73339 8.1675 7.64568C8.13117 7.55797 8.12166 7.46146 8.14018 7.36835C8.1587 7.27524 8.20442 7.18971 8.27155 7.12258C8.33868 7.05545 8.42421 7.00973 8.51732 6.99121C8.61043 6.97269 8.70694 6.9822 8.79465 7.01853C8.88236 7.05486 8.95733 7.11638 9.01007 7.19532C9.06282 7.27425 9.09097 7.36706 9.09097 7.46199C9.09097 7.5893 9.0404 7.71139 8.95038 7.80141C8.86036 7.89143 8.73827 7.942 8.61096 7.942Z"
        fill="white" />
</svg>
