<svg xmlns="http://www.w3.org/2000/svg" width="60" height="60" viewBox="0 0 60 60" fill="none">
    <rect x="19.5" y="26.5" width="14" height="14" rx="1" stroke="#F7F3E8" stroke-width="2" />
    <rect x="19.5" y="26.5" width="14" height="14" rx="1" stroke="#F7F3E8" stroke-width="2" />
    <path
        d="M27.5 20.5H39.5V32.5H37.5C36.9477 32.5 36.5 32.9477 36.5 33.5C36.5 34.0523 36.9477 34.5 37.5 34.5H39.5C40.6046 34.5 41.5 33.6046 41.5 32.5V20.5C41.5 19.3954 40.6046 18.5 39.5 18.5H27.5C26.3954 18.5 25.5 19.3954 25.5 20.5V22.4023C25.5 22.9546 25.9477 23.4023 26.5 23.4023C27.0523 23.4023 27.5 22.9546 27.5 22.4023V20.5Z"
        fill="#F7F3E8" />
</svg>
