<svg width="1022" height="460" viewBox="0 0 1022 460" fill="none" xmlns="http://www.w3.org/2000/svg">
<path d="M67.7 220.2C53.3 220.2 41 217.2 30.8 211.2C20.8 205.2 13.2 196.5 8 185.1C6 180.5 4.4 175.5 3.2 170.1C2.2 164.7 1.5 157.5 1.1 148.5C0.7 139.3 0.5 126.5 0.5 110.1C0.5 93.7 0.7 81 1.1 72C1.5 62.8 2.2 55.5 3.2 50.1C4.4 44.7 6 39.7 8 35.1C13.2 23.7 20.8 15 30.8 8.99998C41 2.99999 53.3 -8.58307e-06 67.7 -8.58307e-06C82.3 -8.58307e-06 94.6 2.99999 104.6 8.99998C114.8 15 122.5 23.7 127.7 35.1C129.7 39.7 131.2 44.7 132.2 50.1C133.4 55.5 134.2 62.8 134.6 72C135 81 135.2 93.7 135.2 110.1C135.2 126.5 135 139.3 134.6 148.5C134.2 157.5 133.4 164.7 132.2 170.1C131.2 175.5 129.7 180.5 127.7 185.1C122.5 196.5 114.8 205.2 104.6 211.2C94.6 217.2 82.3 220.2 67.7 220.2ZM67.7 175.5C71.3 175.5 74.2 174.7 76.4 173.1C78.6 171.5 80.3 169.2 81.5 166.2C82.1 164.6 82.6 162.5 83 159.9C83.4 157.1 83.6 151.5 83.6 143.1C83.8 134.7 83.9 123.7 83.9 110.1C83.9 96.5 83.8 85.5 83.6 77.1C83.6 68.5 83.4 62.9 83 60.3C82.8 57.7 82.4 55.6 81.8 54C79.4 47.8 74.7 44.7 67.7 44.7C60.9 44.7 56.3 47.8 53.9 54C53.3 55.6 52.8 57.7 52.4 60.3C52.2 62.9 52 68.5 51.8 77.1C51.8 85.5 51.8 96.5 51.8 110.1C51.8 123.7 51.8 134.7 51.8 143.1C52 151.5 52.2 157.1 52.4 159.9C52.8 162.5 53.3 164.6 53.9 166.2C55.3 169.2 57.1 171.5 59.3 173.1C61.5 174.7 64.3 175.5 67.7 175.5ZM148.578 5.94141H236.469C247.113 5.94141 255.463 7.89453 261.518 11.8008C267.67 15.6094 271.918 21.2734 274.262 28.793C267.426 26.8398 259.418 25.8633 250.238 25.8633H174.359V105.258H263.129C267.328 105.258 271.723 104.77 276.312 103.793V127.816C272.113 126.84 267.719 126.352 263.129 126.352H174.359V216H148.578V5.94141ZM276.312 46.5176C276.312 39.4863 275.629 33.5781 274.262 28.793C283.832 31.4297 291.205 35.9219 296.381 42.2695C301.654 48.5195 304.291 56.625 304.291 66.5859C304.291 76.2539 301.801 84.3105 296.82 90.7559C291.938 97.1035 285.102 101.449 276.312 103.793V46.5176ZM276.312 127.816C285.004 129.867 291.693 134.066 296.381 140.414C301.068 146.664 303.412 155.062 303.412 165.609V215.707H276.312V127.816ZM316.7 4.19999H366.5V216H316.7V4.19999ZM509.567 103.2V119.4C509.567 133.6 509.367 144.7 508.967 152.7C508.567 160.7 507.867 167.2 506.867 172.2C505.867 177 504.367 181.7 502.367 186.3C497.167 197.5 489.867 205.9 480.467 211.5C471.067 217.1 459.267 219.9 445.067 219.9C430.267 219.9 417.867 216.9 407.867 210.9C397.867 204.9 390.267 196.1 385.067 184.5C383.067 179.9 381.567 175 380.567 169.8C379.567 164.4 378.867 157.2 378.467 148.2C378.067 139.2 377.867 126.5 377.867 110.1C377.867 93.7 378.067 81 378.467 72C378.867 63 379.567 55.9 380.567 50.7C381.567 45.3 383.067 40.3 385.067 35.7C390.267 24.1 397.867 15.3 407.867 9.3C417.867 3.29999 430.267 0.299988 445.067 0.299988C464.067 0.299988 479.067 5.39999 490.067 15.6C496.867 21.8 501.567 29.3 504.167 38.1C506.967 46.7 508.567 58.3 508.967 72.9H458.567C458.567 67.1 458.367 62.3 457.967 58.5C457.567 54.7 457.067 52.2 456.467 51C456.067 49.6 455.367 48.4 454.367 47.4C452.167 45.2 448.867 44.1 444.467 44.1C438.067 44.1 433.767 46.9 431.567 52.5C430.967 54.3 430.467 56.6 430.067 59.4C429.667 62 429.367 67.6 429.167 76.2C429.167 84.8 429.167 96.1 429.167 110.1C429.167 124.1 429.167 135.4 429.167 144C429.367 152.6 429.667 158.3 430.067 161.1C430.467 163.7 430.967 165.9 431.567 167.7C433.767 173.3 438.567 176.1 445.967 176.1C452.567 176.1 456.867 173.6 458.867 168.6C459.467 167 459.867 164.7 460.067 161.7C460.267 158.5 460.367 152.1 460.367 142.5H443.867V103.2H509.567ZM521.192 4.19999H570.992V216H521.192V4.19999ZM585.059 4.19999H629.459L672.059 102V4.19999H720.359V216H676.859L633.059 116.1V216H585.059V4.19999ZM818.173 186.9H780.973L777.073 216H726.973L760.873 4.19999H837.973L871.873 216H821.773L818.173 186.9ZM812.773 146.1L799.873 44.4H799.273L786.073 146.1H812.773ZM880.73 5.94141H905.926V194.76H1021.65V216H880.73V5.94141ZM3.2 244.2H53V456H3.2V244.2ZM67.0672 244.2H126.767L151.667 346.2L176.567 244.2H236.267V456H188.867V346.5L164.867 456H138.467L114.467 346.5V456H67.0672V244.2ZM334.459 426.9H297.259L293.359 456H243.259L277.159 244.2H354.259L388.159 456H338.059L334.459 426.9ZM329.059 386.1L316.159 284.4H315.559L302.359 386.1H329.059ZM432.096 275.092C437.955 264.545 445.279 256.488 454.068 250.922C462.955 245.258 473.209 242.426 484.83 242.426C508.268 242.426 524.869 252.729 534.635 273.334C527.311 270.502 519.254 268.402 510.465 267.035C501.773 265.57 492.838 264.838 483.658 264.838C474.381 264.838 465.348 265.717 456.559 267.475C447.77 269.135 439.615 271.674 432.096 275.092ZM543.717 311.713C542.74 296.869 539.713 284.076 534.635 273.334C544.693 277.24 552.994 282.416 559.537 288.861C566.178 295.209 570.475 302.826 572.428 311.713H543.717ZM433.561 426.85C418.717 420.307 407.145 410.688 398.844 397.992C390.641 385.199 386.539 369.428 386.539 350.678C386.539 332.025 390.592 316.449 398.697 303.949C406.803 291.352 417.936 281.732 432.096 275.092C422.135 293.939 417.154 319.135 417.154 350.678C417.154 364.74 418.473 378.461 421.109 391.84C423.844 405.219 427.994 416.889 433.561 426.85ZM539.469 426.557C545.328 414.838 548.258 400.971 548.258 384.955V366.645H486.734V348.041H574.039V373.529C574.039 385.541 571.158 396.088 565.396 405.17C559.635 414.154 550.992 421.283 539.469 426.557ZM485.123 459.662C473.6 459.662 463.541 456.781 454.947 451.02C446.451 445.258 439.322 437.201 433.561 426.85C448.014 433.295 465.006 436.518 484.537 436.518C506.607 436.518 524.918 433.197 539.469 426.557C534.684 436.908 527.701 445.014 518.521 450.873C509.342 456.732 498.209 459.662 485.123 459.662ZM585.786 244.2H676.086V288.3H635.586V323.7H675.186V366.6H635.586V412.2H676.086V456H585.786V244.2Z" fill="#182328"/>
</svg>
