<svg width="1139" height="140" viewBox="0 0 1139 140" fill="none"
    xmlns="http://www.w3.org/2000/svg">
    <path d="M19.9248 19.7344C21.8421 14.3535 25.2747 10.0241 30.2227 6.74609C35.2324 3.40625 41.4792 1.73633 48.9629 1.73633C63.4974 1.73633 72.9603 7.67383 77.3516 19.5488C68.9401 16.5182 59.2917 15.0029 48.4062 15.0029C36.8405 15.0029 27.3467 16.5801 19.9248 19.7344ZM79.5781 44.1338C79.8255 40.7939 79.9492 38.4437 79.9492 37.083C79.9492 30.4033 79.0833 24.5586 77.3516 19.5488C83.6602 21.8991 88.639 25.1771 92.2881 29.3828C95.9372 33.5267 97.8545 38.4437 98.04 44.1338H79.5781ZM82.2686 120.486C83.3818 117.394 83.9385 114.023 83.9385 110.374C83.9385 104.746 82.9798 100.014 81.0625 96.1797C79.207 92.3451 76.4238 89.098 72.7129 86.4385C69.0638 83.779 64.2705 81.305 58.333 79.0166L32.6348 69.1826C23.4193 65.5954 16.3685 61.637 11.4824 57.3076C6.59635 52.9782 4.15332 47.6901 4.15332 41.4434C4.15332 36.3717 5.514 32.0114 8.23535 28.3623C10.9567 24.7132 14.8532 21.8372 19.9248 19.7344C18.9352 22.5794 18.4404 25.5173 18.4404 28.5479C18.4404 33.3721 19.3063 37.3923 21.0381 40.6084C22.8317 43.7627 25.5221 46.484 29.1094 48.7725C32.7585 51.0609 37.7373 53.4421 44.0459 55.916L69.7441 65.9355C78.8359 69.5846 85.8558 73.945 90.8037 79.0166C95.7516 84.0264 98.2256 89.9948 98.2256 96.9219C98.2256 102.179 96.8649 106.818 94.1436 110.838C91.484 114.796 87.5257 118.012 82.2686 120.486ZM22.2441 121.414C7.95703 116.342 0.720703 106.849 0.535156 92.9326H18.9971C18.7497 94.8499 18.626 97.6331 18.626 101.282C18.626 109.446 19.832 116.157 22.2441 121.414ZM52.21 139.319C45.0355 139.319 38.9124 137.804 33.8408 134.773C28.7692 131.681 24.9036 127.228 22.2441 121.414C30.5319 124.321 40.9225 125.774 53.416 125.774C65.2292 125.774 74.8467 124.012 82.2686 120.486C80.2894 126.176 76.7331 130.753 71.5996 134.217C66.4661 137.618 60.0029 139.319 52.21 139.319ZM104.741 2.85999H132.861L159.841 64.8V2.85999H190.431V137H162.881L135.141 73.73V137H104.741V2.85999ZM199.37 2.85999H256.56V30.79H230.91V53.21H255.99V80.38H230.91V109.26H256.56V137H199.37V2.85999ZM317.136 118.57H293.576L291.106 137H259.376L280.846 2.85999H329.676L351.146 137H319.416L317.136 118.57ZM313.716 92.73L305.546 28.32H305.166L296.806 92.73H313.716ZM356.755 3.96289H372.898V61.7607H385.237C388.762 61.7607 391.298 61.637 392.844 61.3896C392.721 62.7503 392.659 65.1006 392.659 68.4404C392.659 70.7907 392.844 73.1719 393.215 75.584C391.422 75.3366 388.762 75.2129 385.237 75.2129H372.898V137H356.755V3.96289ZM392.844 61.3896C393.339 55.5758 394.762 50.2568 397.112 45.4326C399.524 40.5465 403.73 34.9801 409.729 28.7334L433.294 3.96289H453.611V4.33398L412.976 48.4941C409.08 52.7617 405.585 55.8542 402.493 57.7715C399.4 59.6888 396.184 60.8949 392.844 61.3896ZM416.594 112.693C409.544 105.581 404.132 99.1175 400.359 93.3037C396.648 87.4899 394.267 81.5833 393.215 75.584C397.112 76.0169 400.792 77.1302 404.255 78.9238C407.781 80.6556 411.399 83.4697 415.11 87.3662L462.424 136.629V137H440.901L416.594 112.693ZM463.181 2.85999H520.371V30.79H494.721V53.21H519.801V80.38H494.721V109.26H520.371V137H463.181V2.85999ZM591.397 67.65C595.197 69.2967 597.857 71.83 599.377 75.25C601.023 78.5433 601.847 82.85 601.847 88.17V137H570.307V88.74C570.307 85.9533 569.737 83.99 568.597 82.85C567.457 81.5833 565.493 80.95 562.707 80.95H559.477V137H527.937V2.85999H572.207C579.68 2.85999 585.697 3.87333 590.257 5.89999C594.817 7.92666 598.11 11.22 600.137 15.78C601.277 18.1867 602.037 21.0367 602.417 24.33C602.797 27.4967 602.987 32.5 602.987 39.34C602.987 45.6733 602.797 50.0433 602.417 52.45C602.163 54.8567 601.593 57.01 600.707 58.91C599.06 62.8367 595.957 65.75 591.397 67.65ZM569.927 53.4C570.18 52.5133 570.37 51.1833 570.497 49.41C570.623 47.51 570.687 44.5967 570.687 40.67C570.687 37.5033 570.623 35.2233 570.497 33.83C570.37 32.4367 570.18 31.2967 569.927 30.41C569.293 29.27 568.47 28.4467 567.457 27.94C566.57 27.4333 565.303 27.18 563.657 27.18H559.477V56.44H563.657C565.303 56.44 566.57 56.1867 567.457 55.68C568.47 55.1733 569.293 54.4133 569.927 53.4ZM699.765 139.47C690.518 139.47 682.665 137.633 676.205 133.96C669.745 130.16 664.868 124.523 661.575 117.05C660.308 114.137 659.358 111.033 658.725 107.74C658.092 104.32 657.648 99.76 657.395 94.06C657.142 88.36 657.015 80.3167 657.015 69.93C657.015 59.5433 657.142 51.5 657.395 45.8C657.648 40.1 658.092 35.6033 658.725 32.31C659.358 28.89 660.308 25.7233 661.575 22.81C668.415 7.86333 681.145 0.389992 699.765 0.389992C711.545 0.389992 720.918 3.61999 727.885 10.08C732.445 14.1333 735.612 19.0733 737.385 24.9C739.158 30.6 740.045 38.2633 740.045 47.89H707.555C707.555 43.4567 707.428 40.1 707.175 37.82C707.048 35.54 706.795 33.9567 706.415 33.07C706.035 32.0567 705.465 31.2333 704.705 30.6C703.945 29.84 703.122 29.3333 702.235 29.08C701.348 28.7 700.208 28.51 698.815 28.51C696.915 28.51 695.268 28.9533 693.875 29.84C692.608 30.7267 691.658 31.9933 691.025 33.64C690.645 34.78 690.328 36.1733 690.075 37.82C689.822 39.4667 689.632 43.0133 689.505 48.46C689.505 53.9067 689.505 61.0633 689.505 69.93C689.505 78.67 689.505 85.7633 689.505 91.21C689.632 96.6567 689.758 100.267 689.885 102.04C690.138 103.813 690.455 105.207 690.835 106.22C692.482 109.64 695.205 111.35 699.005 111.35C701.412 111.35 703.438 110.653 705.085 109.26C705.718 108.627 706.162 107.93 706.415 107.17C706.795 106.283 707.112 104.637 707.365 102.23C707.618 99.6967 707.745 96.53 707.745 92.73H740.425C740.298 101.343 739.285 108.753 737.385 114.96C735.485 121.04 732.508 125.98 728.455 129.78C721.362 136.24 711.798 139.47 699.765 139.47ZM747.045 2.85999H778.585V108.5H795.495V137H747.045V2.85999ZM826.312 23.167C834.29 8.87988 846.32 1.73633 862.4 1.73633C870.255 1.73633 877.028 3.56087 882.718 7.20996C888.47 10.7972 893.232 15.9307 897.005 22.6104C887.542 18.2809 876.007 16.1162 862.4 16.1162C848.794 16.1162 836.764 18.4665 826.312 23.167ZM897.005 118.167C900.283 112.168 902.695 105.055 904.241 96.8291C905.849 88.5413 906.653 79.4495 906.653 69.5537C906.653 60.1527 905.849 51.4629 904.241 43.4844C902.695 35.5059 900.283 28.5479 897.005 22.6104C906.344 26.7542 913.519 32.7845 918.528 40.7012C923.538 48.6178 926.043 58.2354 926.043 69.5537C926.043 81.4287 923.538 91.4792 918.528 99.7051C913.519 107.869 906.344 114.023 897.005 118.167ZM827.796 118.167C818.147 113.899 810.664 107.684 805.345 99.5195C800.088 91.2936 797.459 81.305 797.459 69.5537C797.459 58.6683 799.964 49.2982 804.974 41.4434C810.045 33.5267 817.158 27.4346 826.312 23.167C823.157 29.1045 820.776 36.0007 819.168 43.8555C817.622 51.7103 816.849 60.2764 816.849 69.5537C816.849 79.2021 817.776 88.1702 819.632 96.458C821.487 104.746 824.209 111.982 827.796 118.167ZM862.4 139.319C854.855 139.319 848.175 137.495 842.361 133.846C836.548 130.135 831.692 124.909 827.796 118.167C837.444 122.496 848.979 124.661 862.4 124.661C876.007 124.661 887.542 122.496 897.005 118.167C893.356 124.97 888.624 130.197 882.811 133.846C877.059 137.495 870.255 139.319 862.4 139.319ZM970.913 139.66C961.539 139.66 953.813 138.14 947.733 135.1C941.779 131.933 937.536 127.563 935.003 121.99C934.243 120.09 933.609 118.317 933.103 116.67C932.723 115.023 932.469 112.49 932.343 109.07C932.216 105.65 932.153 101.47 932.153 96.53H965.403C965.403 101.09 965.403 104.32 965.403 106.22C965.529 108.12 965.719 109.45 965.973 110.21C966.986 112.49 968.823 113.63 971.483 113.63C974.143 113.63 975.853 112.617 976.613 110.59C976.739 110.083 976.803 109.197 976.803 107.93C976.929 106.537 976.993 104.383 976.993 101.47C976.993 98.3033 976.929 96.15 976.803 95.01C976.676 93.7433 976.359 92.4767 975.853 91.21C974.966 89.1833 973.509 87.6 971.483 86.46C969.456 85.1933 966.606 83.8 962.933 82.28L957.613 79.81C952.166 77.0233 947.733 74.2367 944.313 71.45C940.893 68.6633 938.296 65.37 936.523 61.57C935.383 58.7833 934.559 55.7433 934.053 52.45C933.673 49.03 933.483 44.28 933.483 38.2C933.483 33.0067 933.673 29.0167 934.053 26.23C934.433 23.3167 935.256 20.53 936.523 17.87C939.183 12.17 943.426 7.79999 949.253 4.75999C955.079 1.71999 962.363 0.199995 971.103 0.199995C988.329 0.199995 999.603 5.83666 1004.92 17.11C1005.81 19.01 1006.44 20.7833 1006.82 22.43C1007.2 24.0767 1007.46 26.61 1007.58 30.03C1007.71 33.3233 1007.77 37.5033 1007.77 42.57H975.853C975.853 38.01 975.789 34.7167 975.663 32.69C975.536 30.6633 975.346 29.27 975.093 28.51C974.333 26.7367 972.749 25.85 970.343 25.85C967.809 25.85 966.226 26.8 965.593 28.7C965.466 29.2067 965.339 30.03 965.213 31.17C965.213 32.1833 965.213 33.8933 965.213 36.3C965.213 38.96 965.276 40.9233 965.403 42.19C965.529 43.33 965.846 44.5333 966.353 45.8C967.113 47.4467 968.379 48.84 970.153 49.98C972.053 50.9933 975.029 52.3867 979.083 54.16L983.263 55.87C989.849 58.91 994.979 61.8233 998.653 64.61C1002.45 67.3967 1005.24 70.8167 1007.01 74.87C1008.28 77.91 1009.1 81.0767 1009.48 84.37C1009.99 87.6633 1010.24 92.6033 1010.24 99.19C1010.24 105.143 1009.99 109.64 1009.48 112.68C1009.1 115.72 1008.28 118.697 1007.01 121.61C1004.35 127.437 999.919 131.933 993.713 135.1C987.506 138.14 979.906 139.66 970.913 139.66ZM1016.1 2.85999H1073.29V30.79H1047.64V53.21H1072.72V80.38H1047.64V109.26H1073.29V137H1016.1V2.85999ZM1092.25 30.6H1077.24V2.85999H1138.61V30.6H1123.79V137H1092.25V30.6Z" fill="#F7F3E8"/>
</svg>
