<svg width="528" height="246" viewBox="0 0 528 246" fill="none" xmlns="http://www.w3.org/2000/svg">
<path d="M377.322 15.6535C356.507 15.6535 342.771 27.9578 342.771 46.3141C342.771 64.6703 357.756 76.9746 377.322 76.9746C396.887 76.9746 412.077 64.2498 412.077 46.3141C412.077 28.3783 398.131 15.6535 377.322 15.6535ZM377.322 61.9572C368.581 61.9572 361.712 54.864 361.712 46.3141C361.712 37.7642 368.79 30.6709 377.322 30.6709C385.853 30.6709 392.931 37.7642 392.931 46.3141C392.931 54.864 386.063 61.9572 377.322 61.9572Z" fill="#F7F3E8"/>
<path d="M307.593 16.4791H295.106V32.3324H303.637C310.506 32.3324 316.125 38.3795 316.125 45.6829C316.125 54.6533 308.842 59.0334 304.052 59.2386H288.652V0H269.506V75.087H304.057C319.252 75.087 335.691 63.6137 335.691 46.3036C335.276 27.7421 321.12 16.4791 307.593 16.4791Z" fill="#F7F3E8"/>
<path d="M134.851 45.6777C134.851 38.169 140.885 32.122 148.173 32.122H163.368L151.09 52.7709H169.407L181.684 33.5837V16.6892H145.056C129.032 16.6892 116.124 29.8294 116.124 45.888C116.124 61.9466 129.027 75.0868 145.056 75.0868H181.684V59.2334H148.178C140.895 59.2334 134.851 53.1864 134.851 45.6777Z" fill="#F7F3E8"/>
<path d="M80.3178 0H33.699V75.0869H52.2206V16.4791H76.3617C83.0201 16.4791 90.0981 20.0232 90.0981 29.8295C90.0981 37.3382 84.6884 43.18 77.4007 43.18H58.879V58.8231H71.991C83.2299 59.2386 88.0151 64.4546 88.2249 75.5074V91.566H107.791V70.0811C107.791 58.8181 99.8834 52.9763 92.181 51.0992C104.254 46.9293 110.288 37.5435 110.288 26.0702C109.664 10.0116 94.4737 0 80.3178 0Z" fill="#F7F3E8"/>
<path d="M463.696 43.8007C476.598 39.8361 480.344 32.7479 480.344 18.5615V16.4741H461.403V19.6027C461.403 28.9886 457.447 35.8715 448.501 35.8715H439.55V0H420.404V75.087H439.55V51.7249H446.418C455.993 51.7249 461.818 57.1462 461.818 65.9063V75.082H480.964V66.5321C480.964 55.269 475.974 47.1396 463.696 43.8007Z" fill="#F7F3E8"/>
<path d="M209.561 45.706C209.561 38.1973 215.595 32.1503 222.883 32.1503H238.078L225.8 52.5889H244.117L256.395 33.4017V16.5071H219.766C203.742 16.5071 190.835 29.6474 190.835 45.706C190.835 61.7646 203.737 74.9048 219.766 74.9048H256.395V59.0514H222.678C215.6 59.2617 209.561 53.2147 209.561 45.706Z" fill="#F7F3E8"/>
<path d="M0.0292969 107.38H16.1145V243.601H0.0292969V107.38Z" fill="#F7F3E8"/>
<path d="M31.4021 106.251H64.5361L82.7311 183.875L101.118 106.251H134.06V243.601H108.204V161.891L90.2006 243.601H75.07L57.2581 161.891V243.601H31.4021V106.251Z" fill="#F7F3E8"/>
<path d="M147.242 107.38H194.937C209.9 107.38 220.436 112.573 226.546 122.959C221.558 121.819 215.916 121.249 209.619 121.249H164.076V179.005H209.619C216.54 179.005 222.431 178.309 227.294 176.915C221.932 188.061 211.521 193.634 196.059 193.634H164.076V243.601H147.242V107.38ZM227.294 176.915C230.598 170.202 232.251 161.178 232.251 149.842C232.251 138.759 230.349 129.798 226.546 122.959C241.073 126.695 248.336 135.656 248.336 149.842C248.336 157.505 246.403 163.489 242.538 167.796C238.672 172.102 233.591 175.142 227.294 176.915Z" fill="#F7F3E8"/>
<path d="M299.668 221.812H272.855L269.79 243.601H242.594L265.385 106.251H307.138L329.93 243.601H302.733L299.668 221.812ZM296.413 198.855L286.453 128.429H286.07L276.111 198.855H296.413Z" fill="#F7F3E8"/>
<path d="M373.033 245.935C364.095 245.935 356.562 244.12 350.433 240.488C344.432 236.857 339.836 231.409 336.643 224.146C335.367 221.293 334.409 218.18 333.771 214.808C333.132 211.306 332.685 206.637 332.43 200.8C332.175 194.834 332.047 186.209 332.047 174.926C332.047 163.901 332.175 155.406 332.43 149.44C332.685 143.344 333.132 138.61 333.771 135.238C334.409 131.736 335.367 128.494 336.643 125.511C339.708 118.377 344.241 112.995 350.242 109.363C356.371 105.732 363.968 103.916 373.033 103.916C384.27 103.916 393.207 107.029 399.847 113.254C404.188 117.275 407.189 122.203 408.849 128.04C410.636 133.747 411.53 141.528 411.53 151.386H383.759C383.759 146.587 383.631 142.89 383.376 140.296C383.12 137.702 382.737 135.822 382.227 134.654C381.844 133.357 381.141 132.255 380.12 131.347C379.098 130.439 377.949 129.791 376.672 129.402C375.523 128.883 374.055 128.624 372.267 128.624C369.714 128.624 367.543 129.207 365.755 130.374C363.968 131.542 362.627 133.228 361.733 135.433C361.223 136.73 360.84 138.416 360.584 140.491C360.329 142.436 360.137 146.327 360.01 152.164C359.882 158 359.818 165.587 359.818 174.926C359.818 184.264 359.882 191.916 360.01 197.882C360.137 203.719 360.329 207.674 360.584 209.75C360.84 211.695 361.223 213.316 361.733 214.613C363.649 219.023 367.224 221.228 372.459 221.228C375.779 221.228 378.46 220.255 380.503 218.31C381.397 217.661 382.035 216.753 382.418 215.586C382.929 214.289 383.312 212.344 383.567 209.75C383.823 207.156 383.95 203.459 383.95 198.66H411.913C411.785 208.128 410.828 215.91 409.04 222.006C407.253 227.972 404.316 232.836 400.23 236.597C397.038 239.58 393.144 241.915 388.547 243.601C383.95 245.157 378.779 245.935 373.033 245.935Z" fill="#F7F3E8"/>
<path d="M415.188 107.38H445.488C450.849 107.38 455.089 108.52 458.206 110.8C461.324 113.016 463.069 116.436 463.443 121.059H415.188V107.38ZM479.716 121.059C480.09 116.436 481.835 113.016 484.953 110.8C488.07 108.52 492.34 107.38 497.765 107.38H527.971V121.059H479.716ZM463.443 121.059H479.716V243.601H463.443V121.059Z" fill="#F7F3E8"/>
</svg>
