<svg
              width="636"
              height="337"
              viewBox="0 0 636 337"
              fill="none"
              xmlns="http://www.w3.org/2000/svg"

            >
              <path
                d="M431.322 15.6535C410.507 15.6535 396.771 27.9578 396.771 46.3141C396.771 64.6703 411.756 76.9746 431.322 76.9746C450.887 76.9746 466.077 64.2498 466.077 46.3141C466.077 28.3783 452.131 15.6535 431.322 15.6535ZM431.322 61.9572C422.581 61.9572 415.712 54.864 415.712 46.3141C415.712 37.7642 422.79 30.6709 431.322 30.6709C439.853 30.6709 446.931 37.7642 446.931 46.3141C446.931 54.864 440.063 61.9572 431.322 61.9572Z"
                fill="#F7F3E8"
              />
              <path
                d="M361.593 16.4791H349.106V32.3324H357.637C364.506 32.3324 370.125 38.3795 370.125 45.6829C370.125 54.6533 362.842 59.0334 358.052 59.2386H342.652V0H323.506V75.087H358.057C373.252 75.087 389.691 63.6137 389.691 46.3036C389.276 27.7421 375.12 16.4791 361.593 16.4791Z"
                fill="#F7F3E8"
              />
              <path
                d="M188.851 45.6777C188.851 38.169 194.885 32.122 202.173 32.122H217.368L205.09 52.7709H223.407L235.684 33.5837V16.6892H199.056C183.032 16.6892 170.124 29.8294 170.124 45.888C170.124 61.9466 183.027 75.0868 199.056 75.0868H235.684V59.2334H202.178C194.895 59.2334 188.851 53.1864 188.851 45.6777Z"
                fill="#F7F3E8"
              />
              <path
                d="M134.318 0H87.699V75.0869H106.221V16.4791H130.362C137.02 16.4791 144.098 20.0232 144.098 29.8295C144.098 37.3382 138.688 43.18 131.401 43.18H112.879V58.8231H125.991C137.23 59.2386 142.015 64.4546 142.225 75.5074V91.566H161.791V70.0811C161.791 58.8181 153.883 52.9763 146.181 51.0992C158.254 46.9293 164.288 37.5435 164.288 26.0702C163.664 10.0116 148.474 0 134.318 0Z"
                fill="#F7F3E8"
              />
              <path
                d="M517.696 43.8007C530.598 39.8361 534.344 32.7479 534.344 18.5615V16.4741H515.403V19.6027C515.403 28.9886 511.447 35.8715 502.501 35.8715H493.55V0H474.404V75.087H493.55V51.7249H500.418C509.993 51.7249 515.818 57.1462 515.818 65.9063V75.082H534.964V66.5321C534.964 55.269 529.974 47.1396 517.696 43.8007Z"
                fill="#F7F3E8"
              />
              <path
                d="M263.561 45.706C263.561 38.1973 269.595 32.1503 276.883 32.1503H292.078L279.8 52.5889H298.117L310.395 33.4017V16.5071H273.766C257.742 16.5071 244.835 29.6474 244.835 45.706C244.835 61.7646 257.737 74.9048 273.766 74.9048H310.395V59.0514H276.678C269.6 59.2617 263.561 53.2147 263.561 45.706Z"
                fill="#F7F3E8"
              />
              <path
                d="M54.0293 107.38H70.1145V243.601H54.0293V107.38Z"
                fill="#F7F3E8"
              />
              <path
                d="M85.4021 106.251H118.536L136.731 183.875L155.118 106.251H188.06V243.601H162.204V161.891L144.201 243.601H129.07L111.258 161.891V243.601H85.4021V106.251Z"
                fill="#F7F3E8"
              />
              <path
                d="M201.242 107.38H248.937C263.9 107.38 274.436 112.573 280.546 122.959C275.558 121.819 269.916 121.249 263.619 121.249H218.076V179.005H263.619C270.54 179.005 276.431 178.309 281.294 176.915C275.932 188.061 265.521 193.634 250.059 193.634H218.076V243.601H201.242V107.38ZM281.294 176.915C284.598 170.202 286.251 161.178 286.251 149.842C286.251 138.759 284.349 129.798 280.546 122.959C295.073 126.695 302.336 135.656 302.336 149.842C302.336 157.505 300.403 163.489 296.538 167.796C292.672 172.102 287.591 175.142 281.294 176.915Z"
                fill="#F7F3E8"
              />
              <path
                d="M353.668 221.812H326.855L323.79 243.601H296.594L319.385 106.251H361.138L383.93 243.601H356.733L353.668 221.812ZM350.413 198.855L340.453 128.429H340.07L330.111 198.855H350.413Z"
                fill="#F7F3E8"
              />
              <path
                d="M427.033 245.935C418.095 245.935 410.562 244.12 404.433 240.488C398.432 236.857 393.836 231.409 390.643 224.146C389.367 221.293 388.409 218.18 387.771 214.808C387.132 211.306 386.685 206.637 386.43 200.8C386.175 194.834 386.047 186.209 386.047 174.926C386.047 163.901 386.175 155.406 386.43 149.44C386.685 143.344 387.132 138.61 387.771 135.238C388.409 131.736 389.367 128.494 390.643 125.511C393.708 118.377 398.241 112.995 404.242 109.363C410.371 105.732 417.968 103.916 427.033 103.916C438.27 103.916 447.207 107.029 453.847 113.254C458.188 117.275 461.189 122.203 462.849 128.04C464.636 133.747 465.53 141.528 465.53 151.386H437.759C437.759 146.587 437.631 142.89 437.376 140.296C437.12 137.702 436.737 135.822 436.227 134.654C435.844 133.357 435.141 132.255 434.12 131.347C433.098 130.439 431.949 129.791 430.672 129.402C429.523 128.883 428.055 128.624 426.267 128.624C423.714 128.624 421.543 129.207 419.755 130.374C417.968 131.542 416.627 133.228 415.733 135.433C415.223 136.73 414.84 138.416 414.584 140.491C414.329 142.436 414.137 146.327 414.01 152.164C413.882 158 413.818 165.587 413.818 174.926C413.818 184.264 413.882 191.916 414.01 197.882C414.137 203.719 414.329 207.674 414.584 209.75C414.84 211.695 415.223 213.316 415.733 214.613C417.649 219.023 421.224 221.228 426.459 221.228C429.779 221.228 432.46 220.255 434.503 218.31C435.397 217.661 436.035 216.753 436.418 215.586C436.929 214.289 437.312 212.344 437.567 209.75C437.823 207.156 437.95 203.459 437.95 198.66H465.913C465.785 208.128 464.828 215.91 463.04 222.006C461.253 227.972 458.316 232.836 454.23 236.597C451.038 239.58 447.144 241.915 442.547 243.601C437.95 245.157 432.779 245.935 427.033 245.935Z"
                fill="#F7F3E8"
              />
              <path
                d="M469.188 107.38H499.488C504.849 107.38 509.089 108.52 512.206 110.8C515.324 113.016 517.069 116.436 517.443 121.059H469.188V107.38ZM533.716 121.059C534.09 116.436 535.835 113.016 538.953 110.8C542.07 108.52 546.34 107.38 551.765 107.38H581.971V121.059H533.716ZM517.443 121.059H533.716V243.601H517.443V121.059Z"
                fill="#F7F3E8"
              />
              <path
                d="M0 274.722H11.4903V276.747H2.29807V283.207H11.4083V285.233H2.29807V292.021H11.4903V294.046H0V274.722Z"
                fill="#F7F3E8"
              />
              <path
                d="M40.968 274.722L33.5814 294.046H31.2286L23.8146 274.722H26.2494L32.405 291.282L38.5605 274.722H40.968Z"
                fill="#F7F3E8"
              />
              <path
                d="M53.9897 274.722H65.48V276.747H56.2877V283.207H65.3979V285.233H56.2877V292.021H65.48V294.046H53.9897V274.722Z"
                fill="#F7F3E8"
              />
              <path
                d="M84.8333 285.342H81.9334V294.046H79.6353V274.722H86.7484C89.8307 274.722 91.7914 275.652 92.6303 277.514C92.9404 278.244 93.0954 279.056 93.0954 279.95C93.0954 280.899 92.9404 281.729 92.6303 282.441C91.8278 284.247 90.1134 285.214 87.4871 285.342L94.2718 294.046H91.536L84.8333 285.342ZM81.9334 283.399H86.2559C87.405 283.399 88.3169 283.253 88.9917 282.961C89.6848 282.669 90.159 282.231 90.4143 281.647C90.6332 281.172 90.7426 280.625 90.7426 280.004C90.7426 279.402 90.6423 278.882 90.4417 278.444C90.1681 277.824 89.6848 277.377 88.9917 277.103C88.3169 276.829 87.405 276.692 86.2559 276.692H81.9334V283.399Z"
                fill="#F7F3E8"
              />
              <path
                d="M111.568 285.698L104.893 274.722H107.492L112.69 283.481L117.86 274.722H120.487L113.839 285.698V294.046H111.568V285.698Z"
                fill="#F7F3E8"
              />
              <path
                d="M137.341 276.747H132.279V274.722H144.7V276.747H139.639V294.046H137.341V276.747Z"
                fill="#F7F3E8"
              />
              <path
                d="M157.935 274.722H160.233V283.18H169.972V274.722H172.27V294.046H169.972V285.233H160.233V294.046H157.935V274.722Z"
                fill="#F7F3E8"
              />
              <path
                d="M187.08 274.722H189.378V294.046H187.08V274.722Z"
                fill="#F7F3E8"
              />
              <path
                d="M204.177 274.722H206.639L216.98 290.652V274.722H219.224V294.046H216.707L206.42 278.116V294.046H204.177V274.722Z"
                fill="#F7F3E8"
              />
              <path
                d="M251.061 283.919V285.123C251.061 287.094 250.742 288.773 250.103 290.16C249.465 291.583 248.507 292.66 247.231 293.389C245.954 294.119 244.376 294.484 242.498 294.484C240.528 294.484 238.859 294.074 237.491 293.253C236.123 292.431 235.102 291.254 234.427 289.722C233.771 288.298 233.442 286.519 233.442 284.384C233.442 282.249 233.771 280.47 234.427 279.046C235.12 277.514 236.151 276.337 237.519 275.515C238.886 274.694 240.574 274.284 242.58 274.284C245.17 274.284 247.185 274.941 248.626 276.254C249.283 276.857 249.802 277.587 250.185 278.444C250.568 279.284 250.796 280.223 250.869 281.264H248.544C248.38 279.767 247.842 278.599 246.93 277.76C246.437 277.304 245.817 276.966 245.069 276.747C244.322 276.51 243.483 276.391 242.552 276.391C241.093 276.391 239.871 276.683 238.887 277.267C237.902 277.833 237.163 278.663 236.671 279.758C236.397 280.379 236.196 281.063 236.069 281.811C235.941 282.559 235.877 283.417 235.877 284.384C235.877 285.351 235.941 286.209 236.069 286.957C236.196 287.705 236.397 288.389 236.671 289.01C237.163 290.123 237.902 290.962 238.887 291.528C239.89 292.094 241.121 292.377 242.58 292.377C243.966 292.377 245.124 292.121 246.054 291.61C247.003 291.099 247.705 290.351 248.161 289.366C248.361 288.891 248.507 288.38 248.599 287.833C248.708 287.267 248.763 286.638 248.763 285.944H243.1V283.919H251.061Z"
                fill="#F7F3E8"
              />
              <path
                d="M286.332 285.698L279.657 274.722H282.256L287.454 283.481L292.624 274.722H295.251L288.603 285.698V294.046H286.332V285.698Z"
                fill="#F7F3E8"
              />
              <path
                d="M315.293 294.484C313.487 294.484 311.955 294.147 310.697 293.472C309.438 292.796 308.463 291.847 307.77 290.625C307.277 289.822 306.903 288.891 306.648 287.833C306.392 286.756 306.265 285.607 306.265 284.384C306.265 282.249 306.602 280.442 307.277 278.964C307.952 277.486 308.955 276.337 310.286 275.515C311.636 274.694 313.305 274.284 315.293 274.284C317.299 274.284 318.968 274.694 320.299 275.515C321.649 276.318 322.652 277.459 323.309 278.937C324.002 280.452 324.348 282.267 324.348 284.384C324.348 286.501 324.002 288.316 323.309 289.831C322.634 291.309 321.631 292.459 320.299 293.28C318.968 294.083 317.299 294.484 315.293 294.484ZM315.293 292.349C316.77 292.349 317.983 292.057 318.932 291.473C319.898 290.871 320.619 290.032 321.093 288.955C321.385 288.316 321.594 287.623 321.722 286.875C321.85 286.127 321.914 285.296 321.914 284.384C321.914 283.472 321.85 282.641 321.722 281.893C321.594 281.145 321.385 280.452 321.093 279.813C320.619 278.736 319.898 277.906 318.932 277.322C317.983 276.72 316.77 276.419 315.293 276.419C313.834 276.419 312.621 276.72 311.654 277.322C310.706 277.906 309.986 278.736 309.493 279.813C308.964 281.017 308.7 282.541 308.7 284.384C308.7 286.227 308.964 287.751 309.493 288.955C309.986 290.032 310.706 290.871 311.654 291.473C312.621 292.057 313.834 292.349 315.293 292.349Z"
                fill="#F7F3E8"
              />
              <path
                d="M345.443 294.484C343.018 294.484 341.23 293.946 340.081 292.869C338.95 291.793 338.385 290.123 338.385 287.86V274.722H340.683V287.696C340.683 289.302 341.057 290.488 341.805 291.254C342.571 292.021 343.784 292.404 345.443 292.404C347.103 292.404 348.316 292.021 349.082 291.254C349.848 290.488 350.231 289.302 350.231 287.696V274.722H352.502V287.86C352.502 290.123 351.927 291.793 350.778 292.869C349.647 293.946 347.869 294.484 345.443 294.484Z"
                fill="#F7F3E8"
              />
              <path
                d="M383.242 274.722H389.835C391.878 274.722 393.592 275.114 394.978 275.899C396.365 276.665 397.386 277.787 398.043 279.265C398.663 280.634 398.973 282.34 398.973 284.384C398.973 286.41 398.663 288.125 398.043 289.53C397.386 290.99 396.365 292.112 394.978 292.897C393.592 293.663 391.878 294.046 389.835 294.046H383.242V274.722ZM389.562 292.021C391.167 292.021 392.48 291.738 393.501 291.172C394.541 290.607 395.307 289.767 395.799 288.654C396.055 288.107 396.237 287.486 396.346 286.793C396.474 286.099 396.538 285.296 396.538 284.384C396.538 283.472 396.474 282.669 396.346 281.975C396.237 281.282 396.055 280.661 395.799 280.114C395.307 279.001 394.541 278.161 393.501 277.596C392.48 277.03 391.167 276.747 389.562 276.747H385.54V292.021H389.562Z"
                fill="#F7F3E8"
              />
              <path
                d="M421.643 294.484C419.837 294.484 418.305 294.147 417.046 293.472C415.788 292.796 414.812 291.847 414.119 290.625C413.627 289.822 413.253 288.891 412.997 287.833C412.742 286.756 412.614 285.607 412.614 284.384C412.614 282.249 412.952 280.442 413.627 278.964C414.302 277.486 415.305 276.337 416.636 275.515C417.986 274.694 419.655 274.284 421.643 274.284C423.649 274.284 425.318 274.694 426.649 275.515C427.999 276.318 429.002 277.459 429.658 278.937C430.352 280.452 430.698 282.267 430.698 284.384C430.698 286.501 430.352 288.316 429.658 289.831C428.984 291.309 427.981 292.459 426.649 293.28C425.318 294.083 423.649 294.484 421.643 294.484ZM421.643 292.349C423.12 292.349 424.333 292.057 425.281 291.473C426.248 290.871 426.968 290.032 427.442 288.955C427.734 288.316 427.944 287.623 428.072 286.875C428.199 286.127 428.263 285.296 428.263 284.384C428.263 283.472 428.199 282.641 428.072 281.893C427.944 281.145 427.734 280.452 427.442 279.813C426.968 278.736 426.248 277.906 425.281 277.322C424.333 276.72 423.12 276.419 421.643 276.419C420.183 276.419 418.971 276.72 418.004 277.322C417.056 277.906 416.335 278.736 415.843 279.813C415.314 281.017 415.049 282.541 415.049 284.384C415.049 286.227 415.314 287.751 415.843 288.955C416.335 290.032 417.056 290.871 418.004 291.473C418.971 292.057 420.183 292.349 421.643 292.349Z"
                fill="#F7F3E8"
              />
              <path
                d="M469.515 294.484C467.508 294.484 465.831 294.074 464.481 293.253C463.131 292.431 462.128 291.273 461.472 289.776C460.797 288.316 460.459 286.519 460.459 284.384C460.459 282.304 460.797 280.506 461.472 278.992C462.128 277.495 463.131 276.337 464.481 275.515C465.831 274.694 467.508 274.284 469.515 274.284C470.773 274.284 471.913 274.466 472.935 274.831C473.974 275.178 474.868 275.698 475.616 276.391C476.309 277.012 476.847 277.769 477.23 278.663C477.613 279.539 477.822 280.506 477.859 281.565H475.451C475.342 279.995 474.804 278.754 473.837 277.842C472.725 276.875 471.257 276.391 469.433 276.391C467.992 276.391 466.788 276.683 465.821 277.267C464.873 277.851 464.162 278.672 463.688 279.731C463.159 280.972 462.894 282.523 462.894 284.384C462.894 286.264 463.159 287.815 463.688 289.037C464.18 290.114 464.9 290.944 465.849 291.528C466.815 292.094 468.01 292.377 469.433 292.377C470.381 292.377 471.229 292.258 471.977 292.021C472.743 291.765 473.381 291.4 473.892 290.926C474.913 290.014 475.451 288.736 475.506 287.094H477.914C477.895 288.207 477.686 289.211 477.284 290.105C476.901 290.999 476.363 291.765 475.67 292.404C474.959 293.079 474.074 293.599 473.017 293.964C471.959 294.311 470.791 294.484 469.515 294.484Z"
                fill="#F7F3E8"
              />
              <path
                d="M497.247 285.342H494.348V294.046H492.05V274.722H499.163C502.245 274.722 504.206 275.652 505.045 277.514C505.355 278.244 505.51 279.056 505.51 279.95C505.51 280.899 505.355 281.729 505.045 282.441C504.242 284.247 502.528 285.214 499.901 285.342L506.686 294.046H503.95L497.247 285.342ZM494.348 283.399H498.67C499.819 283.399 500.731 283.253 501.406 282.961C502.099 282.669 502.573 282.231 502.829 281.647C503.047 281.172 503.157 280.625 503.157 280.004C503.157 279.402 503.057 278.882 502.856 278.444C502.582 277.824 502.099 277.377 501.406 277.103C500.731 276.829 499.819 276.692 498.67 276.692H494.348V283.399Z"
                fill="#F7F3E8"
              />
              <path
                d="M519.939 274.722H531.43V276.747H522.237V283.207H531.348V285.233H522.237V292.021H531.43V294.046H519.939V274.722Z"
                fill="#F7F3E8"
              />
              <path
                d="M556.807 289.01H547.779L546.001 294.046H543.594L550.57 274.722H554.017L560.993 294.046H558.613L556.807 289.01ZM556.124 287.066L552.321 276.364H552.266L548.463 287.066H556.124Z"
                fill="#F7F3E8"
              />
              <path
                d="M575.561 276.747H570.499V274.722H582.92V276.747H577.859V294.046H575.561V276.747Z"
                fill="#F7F3E8"
              />
              <path
                d="M596.155 274.722H607.645V276.747H598.453V283.207H607.563V285.233H598.453V292.021H607.645V294.046H596.155V274.722Z"
                fill="#F7F3E8"
              />
              <path
                d="M628.559 294.484C626.753 294.484 625.276 294.183 624.127 293.581C622.978 292.961 622.157 292.103 621.664 291.008C621.245 290.096 621.035 288.992 621.035 287.696H623.525C623.525 288.681 623.671 289.521 623.963 290.214C624.309 290.962 624.865 291.537 625.631 291.939C626.416 292.322 627.419 292.514 628.641 292.514C629.79 292.514 630.756 292.331 631.541 291.966C632.343 291.601 632.899 291.09 633.209 290.433C633.41 290.014 633.51 289.539 633.51 289.01C633.51 288.535 633.419 288.088 633.237 287.669C633 287.158 632.617 286.747 632.088 286.437C631.559 286.108 630.993 285.862 630.392 285.698C629.79 285.515 628.85 285.269 627.574 284.959C626.023 284.576 624.783 284.147 623.853 283.672C622.923 283.18 622.266 282.504 621.883 281.647C621.61 281.008 621.473 280.342 621.473 279.649C621.473 278.882 621.628 278.161 621.938 277.486C622.376 276.501 623.151 275.725 624.263 275.16C625.394 274.576 626.735 274.284 628.285 274.284C629.872 274.284 631.194 274.576 632.252 275.16C633.31 275.725 634.085 276.546 634.577 277.623C634.96 278.499 635.152 279.539 635.152 280.744H632.772C632.772 279.795 632.635 279.01 632.361 278.39C632.051 277.678 631.541 277.14 630.829 276.775C630.136 276.391 629.27 276.2 628.23 276.2C627.191 276.2 626.306 276.382 625.577 276.747C624.865 277.094 624.382 277.577 624.127 278.198C623.963 278.545 623.88 278.955 623.88 279.43C623.88 279.922 623.953 280.324 624.099 280.634C624.282 281.072 624.592 281.437 625.029 281.729C625.485 282.003 625.996 282.231 626.561 282.413C627.127 282.577 627.893 282.778 628.86 283.015L629.626 283.207C630.702 283.481 631.604 283.754 632.334 284.028C633.082 284.302 633.738 284.649 634.304 285.068C634.869 285.488 635.298 286.017 635.59 286.656C635.863 287.258 636 287.979 636 288.818C636 289.694 635.836 290.461 635.508 291.118C635.033 292.194 634.194 293.024 632.991 293.608C631.787 294.192 630.31 294.484 628.559 294.484Z"
                fill="#F7F3E8"
              />
              <path
                d="M221.917 331.402H212.889L211.111 336.439H208.703L215.679 317.114H219.127L226.103 336.439H223.723L221.917 331.402ZM221.233 329.459L217.43 318.757H217.376L213.573 329.459H221.233Z"
                fill="#F7F3E8"
              />
              <path
                d="M239.226 317.114H241.688L252.029 333.045V317.114H254.272V336.439H251.755L241.469 320.508V336.439H239.226V317.114Z"
                fill="#F7F3E8"
              />
              <path
                d="M285.173 317.114H287.472V336.439H285.173V317.114Z"
                fill="#F7F3E8"
              />
              <path
                d="M302.27 317.114H305.224L311.79 332.716L318.466 317.114H321.311V336.439H319.122V320.563L312.365 336.439H311.216L304.458 320.563V336.439H302.27V317.114Z"
                fill="#F7F3E8"
              />
              <path
                d="M336.117 317.114H342.847C344.325 317.114 345.556 317.342 346.541 317.799C347.526 318.255 348.237 318.957 348.675 319.906C348.985 320.6 349.14 321.448 349.14 322.452C349.14 323.474 348.985 324.331 348.675 325.025C348.237 325.955 347.526 326.658 346.541 327.132C345.556 327.589 344.325 327.817 342.847 327.817H338.416V336.439H336.117V317.114ZM342.382 325.819C343.495 325.819 344.389 325.691 345.063 325.435C345.738 325.162 346.213 324.715 346.486 324.094C346.687 323.601 346.787 323.063 346.787 322.479C346.787 321.84 346.678 321.293 346.459 320.837C346.185 320.216 345.711 319.769 345.036 319.496C344.361 319.222 343.477 319.085 342.382 319.085H338.416V325.819H342.382Z"
                fill="#F7F3E8"
              />
              <path
                d="M372.184 331.402H363.156L361.378 336.439H358.97L365.947 317.114H369.394L376.37 336.439H373.99L372.184 331.402ZM371.5 329.459L367.697 318.757H367.643L363.84 329.459H371.5Z"
                fill="#F7F3E8"
              />
              <path
                d="M397.092 336.877C395.086 336.877 393.408 336.466 392.058 335.645C390.708 334.824 389.705 333.665 389.049 332.169C388.374 330.709 388.036 328.912 388.036 326.777C388.036 324.696 388.374 322.899 389.049 321.384C389.705 319.888 390.708 318.729 392.058 317.908C393.408 317.087 395.086 316.676 397.092 316.676C398.35 316.676 399.49 316.859 400.512 317.224C401.551 317.57 402.445 318.09 403.193 318.784C403.886 319.404 404.424 320.162 404.807 321.056C405.19 321.932 405.4 322.899 405.436 323.957H403.029C402.919 322.388 402.381 321.147 401.414 320.235C400.302 319.267 398.834 318.784 397.01 318.784C395.569 318.784 394.365 319.076 393.399 319.66C392.45 320.244 391.739 321.065 391.265 322.123C390.736 323.364 390.471 324.915 390.471 326.777C390.471 328.656 390.736 330.207 391.265 331.43C391.757 332.506 392.478 333.337 393.426 333.921C394.393 334.486 395.587 334.769 397.01 334.769C397.958 334.769 398.806 334.651 399.554 334.413C400.32 334.158 400.959 333.793 401.469 333.319C402.491 332.406 403.029 331.129 403.083 329.486H405.491C405.473 330.6 405.263 331.603 404.862 332.497C404.479 333.392 403.941 334.158 403.247 334.797C402.536 335.472 401.652 335.992 400.594 336.357C399.536 336.704 398.369 336.877 397.092 336.877Z"
                fill="#F7F3E8"
              />
              <path
                d="M422.3 319.14H417.239V317.114H429.66V319.14H424.598V336.439H422.3V319.14Z"
                fill="#F7F3E8"
              />
            </svg>
