<svg width="123" height="122" viewBox="0 0 123 122" fill="none" xmlns="http://www.w3.org/2000/svg">
<path fill-rule="evenodd" clip-rule="evenodd" d="M114.383 87.8869C112.082 83.9193 109.396 79.7969 106.382 75.5832H113.932C115.19 75.5832 116.211 74.4365 116.211 73.024V57.4232C116.211 56.0107 115.19 54.864 113.932 54.864H56.8898C51.7426 54.864 47.2312 57.8993 44.6946 62.4621C35.6286 52.7492 27.9769 42.9689 22.6594 34.2162C16.0294 23.3051 13.7681 15.1634 16.4506 11.8743C17.3817 10.7316 18.9154 10.1682 20.9699 10.1682C24.8256 10.1682 30.5224 12.156 37.5007 16.0205C41.2337 18.0876 45.1955 20.615 49.2967 23.5233H27.5888C27.5888 35.1408 35.9847 44.56 46.3444 44.56H113.401C114.957 44.56 116.215 43.1475 116.215 41.4017V26.6776C116.215 24.9359 114.953 23.5194 113.401 23.5194H56.0461C47.3628 16.7069 38.8972 11.0649 31.1615 7.00196C16.8731 -0.49297 6.64056 -1.73485 2.35471 3.52232C-6.36183 14.2113 12.8449 47.8809 46.079 80.1817C61.7893 95.4493 78.1278 107.896 92.0866 115.229C100.552 119.675 107.592 121.926 112.819 121.926C116.411 121.926 119.149 120.862 120.892 118.72C125.178 113.462 122.866 102.516 114.383 87.8909V87.8869ZM111.656 104.4C110.74 105.523 109.218 106.079 107.168 106.079C99.4177 106.079 84.1873 98.1394 66.1725 82.9393V80.9912C66.1725 78.0035 68.332 75.5832 70.9924 75.5832H101.217C102.75 77.7892 104.165 79.9556 105.444 82.0585C112.074 92.9696 114.339 101.111 111.656 104.4ZM42.524 82.5166V104.561C42.524 105.974 43.5457 107.12 44.803 107.12H63.8903C65.1475 107.12 66.1691 105.974 66.1691 104.561V103.232C58.6302 97.4073 50.9608 90.7296 43.4363 83.4173C43.3854 83.3678 43.3334 83.3182 43.2837 83.2684C43.1642 83.1523 43.0481 83.0355 42.9309 82.9188C42.7949 82.7841 42.66 82.6495 42.524 82.5166Z" fill="#F7F3E8"/>
</svg>
