<svg xmlns="http://www.w3.org/2000/svg" width="58" height="29" viewBox="0 0 58 29" fill="none">
  <g clip-path="url(#clip0_3909_7147)">
    <path d="M37.1471 20.0532C43.5134 17.5195 47.479 16.0641 58 13.5039C52.2811 13.881 39.6825 14.7167 30.9964 16.4419C30.9692 16.4147 37.0124 19.9724 37.1471 20.0532Z" fill="black"/>
    <path d="M17.3463 28.4885H25.6822C27.3008 26.0092 29.0003 24.7692 30.8617 23.4218C29.4322 22.8558 27.9754 22.317 26.4915 21.8047C21.1773 24.1223 18.2094 27.2492 17.3463 28.4885Z" fill="black"/>
    <path d="M18.9915 19.4043C11.5731 22.0454 7.44561 24.9562 4.66677 28.4873H13.8391C14.7294 27.2208 18.1556 23.636 24.5757 21.1566C22.768 20.5369 19.7199 19.5932 18.9915 19.4049V19.4043Z" fill="black"/>
    <path d="M22.8224 13.7988H2.50885C22.9843 17.5182 32.8578 22.2887 48.7739 28.9997C47.3709 28.0022 25.4659 15.1197 22.8224 13.7988Z" fill="black"/>
    <path d="M44.539 2.02148C41.8411 2.02148 40.0606 3.61143 40.0606 5.98341C40.0606 8.35539 42.0029 9.94533 44.539 9.94533C47.075 9.94533 49.0439 8.30106 49.0439 5.98341C49.0439 3.66576 47.2362 2.02148 44.539 2.02148ZM44.539 8.0048C43.406 8.0048 42.5157 7.08822 42.5157 5.98341C42.5157 4.8786 43.4332 3.96202 44.539 3.96202C45.6448 3.96202 46.5622 4.8786 46.5622 5.98341C46.5622 7.08822 45.672 8.0048 44.539 8.0048Z" fill="black"/>
    <path d="M35.5013 2.12941H33.8827V4.17797H34.9885C35.8788 4.17797 36.6071 4.95936 36.6071 5.90311C36.6071 7.06225 35.6632 7.62824 35.0423 7.65476H33.0462V0H30.5646V9.70267H35.0429C37.0125 9.70267 39.1432 8.22011 39.1432 5.98332C39.0895 3.58481 37.2546 2.12941 35.5013 2.12941Z" fill="black"/>
    <path d="M13.1108 5.90213C13.1108 4.93186 13.8929 4.15047 14.8375 4.15047H16.807L15.2156 6.81871H17.5898L19.1812 4.33935V2.15625H14.4335C12.3565 2.15625 10.6835 3.85422 10.6835 5.9293C10.6835 8.00437 12.3558 9.70234 14.4335 9.70234H19.1812V7.65378H14.8381C13.8942 7.65378 13.1114 6.8724 13.1114 5.90213H13.1108Z" fill="black"/>
    <path d="M6.0426 0H0V9.70267H2.40072V2.12941H5.52982C6.39286 2.12941 7.31029 2.58738 7.31029 3.85455C7.31029 4.82482 6.60911 5.57968 5.66449 5.57968H3.26377V7.60108H4.96331C6.42006 7.65476 7.04031 8.32878 7.0675 9.75701V11.8321H9.60354V9.05583C9.60354 7.60043 8.57864 6.84556 7.58028 6.60299C9.14515 6.06417 9.92726 4.85134 9.92726 3.36877C9.84633 1.29369 7.87745 0 6.0426 0Z" fill="black"/>
    <path d="M55.7339 5.65989C57.4063 5.14759 57.8919 4.23166 57.8919 2.3985V2.12877H55.4368V2.53304C55.4368 3.74588 54.924 4.63529 53.7644 4.63529H52.6042V0H50.1225V9.70267H52.6042V6.68385H53.4944C54.7356 6.68385 55.4905 7.38438 55.4905 8.51636V9.70203H57.9721V8.59722C57.9721 7.14182 57.3247 6.09069 55.7333 5.65925L55.7339 5.65989Z" fill="black"/>
    <path d="M22.7952 5.90195C22.7952 4.93169 23.5773 4.1503 24.5219 4.1503H26.4915L24.9 6.79136H27.2742L28.8656 4.31201V2.12891H24.1179C22.0409 2.12891 20.3679 3.82687 20.3679 5.90195C20.3679 7.97703 22.0403 9.675 24.1179 9.675H28.8656V7.62644H24.4954C23.578 7.65361 22.7959 6.87157 22.7959 5.90131L22.7952 5.90195Z" fill="black"/>
  </g>
  <defs>
    <clipPath id="clip0_3909_7147">
      <rect width="58" height="29" fill="white"/>
    </clipPath>
  </defs>
</svg>
