<svg width="163" height="75" viewBox="0 0 163 75" fill="none" xmlns="http://www.w3.org/2000/svg">
<path d="M0 21.392H4.95123V62.6714H0V21.392Z" fill="#182328"/>
<path d="M9.65697 21.0498H19.856L25.4567 44.5725L31.1163 21.0498H41.2564V62.6714H33.2976V37.9107L27.7559 62.6714H23.0985L17.6158 37.9107V62.6714H9.65697V21.0498Z" fill="#182328"/>
<path d="M45.3141 21.392H59.9951C64.6009 21.392 67.8441 22.9656 69.7248 26.1129C68.1895 25.7675 66.4528 25.5948 64.5145 25.5948H50.4956V43.0968H64.5145C66.6447 43.0968 68.4582 42.8857 69.9551 42.4635C68.3047 45.8411 65.0998 47.5299 60.3405 47.5299H50.4956V62.6714H45.3141V21.392ZM69.9551 42.4635C70.9722 40.4293 71.4808 37.6946 71.4808 34.2594C71.4808 30.901 70.8954 28.1855 69.7248 26.1129C74.1963 27.2452 76.432 29.9607 76.432 34.2594C76.432 36.5815 75.8371 38.3951 74.6472 39.7C73.4574 41.005 71.8934 41.9262 69.9551 42.4635Z" fill="#182328"/>
<path d="M92.2328 56.0686H83.9793L83.036 62.6714H74.6645L81.6801 21.0498H94.5321L101.548 62.6714H93.1761L92.2328 56.0686ZM91.2306 49.112L88.165 27.7706H88.0471L84.9815 49.112H91.2306Z" fill="#182328"/>
<path d="M114.816 63.3789C112.064 63.3789 109.745 62.8286 107.859 61.7282C106.012 60.6277 104.597 58.977 103.614 56.776C103.221 55.9113 102.926 54.9681 102.73 53.9462C102.533 52.885 102.396 51.4701 102.317 49.7015C102.239 47.8936 102.199 45.2799 102.199 41.8606C102.199 38.5199 102.239 35.9455 102.317 34.1376C102.396 32.2904 102.533 30.8558 102.73 29.834C102.926 28.7728 103.221 27.7902 103.614 26.8862C104.557 24.7246 105.953 23.0935 107.8 21.993C109.687 20.8926 112.025 20.3423 114.816 20.3423C118.274 20.3423 121.025 21.2856 123.069 23.1721C124.405 24.3905 125.329 25.884 125.84 27.6526C126.39 29.382 126.665 31.7401 126.665 34.7271H118.117C118.117 33.2729 118.078 32.1528 117.999 31.3668C117.92 30.5807 117.803 30.0108 117.645 29.6571C117.527 29.2641 117.311 28.93 116.997 28.6549C116.682 28.3798 116.329 28.1832 115.936 28.0653C115.582 27.9081 115.13 27.8295 114.58 27.8295C113.794 27.8295 113.125 28.0064 112.575 28.3601C112.025 28.7138 111.612 29.2248 111.337 29.8929C111.18 30.2859 111.062 30.7969 110.983 31.4257C110.905 32.0153 110.846 33.1943 110.807 34.963C110.767 36.7316 110.748 39.0308 110.748 41.8606C110.748 44.6904 110.767 47.0093 110.807 48.8172C110.846 50.5858 110.905 51.7845 110.983 52.4134C111.062 53.0029 111.18 53.4942 111.337 53.8872C111.927 55.2235 113.027 55.8917 114.639 55.8917C115.661 55.8917 116.486 55.5969 117.115 55.0074C117.39 54.8109 117.586 54.5357 117.704 54.182C117.861 53.789 117.979 53.1994 118.058 52.4134C118.137 51.6273 118.176 50.5072 118.176 49.053H126.783C126.744 51.9221 126.449 54.2803 125.899 56.1275C125.349 57.9354 124.445 59.4093 123.187 60.5491C122.204 61.453 121.006 62.1605 119.591 62.6714C118.176 63.143 116.584 63.3789 114.816 63.3789Z" fill="#182328"/>
<path d="M127.791 21.392H137.118C138.768 21.392 140.073 21.7374 141.033 22.4283C141.992 23.1 142.53 24.1363 142.645 25.5372H127.791V21.392ZM147.654 25.5372C147.769 24.1363 148.306 23.1 149.266 22.4283C150.225 21.7374 151.54 21.392 153.209 21.392H162.507V25.5372H147.654ZM142.645 25.5372H147.654V62.6714H142.645V25.5372Z" fill="#182328"/>
<path d="M100.154 2.68132C96.8423 2.68132 94.6566 4.62381 94.6566 7.52172C94.6566 10.4196 97.041 12.3621 100.154 12.3621C103.267 12.3621 105.684 10.3533 105.684 7.52172C105.684 4.69019 103.465 2.68132 100.154 2.68132ZM100.154 9.99132C98.7633 9.99132 97.6704 8.8715 97.6704 7.52172C97.6704 6.17194 98.7966 5.05213 100.154 5.05213C101.512 5.05213 102.638 6.17194 102.638 7.52172C102.638 8.8715 101.545 9.99132 100.154 9.99132Z" fill="#182328"/>
<path d="M89.0593 2.81165H87.0724V5.31444H88.4299C89.5227 5.31444 90.4168 6.26908 90.4168 7.42208C90.4168 8.83825 89.258 9.52973 88.4958 9.56213H86.0455V0.210083H82.9991V12.0641H88.4967C90.9144 12.0641 93.53 10.2528 93.53 7.52008C93.464 4.58976 91.2116 2.81165 89.0593 2.81165Z" fill="#182328"/>
<path d="M61.5736 7.42127C61.5736 6.23586 62.5337 5.28122 63.6933 5.28122H66.111L64.1574 8.54108H67.0719L69.0255 5.51198V2.84482H63.1973C60.6477 2.84482 58.594 4.91927 58.594 7.45446C58.594 9.98964 60.6469 12.0641 63.1973 12.0641H69.0255V9.56132H63.6941C62.5353 9.56132 61.5736 8.60667 61.5736 7.42127Z" fill="#182328"/>
<path d="M52.8966 0.210083H45.4789V12.0641H48.426V2.81165H52.2672C53.3266 2.81165 54.4528 3.37116 54.4528 4.9193C54.4528 6.1047 53.5921 7.02695 52.4325 7.02695H49.4854V9.49654H51.5717C53.36 9.56213 54.1214 10.3856 54.1548 12.1305V14.6657H57.2679V11.2739C57.2679 9.49575 56.0098 8.57351 54.7842 8.27715C56.7052 7.61886 57.6653 6.1371 57.6653 4.32581C57.566 1.79062 55.149 0.210083 52.8966 0.210083Z" fill="#182328"/>
<path d="M113.897 7.12494C115.95 6.49905 116.546 5.38003 116.546 3.1404V2.81086H113.533V3.30478C113.533 4.78654 112.903 5.87316 111.48 5.87316H110.055V0.210083H107.009V12.0641H110.055V8.37594H111.148C112.672 8.37594 113.599 9.2318 113.599 10.6148V12.0633H116.645V10.7136C116.645 8.93545 115.851 7.65205 113.897 7.12494Z" fill="#182328"/>
<path d="M73.4611 7.42572C73.4611 6.24032 74.4212 5.28567 75.5808 5.28567H77.9985L76.0449 8.51234H78.9594L80.913 5.48324V2.81608H75.0848C72.5352 2.81608 70.4814 4.89054 70.4814 7.42572C70.4814 9.96091 72.5344 12.0354 75.0848 12.0354H80.913V9.53258H75.5482C74.422 9.56577 73.4611 8.61113 73.4611 7.42572Z" fill="#182328"/>
<path d="M0 71.2911H2.12657V71.6658H0.425313V72.8607H2.11138V73.2354H0.425313V74.4911H2.12657V74.8658H0V71.2911Z" fill="#F7F3E8"/>
<path d="M7.78926 71.2911L6.42218 74.8658H5.98674L4.6146 71.2911H5.06523L6.20446 74.3544L7.34369 71.2911H7.78926Z" fill="#F7F3E8"/>
<path d="M10.4064 71.2911H12.5329V71.6658H10.8317V72.8607H12.5177V73.2354H10.8317V74.4911H12.5329V74.8658H10.4064V71.2911Z" fill="#F7F3E8"/>
<path d="M16.3219 73.2556H15.7852V74.8658H15.3599V71.2911H16.6763C17.2468 71.2911 17.6096 71.4632 17.7649 71.8075C17.8223 71.9426 17.851 72.0928 17.851 72.2582C17.851 72.4337 17.8223 72.5873 17.7649 72.7189C17.6164 73.0531 17.2991 73.232 16.813 73.2556L18.0687 74.8658H17.5624L16.3219 73.2556ZM15.7852 72.8961H16.5852C16.7978 72.8961 16.9666 72.8691 17.0915 72.8151C17.2198 72.7611 17.3075 72.6801 17.3548 72.5721C17.3953 72.4843 17.4155 72.3831 17.4155 72.2683C17.4155 72.1569 17.397 72.0607 17.3598 71.9797C17.3092 71.8649 17.2198 71.7822 17.0915 71.7316C16.9666 71.681 16.7978 71.6556 16.5852 71.6556H15.7852V72.8961Z" fill="#F7F3E8"/>
<path d="M21.4769 73.3215L20.2415 71.2911H20.7225L21.6845 72.9113L22.6414 71.2911H23.1275L21.8971 73.3215V74.8658H21.4769V73.3215Z" fill="#F7F3E8"/>
<path d="M26.4539 71.6658H25.5172V71.2911H27.8159V71.6658H26.8792V74.8658H26.4539V71.6658Z" fill="#F7F3E8"/>
<path d="M30.4725 71.2911H30.8978V72.8556H32.7003V71.2911H33.1256V74.8658H32.7003V73.2354H30.8978V74.8658H30.4725V71.2911Z" fill="#F7F3E8"/>
<path d="M36.0737 71.2911H36.499V74.8658H36.0737V71.2911Z" fill="#F7F3E8"/>
<path d="M39.4449 71.2911H39.9006L41.8145 74.2379V71.2911H42.2297V74.8658H41.7639L39.8601 71.9189V74.8658H39.4449V71.2911Z" fill="#F7F3E8"/>
<path d="M48.3291 72.9923V73.2151C48.3291 73.5797 48.27 73.8902 48.1519 74.1468C48.0337 74.4101 47.8565 74.6092 47.6203 74.7442C47.384 74.8793 47.092 74.9468 46.7443 74.9468C46.3798 74.9468 46.0709 74.8708 45.8177 74.7189C45.5646 74.567 45.3755 74.3493 45.2506 74.0658C45.1291 73.8025 45.0684 73.4734 45.0684 73.0784C45.0684 72.6835 45.1291 72.3544 45.2506 72.0911C45.3789 71.8075 45.5696 71.5898 45.8228 71.4379C46.076 71.286 46.3882 71.2101 46.7595 71.2101C47.2388 71.2101 47.6118 71.3316 47.8785 71.5746C48 71.686 48.0962 71.821 48.1671 71.9797C48.238 72.135 48.2802 72.3088 48.2937 72.5012H47.8633C47.8329 72.2244 47.7333 72.0084 47.5646 71.8531C47.4734 71.7687 47.3587 71.7063 47.2203 71.6658C47.0819 71.6219 46.9266 71.6 46.7544 71.6C46.4844 71.6 46.2582 71.654 46.076 71.762C45.8937 71.8666 45.757 72.0202 45.6658 72.2227C45.6152 72.3375 45.5781 72.4641 45.5544 72.6025C45.5308 72.7409 45.519 72.8995 45.519 73.0784C45.519 73.2573 45.5308 73.416 45.5544 73.5544C45.5781 73.6928 45.6152 73.8193 45.6658 73.9341C45.757 74.14 45.8937 74.2953 46.076 74.3999C46.2616 74.5046 46.4895 74.5569 46.7595 74.5569C47.016 74.5569 47.2304 74.5096 47.4025 74.4151C47.5781 74.3206 47.708 74.1822 47.7924 73.9999C47.8295 73.9122 47.8565 73.8177 47.8734 73.7164C47.8937 73.6118 47.9038 73.4953 47.9038 73.367H46.8557V72.9923H48.3291Z" fill="#F7F3E8"/>
<path d="M55.2711 73.3215L54.0357 71.2911H54.5167L55.4787 72.9113L56.4357 71.2911H56.9218L55.6914 73.3215V74.8658H55.2711V73.3215Z" fill="#F7F3E8"/>
<path d="M60.8382 74.9468C60.5041 74.9468 60.2205 74.8843 59.9876 74.7594C59.7547 74.6345 59.5741 74.459 59.4458 74.2328C59.3547 74.0843 59.2855 73.9122 59.2382 73.7164C59.191 73.5172 59.1674 73.3046 59.1674 73.0784C59.1674 72.6835 59.2298 72.3493 59.3547 72.0759C59.4796 71.8025 59.6652 71.5898 59.9117 71.4379C60.1614 71.286 60.4703 71.2101 60.8382 71.2101C61.2095 71.2101 61.5184 71.286 61.7648 71.4379C62.0146 71.5865 62.2002 71.7974 62.3218 72.0708C62.45 72.351 62.5142 72.6869 62.5142 73.0784C62.5142 73.47 62.45 73.8058 62.3218 74.086C62.1969 74.3594 62.0112 74.5721 61.7648 74.724C61.5184 74.8725 61.2095 74.9468 60.8382 74.9468ZM60.8382 74.5518C61.1116 74.5518 61.3361 74.4978 61.5116 74.3898C61.6905 74.2784 61.8239 74.1231 61.9116 73.924C61.9656 73.8058 62.0045 73.6776 62.0281 73.5392C62.0517 73.4008 62.0635 73.2472 62.0635 73.0784C62.0635 72.9096 62.0517 72.7561 62.0281 72.6177C62.0045 72.4793 61.9656 72.351 61.9116 72.2329C61.8239 72.0337 61.6905 71.8801 61.5116 71.7721C61.3361 71.6607 61.1116 71.605 60.8382 71.605C60.5682 71.605 60.3437 71.6607 60.1648 71.7721C59.9893 71.8801 59.856 72.0337 59.7648 72.2329C59.6669 72.4556 59.618 72.7375 59.618 73.0784C59.618 73.4193 59.6669 73.7012 59.7648 73.924C59.856 74.1231 59.9893 74.2784 60.1648 74.3898C60.3437 74.4978 60.5682 74.5518 60.8382 74.5518Z" fill="#F7F3E8"/>
<path d="M66.6254 74.9468C66.1765 74.9468 65.8457 74.8472 65.633 74.648C65.4237 74.4489 65.3191 74.14 65.3191 73.7215V71.2911H65.7444V73.6911C65.7444 73.9881 65.8136 74.2075 65.952 74.3493C66.0938 74.4911 66.3182 74.562 66.6254 74.562C66.9326 74.562 67.1571 74.4911 67.2988 74.3493C67.4406 74.2075 67.5115 73.9881 67.5115 73.6911V71.2911H67.9317V73.7215C67.9317 74.14 67.8254 74.4489 67.6127 74.648C67.4035 74.8472 67.0743 74.9468 66.6254 74.9468Z" fill="#F7F3E8"/>
<path d="M74.0352 71.2911H75.2555C75.6335 71.2911 75.9508 71.3637 76.2074 71.5088C76.4639 71.6506 76.6529 71.8582 76.7745 72.1316C76.8892 72.3848 76.9466 72.7004 76.9466 73.0784C76.9466 73.4531 76.8892 73.7704 76.7745 74.0303C76.6529 74.3004 76.4639 74.5079 76.2074 74.6531C75.9508 74.7949 75.6335 74.8658 75.2555 74.8658H74.0352V71.2911ZM75.2048 74.4911C75.5019 74.4911 75.7449 74.4388 75.934 74.3341C76.1264 74.2295 76.2681 74.0742 76.3593 73.8683C76.4065 73.767 76.4403 73.6523 76.4605 73.524C76.4842 73.3957 76.496 73.2472 76.496 73.0784C76.496 72.9096 76.4842 72.7611 76.4605 72.6329C76.4403 72.5046 76.4065 72.3898 76.3593 72.2886C76.2681 72.0827 76.1264 71.9274 75.934 71.8227C75.7449 71.7181 75.5019 71.6658 75.2048 71.6658H74.4606V74.4911H75.2048Z" fill="#F7F3E8"/>
<path d="M81.3493 74.9468C81.0152 74.9468 80.7316 74.8843 80.4987 74.7594C80.2658 74.6345 80.0852 74.459 79.957 74.2328C79.8658 74.0843 79.7966 73.9122 79.7494 73.7164C79.7021 73.5172 79.6785 73.3046 79.6785 73.0784C79.6785 72.6835 79.7409 72.3493 79.8658 72.0759C79.9907 71.8025 80.1764 71.5898 80.4228 71.4379C80.6726 71.286 80.9814 71.2101 81.3493 71.2101C81.7206 71.2101 82.0295 71.286 82.2759 71.4379C82.5257 71.5865 82.7114 71.7974 82.8329 72.0708C82.9612 72.351 83.0253 72.6869 83.0253 73.0784C83.0253 73.47 82.9612 73.8058 82.8329 74.086C82.708 74.3594 82.5223 74.5721 82.2759 74.724C82.0295 74.8725 81.7206 74.9468 81.3493 74.9468ZM81.3493 74.5518C81.6228 74.5518 81.8472 74.4978 82.0228 74.3898C82.2017 74.2784 82.335 74.1231 82.4228 73.924C82.4768 73.8058 82.5156 73.6776 82.5392 73.5392C82.5628 73.4008 82.5747 73.2472 82.5747 73.0784C82.5747 72.9096 82.5628 72.7561 82.5392 72.6177C82.5156 72.4793 82.4768 72.351 82.4228 72.2329C82.335 72.0337 82.2017 71.8801 82.0228 71.7721C81.8472 71.6607 81.6228 71.605 81.3493 71.605C81.0793 71.605 80.8548 71.6607 80.6759 71.7721C80.5004 71.8801 80.3671 72.0337 80.2759 72.2329C80.178 72.4556 80.1291 72.7375 80.1291 73.0784C80.1291 73.4193 80.178 73.7012 80.2759 73.924C80.3671 74.1231 80.5004 74.2784 80.6759 74.3898C80.8548 74.4978 81.0793 74.5518 81.3493 74.5518Z" fill="#F7F3E8"/>
<path d="M89.0539 71.2911H89.6008L90.8159 74.1771L92.0514 71.2911H92.5779V74.8658H92.1729V71.9291L90.9223 74.8658H90.7096L89.459 71.9291V74.8658H89.0539V71.2911Z" fill="#F7F3E8"/>
<path d="M97.6469 73.9341H95.976L95.6469 74.8658H95.2013L96.4925 71.2911H97.1304L98.4216 74.8658H97.9811L97.6469 73.9341ZM97.5203 73.5746L96.8165 71.5949H96.8064L96.1026 73.5746H97.5203Z" fill="#F7F3E8"/>
<path d="M103.052 74.8658L101.483 73.0683V74.8658H101.057V71.2911H101.483V72.7848L102.855 71.2911H103.371L101.878 72.9063L103.584 74.8658H103.052Z" fill="#F7F3E8"/>
<path d="M106.194 71.2911H108.32V71.6658H106.619V72.8607H108.305V73.2354H106.619V74.4911H108.32V74.8658H106.194V71.2911Z" fill="#F7F3E8"/>
<path d="M112.398 74.9468C112.064 74.9468 111.79 74.8911 111.578 74.7797C111.365 74.6649 111.213 74.5063 111.122 74.3037C111.044 74.135 111.006 73.9307 111.006 73.6911H111.466C111.466 73.8734 111.493 74.0286 111.547 74.1569C111.612 74.2953 111.715 74.4016 111.856 74.4759C112.001 74.5468 112.187 74.5822 112.413 74.5822C112.626 74.5822 112.805 74.5485 112.95 74.4809C113.098 74.4134 113.201 74.3189 113.259 74.1974C113.296 74.1198 113.314 74.032 113.314 73.9341C113.314 73.8464 113.298 73.7637 113.264 73.686C113.22 73.5915 113.149 73.5156 113.051 73.4582C112.953 73.3974 112.849 73.3518 112.737 73.3215C112.626 73.2877 112.452 73.2421 112.216 73.1848C111.929 73.1139 111.699 73.0345 111.527 72.9468C111.355 72.8556 111.233 72.7307 111.163 72.5721C111.112 72.454 111.087 72.3307 111.087 72.2025C111.087 72.0607 111.115 71.9274 111.173 71.8025C111.254 71.6202 111.397 71.4767 111.603 71.3721C111.812 71.2641 112.061 71.2101 112.347 71.2101C112.641 71.2101 112.886 71.2641 113.082 71.3721C113.277 71.4767 113.421 71.6286 113.512 71.8278C113.583 71.9898 113.618 72.1822 113.618 72.405H113.178C113.178 72.2295 113.152 72.0843 113.102 71.9696C113.044 71.8379 112.95 71.7383 112.818 71.6708C112.69 71.6 112.53 71.5645 112.337 71.5645C112.145 71.5645 111.981 71.5983 111.846 71.6658C111.715 71.7299 111.625 71.8194 111.578 71.9341C111.547 71.9983 111.532 72.0742 111.532 72.162C111.532 72.2531 111.546 72.3274 111.573 72.3848C111.606 72.4658 111.664 72.5333 111.745 72.5873C111.829 72.6379 111.924 72.6801 112.028 72.7139C112.133 72.7442 112.275 72.7814 112.454 72.8253L112.596 72.8607C112.795 72.9113 112.962 72.962 113.097 73.0126C113.235 73.0632 113.357 73.1274 113.461 73.205C113.566 73.2826 113.645 73.3805 113.699 73.4987C113.75 73.6101 113.775 73.7434 113.775 73.8987C113.775 74.0607 113.745 74.2025 113.684 74.324C113.596 74.5231 113.441 74.6767 113.218 74.7847C112.996 74.8928 112.722 74.9468 112.398 74.9468Z" fill="#F7F3E8"/>
<path d="M121.895 73.9341H120.224L119.895 74.8658H119.45L120.741 71.2911H121.379L122.67 74.8658H122.229L121.895 73.9341ZM121.769 73.5746L121.065 71.5949H121.055L120.351 73.5746H121.769Z" fill="#F7F3E8"/>
<path d="M125.306 71.2911H125.761L127.675 74.2379V71.2911H128.09V74.8658H127.625L125.721 71.9189V74.8658H125.306V71.2911Z" fill="#F7F3E8"/>
<path d="M134.224 71.2911H134.649V74.8658H134.224V71.2911Z" fill="#F7F3E8"/>
<path d="M137.595 71.2911H138.142L139.357 74.1771L140.592 71.2911H141.119V74.8658H140.714V71.9291L139.463 74.8658H139.251L138 71.9291V74.8658H137.595V71.2911Z" fill="#F7F3E8"/>
<path d="M144.066 71.2911H145.312C145.585 71.2911 145.813 71.3333 145.995 71.4177C146.178 71.5021 146.309 71.632 146.39 71.8075C146.448 71.9358 146.476 72.0928 146.476 72.2784C146.476 72.4675 146.448 72.6261 146.39 72.7544C146.309 72.9265 146.178 73.0565 145.995 73.1442C145.813 73.2286 145.585 73.2708 145.312 73.2708H144.492V74.8658H144.066V71.2911ZM145.226 72.9012C145.432 72.9012 145.597 72.8776 145.722 72.8303C145.847 72.7797 145.935 72.697 145.985 72.5822C146.022 72.4911 146.041 72.3915 146.041 72.2835C146.041 72.1654 146.021 72.0641 145.98 71.9797C145.93 71.8649 145.842 71.7822 145.717 71.7316C145.592 71.681 145.428 71.6556 145.226 71.6556H144.492V72.9012H145.226Z" fill="#F7F3E8"/>
<path d="M150.949 73.9341H149.278L148.949 74.8658H148.503L149.794 71.2911H150.432L151.723 74.8658H151.283L150.949 73.9341ZM150.822 73.5746L150.118 71.5949H150.108L149.404 73.5746H150.822Z" fill="#F7F3E8"/>
<path d="M155.765 74.9468C155.394 74.9468 155.084 74.8708 154.834 74.7189C154.584 74.567 154.398 74.3527 154.277 74.0759C154.152 73.8058 154.09 73.4734 154.09 73.0784C154.09 72.6936 154.152 72.3611 154.277 72.081C154.398 71.8042 154.584 71.5898 154.834 71.4379C155.084 71.286 155.394 71.2101 155.765 71.2101C155.998 71.2101 156.209 71.2438 156.398 71.3113C156.591 71.3755 156.756 71.4717 156.895 71.6C157.023 71.7147 157.122 71.8548 157.193 72.0202C157.264 72.1822 157.303 72.3611 157.31 72.5569H156.864C156.844 72.2666 156.744 72.0371 156.565 71.8683C156.36 71.6894 156.088 71.6 155.75 71.6C155.484 71.6 155.261 71.654 155.082 71.762C154.906 71.87 154.775 72.0219 154.687 72.2177C154.589 72.4472 154.54 72.7341 154.54 73.0784C154.54 73.4261 154.589 73.713 154.687 73.9392C154.778 74.1383 154.911 74.2919 155.087 74.3999C155.266 74.5046 155.487 74.5569 155.75 74.5569C155.926 74.5569 156.083 74.535 156.221 74.4911C156.363 74.4438 156.481 74.3763 156.576 74.2885C156.765 74.1198 156.864 73.8835 156.874 73.5797H157.32C157.316 73.7856 157.278 73.9712 157.203 74.1366C157.133 74.302 157.033 74.4438 156.905 74.562C156.773 74.6869 156.609 74.7831 156.414 74.8506C156.218 74.9147 156.002 74.9468 155.765 74.9468Z" fill="#F7F3E8"/>
<path d="M160.638 71.6658H159.701V71.2911H162V71.6658H161.063V74.8658H160.638V71.6658Z" fill="#F7F3E8"/>
</svg>
