<svg width="163" height="82" viewBox="0 0 163 82" fill="none" xmlns="http://www.w3.org/2000/svg">
<path d="M103.842 56.5529C121.637 49.4706 132.722 45.4025 162.131 38.2461C146.145 39.3002 110.929 41.6362 86.6487 46.4584C86.5727 46.3824 103.465 56.3269 103.842 56.5529Z" fill="#F7F3E8"/>
<path d="M48.4844 80.1438H71.7852C76.3097 73.2134 81.0604 69.7474 86.2635 65.9811C82.2675 64.3991 78.1955 62.8929 74.0475 61.4609C59.1928 67.9393 50.8968 76.6795 48.4844 80.1438Z" fill="#F7F3E8"/>
<path d="M53.0882 54.75C32.3518 62.1324 20.8144 70.2687 13.0469 80.139H38.686C41.1744 76.5988 50.7518 66.5784 68.6975 59.6481C63.6446 57.9159 55.1242 55.278 53.0882 54.7518V54.75Z" fill="#F7F3E8"/>
<path d="M63.7895 39.0781H7.00781C64.242 49.4746 91.8411 62.8091 136.331 81.5679C132.409 78.7799 71.1789 42.7702 63.7895 39.0781Z" fill="#F7F3E8"/>
<path d="M124.495 6.16406C116.953 6.16406 111.977 10.6083 111.977 17.2385C111.977 23.8688 117.406 28.313 124.495 28.313C131.584 28.313 137.087 23.7169 137.087 17.2385C137.087 10.7602 132.034 6.16406 124.495 6.16406ZM124.495 22.8888C121.328 22.8888 118.839 20.3267 118.839 17.2385C118.839 14.1503 121.404 11.5883 124.495 11.5883C127.586 11.5883 130.15 14.1503 130.15 17.2385C130.15 20.3267 127.662 22.8888 124.495 22.8888Z" fill="#F7F3E8"/>
<path d="M99.2449 6.46H94.7204V12.1862H97.8115C100.3 12.1862 102.336 14.3703 102.336 17.0083C102.336 20.2484 99.6973 21.8305 97.9617 21.9046H92.3822V0.507812H85.4453V27.629H97.9635C103.469 27.629 109.425 23.4849 109.425 17.2325C109.275 10.5282 104.146 6.46 99.2449 6.46Z" fill="#F7F3E8"/>
<path d="M36.652 17.0057C36.652 14.2936 38.8383 12.1095 41.4787 12.1095H46.9841L42.5356 19.5678H49.1721L53.6205 12.6374V6.53516H40.3494C34.5436 6.53516 29.8672 11.2814 29.8672 17.0817C29.8672 22.882 34.5418 27.6282 40.3494 27.6282H53.6205V21.902H41.4805C38.8419 21.902 36.6538 19.7178 36.6538 17.0057H36.652Z" fill="#F7F3E8"/>
<path d="M16.8906 0.507812H0V27.629H6.71065V6.46H15.4573C17.8697 6.46 20.4342 7.74012 20.4342 11.2821C20.4342 13.9943 18.4742 16.1043 15.8337 16.1043H9.12308V21.7545H13.8737C17.9457 21.9046 19.6795 23.7886 19.7555 27.7808V33.5812H26.8444V25.8209C26.8444 21.7527 23.9795 19.6427 21.1889 18.9647C25.5631 17.4585 27.7493 14.0684 27.7493 9.92428C27.5231 4.12397 22.0196 0.507812 16.8906 0.507812Z" fill="#F7F3E8"/>
<path d="M155.787 16.3285C160.462 14.8965 161.819 12.3363 161.819 7.21216V6.4582H154.956V7.58824C154.956 10.9784 153.523 13.4645 150.282 13.4645H147.038V0.507812H140.102V27.629H147.038V19.1907H149.527C152.996 19.1907 155.106 21.1488 155.106 24.313V27.6272H162.043V24.539C162.043 20.4708 160.234 17.5327 155.785 16.3267L155.787 16.3285Z" fill="#F7F3E8"/>
<path d="M63.7145 17.0153C63.7145 14.3031 65.9007 12.119 68.5412 12.119H74.0466L69.5981 19.5014H76.2346L80.683 12.571V6.46875H67.4119C61.6062 6.46875 56.9297 11.215 56.9297 17.0153C56.9297 22.8156 61.6043 27.5618 67.4119 27.5618H80.683V21.8356H68.467C65.9026 21.9115 63.7163 19.7256 63.7163 17.0135L63.7145 17.0153Z" fill="#F7F3E8"/>
</svg>
