<svg width="58" height="29" viewBox="0 0 58 29" fill="none" xmlns="http://www.w3.org/2000/svg">
<g id="Reebok Logo" clip-path="url(#clip0_3909_6345)">
<path id="Vector" d="M37.1471 20.0522C43.5134 17.5185 47.479 16.0631 58 13.5029C52.2811 13.88 39.6825 14.7158 30.9964 16.4409C30.9692 16.4137 37.0124 19.9714 37.1471 20.0522Z" fill="white"/>
<path id="Vector_2" d="M17.3463 28.4885H25.6822C27.3008 26.0092 29.0003 24.7692 30.8617 23.4218C29.4322 22.8558 27.9754 22.317 26.4915 21.8047C21.1773 24.1223 18.2094 27.2492 17.3463 28.4885Z" fill="white"/>
<path id="Vector_3" d="M18.9915 19.4053C11.5731 22.0463 7.44561 24.9571 4.66678 28.4883H13.8391C14.7294 27.2217 18.1556 23.6369 24.5757 21.1576C22.768 20.5379 19.7199 19.5942 18.9915 19.4059V19.4053Z" fill="white"/>
<path id="Vector_4" d="M22.8224 13.7998H2.50885C22.9843 17.5192 32.8578 22.2896 48.7739 29.0007C47.3709 28.0032 25.4659 15.1207 22.8224 13.7998Z" fill="white"/>
<path id="Vector_5" d="M44.539 2.02246C41.8411 2.02246 40.0606 3.61241 40.0606 5.98439C40.0606 8.35637 42.0029 9.94631 44.539 9.94631C47.075 9.94631 49.0439 8.30203 49.0439 5.98439C49.0439 3.66674 47.2362 2.02246 44.539 2.02246ZM44.539 8.00578C43.406 8.00578 42.5157 7.0892 42.5157 5.98439C42.5157 4.87958 43.4331 3.963 44.539 3.963C45.6448 3.963 46.5622 4.87958 46.5622 5.98439C46.5622 7.0892 45.672 8.00578 44.539 8.00578Z" fill="white"/>
<path id="Vector_6" d="M35.5013 2.12941H33.8827V4.17797H34.9885C35.8788 4.17797 36.6071 4.95936 36.6071 5.90311C36.6071 7.06225 35.6632 7.62824 35.0423 7.65476H33.0462V0H30.5645V9.70267H35.0429C37.0124 9.70267 39.1432 8.22011 39.1432 5.98332C39.0894 3.58481 37.2546 2.12941 35.5013 2.12941Z" fill="white"/>
<path id="Vector_7" d="M13.1107 5.90213C13.1107 4.93186 13.8929 4.15047 14.8375 4.15047H16.807L15.2156 6.81871H17.5898L19.1812 4.33935V2.15625H14.4335C12.3565 2.15625 10.6835 3.85422 10.6835 5.9293C10.6835 8.00437 12.3558 9.70234 14.4335 9.70234H19.1812V7.65378H14.8381C13.8941 7.65378 13.1114 6.8724 13.1114 5.90213H13.1107Z" fill="white"/>
<path id="Vector_8" d="M6.0426 0H0V9.70267H2.40072V2.12941H5.52982C6.39286 2.12941 7.31029 2.58738 7.31029 3.85455C7.31029 4.82482 6.60911 5.57968 5.66449 5.57968H3.26377V7.60108H4.96331C6.42006 7.65476 7.04031 8.32878 7.0675 9.75701V11.8321H9.60354V9.05583C9.60354 7.60043 8.57864 6.84556 7.58028 6.60299C9.14515 6.06417 9.92726 4.85134 9.92726 3.36877C9.84633 1.29369 7.87745 0 6.0426 0Z" fill="white"/>
<path id="Vector_9" d="M55.7339 5.65989C57.4063 5.14759 57.8919 4.23166 57.8919 2.3985V2.12877H55.4368V2.53304C55.4368 3.74588 54.924 4.63529 53.7644 4.63529H52.6042V0H50.1225V9.70267H52.6042V6.68385H53.4944C54.7356 6.68385 55.4905 7.38438 55.4905 8.51636V9.70203H57.9721V8.59722C57.9721 7.14182 57.3247 6.09069 55.7333 5.65925L55.7339 5.65989Z" fill="white"/>
<path id="Vector_10" d="M22.7952 5.90293C22.7952 4.93266 23.5773 4.15127 24.522 4.15127H26.4915L24.9001 6.79234H27.2742L28.8657 4.31298V2.12988H24.1179C22.0409 2.12988 20.368 3.82785 20.368 5.90293C20.368 7.97801 22.0403 9.67598 24.1179 9.67598H28.8657V7.62742H24.4954C23.578 7.65459 22.7959 6.87255 22.7959 5.90228L22.7952 5.90293Z" fill="white"/>
</g>
<defs>
<clipPath id="clip0_3909_6345">
<rect width="58" height="29" fill="white"/>
</clipPath>
</defs>
</svg>
